<svg width="225" height="90" viewBox="0 0 225 90" fill="none" xmlns="http://www.w3.org/2000/svg">
<g clip-path="url(#clip0_1418_2562)">
<path d="M113.937 0.0078125L109.327 1.24505L104.837 2.5415L96.2751 5.19321L88.3118 8.081L80.8278 11.086L73.9426 14.2095L70.7094 15.8009L67.5961 17.3918L64.6622 19.0416L61.9082 20.6917L59.2739 22.4007L56.8192 24.1097L54.5438 25.7595L52.3883 27.4689L50.4125 29.1779L48.6164 30.9453L47 32.6547L45.5031 34.3633L44.2461 36.0723L43.1082 37.7816L42.15 39.4314L41.4316 41.1404L40.8332 42.7902L40.4738 44.4403L40.2344 46.0897V47.6811L40.4141 49.2724L40.8332 50.8049L41.3121 52.1602L41.9109 53.3978L42.6293 54.6354L43.5273 55.7542L44.4852 56.8154L45.6227 57.8765L46.8805 58.8197L48.2574 59.7036L49.7543 60.5871L51.3106 61.3533L53.0469 62.06L54.9031 62.7086L56.8789 63.2972L58.9145 63.8282L61.1297 64.2999L63.4047 64.7121L65.7997 65.0066L68.3145 65.3015L70.8891 65.478L73.643 65.6552L76.4571 65.7137H79.3309L85.4977 65.478L92.0243 65.0066L98.9091 64.2404L106.154 63.1804L113.698 61.8247V42.9086L111.543 43.4976L105.854 44.9117L101.963 45.7956L97.6521 46.7387L92.9817 47.6226L88.0723 48.5065L83.163 49.2136L78.2532 49.8034L73.643 50.0975L71.4278 50.1563H69.3321L67.3567 50.0383L65.5606 49.8618L63.884 49.5673L62.3871 49.1544L61.07 48.6242L59.9325 48.0348L59.0942 47.2689L58.4356 46.3266L58.2563 45.8548L58.1364 45.3834V44.8529L58.1961 44.3815L58.6153 43.3207L59.3336 42.26L60.3516 41.1404L61.609 40.0796L63.1055 38.96L64.9016 37.8401L66.8176 36.6616L68.9731 35.5421L73.7032 33.3029L78.7923 31.1225L84.1805 29.0598L89.629 27.0563L94.9579 25.2297L104.537 22.2239L111.303 20.1612L113.937 19.4545V0.0078125ZM130.642 37.6636L132.976 37.0154L139.084 35.3652L147.705 32.7723L152.495 31.1814L157.405 29.4132L162.254 27.5865L166.924 25.6419L171.175 23.5795L173.091 22.5188L174.887 21.458L176.504 20.3972L177.881 19.3365L179.078 18.2757L180.037 17.215L180.695 16.1542L181.054 15.0934L181.174 14.5632V14.033L181.054 13.5025L180.934 12.9719L180.396 12.0292L179.677 11.2633L178.719 10.5559L177.522 10.0257L176.204 9.5543L174.708 9.20059L173.031 8.96452L171.295 8.78805L169.379 8.72922H167.343L163.153 8.96452L158.662 9.37745L154.171 10.0257L149.681 10.7915L145.43 11.6166L137.886 13.2668L132.617 14.5632L130.582 15.0934V9.20059L132.737 8.6704L138.425 7.37395L142.257 6.54887L146.568 5.78261L151.178 5.01674L156.028 4.42734L160.937 3.95598L163.332 3.83794L165.727 3.77912H168.062L170.337 3.89677L172.492 4.07363L174.588 4.36813L176.504 4.78106L178.36 5.25242L179.976 5.90065L181.473 6.66652L182.73 7.60925L183.808 8.6704L184.706 9.84881L185.005 10.497L185.305 11.2045L185.664 12.6774L185.784 14.0919L185.664 15.4471L185.305 16.8024L184.766 18.1581L184.048 19.4545L183.09 20.6917L182.012 21.9294L180.755 23.167L179.318 24.3454L177.761 25.5242L176.025 26.6438L174.228 27.7634L172.253 28.8241L168.122 30.8865L163.631 32.8903L158.901 34.717L154.051 36.4848L149.142 38.0761L144.233 39.6083L139.503 41.0224L130.642 43.5564V37.6636Z" fill="#999999"/>
<path d="M202.968 9.25879L203.267 10.8501L203.386 12.4411L203.327 14.0324L203.087 15.6822L202.728 17.3324L202.129 18.9821L201.351 20.6911L200.453 22.3413L199.315 24.0503L198.058 25.7589L196.621 27.4683L195.004 29.1772L193.268 30.8858L191.352 32.5948L189.257 34.2446L186.982 35.954L184.587 37.6041L182.012 39.3127L179.318 40.9041L176.444 42.5542L173.45 44.1448L170.217 45.7362L166.924 47.3267L163.452 48.8592L159.859 50.3329L156.088 51.8062L152.196 53.2199L148.124 54.6348L143.934 55.9901L139.623 57.345L135.192 58.5826L130.582 59.8198V54.8697L133.755 54.0454L142.018 51.8062L147.586 50.0969L153.752 48.0342L160.398 45.6185L167.164 42.8488L170.577 41.3754L173.989 39.7841L177.283 38.0755L180.575 36.3665L183.689 34.5395L186.682 32.5948L189.496 30.5913L192.131 28.5286L194.526 26.4075L196.681 24.1679L197.699 23.0483L198.597 21.8699L199.435 20.6911L200.154 19.5127L200.872 18.2751L201.411 17.0375L201.95 15.8002L202.309 14.5038L202.668 13.2073L202.848 11.9105L202.968 10.6141V9.25879Z" fill="#999999"/>
<path d="M39.7548 87.8119L38.0786 88.3428L36.2825 88.8142L34.3665 89.1672L32.4504 89.4032L28.4391 89.7569L24.4278 89.8746L21.6137 89.8161L18.9793 89.6389L16.5246 89.3444L14.1895 88.9907L11.9742 88.4605L9.99845 87.8711L8.14259 87.2233L6.46603 86.3978L4.96954 85.5139L3.71212 84.5708L2.57422 83.5108L1.67617 82.3908L0.957814 81.212L0.419141 79.9159L0.119531 78.5603L0 77.087L0.119531 75.6725L0.538673 74.2584L1.1375 72.9623L2.03555 71.7835L3.11329 70.6636L4.43048 69.6028L5.92696 68.6601L7.60353 67.835L9.45939 67.0691L11.4356 66.3617L13.5906 65.8315L15.866 65.3601L18.3207 65.0064L20.8356 64.7119L23.47 64.5939L26.1637 64.5347L29.9958 64.6527L33.7676 64.9476L37.4797 65.4778L41.0723 66.1852L40.593 66.8334L40.2341 67.5405L39.6352 68.8961L39.1563 68.9546L37.6594 68.1887L36.402 67.717L34.8454 67.1868L32.9895 66.657L30.834 66.2437L28.4391 66.008L25.8645 65.8907L23.5895 65.9495L21.3743 66.126L19.3985 66.4209L17.4825 66.7746L15.8063 67.3048L14.2496 67.8934L12.8125 68.5424L11.5555 69.3083L10.4176 70.1338L9.45939 71.0173L8.62111 71.9012L7.9629 72.9031L7.484 73.9639L7.06486 75.0243L6.88517 76.1439L6.76525 77.2634L6.88517 78.5011L7.12462 79.6803L7.54376 80.8583L8.14259 81.9194L8.92072 82.8618L9.759 83.8049L10.8367 84.6888L11.9742 85.4547L13.2914 86.1037L14.6688 86.7515L16.225 87.2817L17.8418 87.6946L19.5782 88.0476L21.434 88.2836L23.4098 88.4013L25.3856 88.4605L28.1399 88.4013L30.6543 88.1072L32.9895 87.7534L35.0251 87.2817L36.8212 86.7515L38.2583 86.2801L40.1141 85.5727L39.7548 87.8119ZM62.7458 72.1957L66.1587 72.3729L67.7751 72.5494L69.2724 72.7851L70.7091 73.1388L72.0263 73.551L73.2837 74.0227L74.3611 74.5529L75.379 75.1423L76.2771 75.7905L77.0556 76.498L77.7146 77.2638L78.1935 78.0889L78.5529 78.9728L78.7923 79.9159L78.8521 80.8583L78.7923 81.7422L78.613 82.5673L78.2536 83.3924L77.7747 84.1582L77.1759 84.9241L76.3978 85.69L75.4997 86.339L74.4818 86.9872L73.3443 87.5766L72.0271 88.1068L70.5904 88.5778L69.0333 88.9907L67.3568 89.2852L65.5607 89.5209L63.5845 89.6981L61.4888 89.7566L59.7524 89.6981L58.0759 89.5801L56.4591 89.3444L54.9024 89.1087L53.4056 88.755L52.0286 88.3428L50.7712 87.8119L49.5739 87.2817L48.4962 86.6923L47.5384 85.9856L46.7598 85.2782L46.1012 84.4531L45.6223 83.628L45.263 82.7441L45.0837 81.8018L45.1434 80.8002L45.2032 79.8571L45.4427 78.9148L45.922 78.0897L46.4606 77.2646L47.179 76.4987L48.0774 75.7913L49.095 75.1431L50.1727 74.5537L51.4302 74.0235L52.8071 73.5517L54.2438 73.1396L55.8005 72.7859L57.4173 72.5502L59.1536 72.3737L60.8896 72.2557L62.7458 72.1957ZM51.2505 81.33L51.37 82.6269L51.7892 83.9229L52.1481 84.5711L52.5673 85.1606L53.1063 85.7499L53.7052 86.2801L54.3638 86.8103L55.1423 87.2233L56.0403 87.6354L57.0579 87.9891L58.1356 88.2248L59.3329 88.4605L60.6505 88.5778L62.0872 88.637L63.5243 88.5778L64.8415 88.4013L66.0388 88.1068L67.1763 87.7531L68.1341 87.3401L69.0322 86.8692L69.8107 86.2798L70.4697 85.6904L71.0083 85.1017L71.4872 84.4527L72.2056 83.0975L72.6247 81.8598L72.7447 80.6818L72.6247 79.4442L72.2654 78.2066L71.6068 76.9689L71.1275 76.3795L70.5892 75.7901L69.99 75.26L69.272 74.7882L68.4337 74.3761L67.5357 74.0223L66.4579 73.7278L65.3204 73.4921L64.063 73.3149H61.1294L59.6923 73.4921L58.3751 73.7278L57.1778 74.0223L56.1001 74.3761L55.202 74.8478L54.3638 75.3188L53.6454 75.9082L53.0466 76.4976L52.5079 77.1458L52.0888 77.794L51.7895 78.443L51.5501 79.1505L51.3704 79.8571L51.2505 81.33ZM108.788 72.3729L111.003 72.4906L113.219 72.3729L109.926 76.0262L106.034 80.5053L102.202 85.1606L100.526 87.3997L99.0884 89.4624L96.9931 89.3444L94.8377 89.4624L92.3228 86.0441L88.7904 81.5065L84.8392 76.6748L81.2466 72.3729L84.3599 72.4906L87.4134 72.3729L89.2693 75.2603L91.724 78.6191L94.5982 82.3316L97.7713 86.1037L98.49 85.6319L99.0884 85.1017L103.22 80.0924L108.788 72.3729ZM145.13 67.7758V72.3729H152.495L152.375 73.1388V73.4925L152.495 73.7282H145.13V84.5123L145.25 85.5139L145.549 86.3978L145.789 86.8103L146.148 87.2233L146.567 87.577L147.046 87.8711L147.705 88.1072L148.423 88.3428L149.261 88.4605H150.279L151.836 88.4013L153.393 88.2248V89.1087L150.578 89.5209L149.081 89.6981L147.585 89.7569L145.729 89.6389L144.052 89.4624L142.676 89.1087L141.478 88.5778L140.999 88.2248L140.58 87.8119L140.221 87.3401L139.981 86.8695L139.742 86.2801L139.622 85.6319L139.562 84.9245L139.622 84.1586V73.7282H135.311L135.431 73.0804L135.311 72.3729H139.622V68.8961L145.13 67.7758ZM186.801 87.6354L184.047 88.4605L181.113 89.1672L178 89.5801L176.443 89.6981L174.827 89.7566L173.091 89.6981L171.414 89.5801L169.798 89.4028L168.241 89.1083L166.804 88.8138L165.427 88.4009L164.169 87.9291L163.032 87.399L162.014 86.8096L161.116 86.1613L160.338 85.4539L159.679 84.688L159.14 83.8041L158.781 82.9202L158.542 81.9771L158.482 80.9755L158.542 80.0332L158.721 79.1493L159.021 78.3242L159.5 77.4991L160.039 76.7333L160.757 76.0258L161.596 75.3184L162.554 74.7298L163.571 74.1404L164.769 73.6686L166.086 73.1969L167.523 72.8432L169.019 72.5486L170.696 72.3722L172.492 72.2541L174.348 72.1949L177.222 72.313L179.916 72.7251L182.371 73.3741L183.508 73.8459L184.526 74.3176L185.484 74.9062L186.322 75.5552L187.041 76.2619L187.639 77.0278L188.059 77.9117L188.358 78.8548L188.478 79.8563V80.9175L181.353 80.8583L174.348 80.7998H164.589L164.529 81.5657V82.2731L164.709 82.9806L165.008 83.6872L165.367 84.3355L165.847 84.9249L166.505 85.5143L167.164 86.0445L168.003 86.5162L168.901 86.9284L169.919 87.3405L171.056 87.6358L172.314 87.8715L173.631 88.1072L175.068 88.1656L176.564 88.2248L178.301 88.1656L179.917 87.9891L181.414 87.6946L182.791 87.3401L185.126 86.5743L186.862 85.7496L186.801 87.6354ZM183.03 79.503L182.91 78.325L182.61 77.2054L182.012 76.1442L181.652 75.6725L181.233 75.2603L180.694 74.7886L180.096 74.4349L179.378 74.0812L178.599 73.8462L177.701 73.6106L176.683 73.4333L175.605 73.3153H174.348L172.073 73.4333L170.157 73.8462L168.481 74.4945L167.164 75.2603L166.146 76.2035L165.367 77.2638L164.829 78.3834L164.589 79.503H183.03ZM223.443 76.0262H222.845L222.006 75.378L220.988 74.8478L220.33 74.4941L219.552 74.2L217.875 73.7867L215.959 73.4925L214.103 73.3745L212.666 73.4333L211.289 73.551L210.032 73.7282L208.834 74.0227L207.757 74.3176L206.799 74.7302L205.9 75.1423L205.122 75.6725L204.464 76.2035L203.865 76.7336L203.327 77.3815L202.907 77.9709L202.608 78.6191L202.368 79.3265L202.249 80.034L202.189 80.6818L202.249 81.5657L202.428 82.3316L202.727 83.0975L203.087 83.8641L203.566 84.5708L204.164 85.1606L204.883 85.8084L205.661 86.3393L206.559 86.8103L207.517 87.2233L208.535 87.6354L209.673 87.9299L210.87 88.1656L212.128 88.3428L213.444 88.4605L214.821 88.5193L216.259 88.4605L217.576 88.3428L218.833 88.1656L220.03 87.8711L222.246 87.1052L224.401 86.2213L224.82 86.2801L224.461 87.9299L222.006 88.6958L219.432 89.2852L216.678 89.6389L213.864 89.7569L211.709 89.6981L209.732 89.5805L207.877 89.3444L206.2 89.0495L204.584 88.6958L203.147 88.2248L201.83 87.7534L200.632 87.1637L199.554 86.5743L198.656 85.8676L197.878 85.1606L197.219 84.3943L196.74 83.5692L196.381 82.6853L196.142 81.8014L196.082 80.8583L196.142 79.8567L196.441 78.914L196.86 78.0305L197.399 77.205L198.177 76.4391L199.016 75.7317L200.034 75.0839L201.171 74.4941L202.428 73.9639L203.805 73.4925L205.302 73.0804L206.859 72.7851L208.535 72.4906L210.331 72.3133L212.128 72.1957H214.043L216.977 72.2549L219.731 72.4906L222.426 72.9623L225 73.669L223.443 76.0262ZM125.253 89.9926V72.3729H119.625V89.9926H125.253Z" fill="#A3A3A3"/>
<path d="M122.737 61.5883L123.515 61.3534L124.234 61.1173L124.832 60.7636L125.371 60.4103L125.79 59.9385L126.089 59.4668L126.209 58.9962L126.269 58.5244L126.089 58.0531L125.79 57.6993L125.431 57.3456L124.892 57.1099L124.293 56.9335L123.575 56.8154H122.857L122.078 56.9335L121.3 57.1099L120.641 57.3456L119.982 57.6993L119.443 58.1123L119.025 58.5244L118.725 58.9962L118.605 59.4668V59.9385L118.725 60.4103L119.025 60.8224L119.443 61.1173L119.923 61.4118L120.521 61.5883L121.24 61.6475H121.959L122.737 61.5883Z" fill="#999999"/>
</g>
<defs>
<clipPath id="clip0_1418_2562">
<rect width="225" height="90" fill="white"/>
</clipPath>
</defs>
</svg>
