<svg width="240" height="80" viewBox="0 0 240 80" fill="none" xmlns="http://www.w3.org/2000/svg">
<g clip-path="url(#clip0_1418_2556)">
<path d="M236.407 72.0463C236.407 67.7117 234.26 64.1347 231.603 64.1347C230.325 64.1347 229.1 64.9704 228.197 66.4581C227.294 67.9458 226.786 69.9635 226.786 72.0673C226.786 74.1712 227.294 76.1889 228.197 77.6766C229.1 79.1643 230.325 80 231.603 80C232.236 79.9976 232.862 79.7899 233.445 79.3888C234.029 78.9877 234.559 78.401 235.006 77.6624C235.452 76.9238 235.805 76.0476 236.045 75.084C236.286 74.1203 236.409 73.0881 236.407 72.0463ZM161.435 52.2252C161.281 45.071 165.83 35.2236 170.915 35.0552C173.905 35.0132 175.489 38.7165 176.179 41.9569H185.582C185.02 32.1936 179.909 23.4403 172.32 23.2299C161.307 22.9774 151.367 37.122 151.239 52.4777C151.162 62.9143 156.145 72.7196 164.603 72.9721C171.86 73.2246 180.804 66.0284 184.228 54.1189H173.879C172.014 57.5697 169.331 60.4734 166.52 60.5997C164.143 60.7259 161.537 57.233 161.435 52.2252ZM200.198 72.9721C191.102 72.715 185.736 62.9143 185.812 52.4777C185.94 37.1173 196.647 22.9774 208.478 23.2299C217.012 23.4403 222.608 32.9932 222.787 43.2615C223.068 61.4834 210.113 73.2667 200.198 72.9721Z" fill="#A3A3A3"/>
<path d="M13.9164 71.3309H0.015625L20.5857 0H239.983L235 14.9816H31.0368L23.3965 40.1473H45.2697L49.9715 23.9874H76.7253L73.5823 34.8869H59.8604L58.3017 40.1473H75.1155L79.8939 23.9874H99.7485C99.7485 23.9874 108.564 23.9874 108.999 35.8548C109.43 47.8111 99.2629 50.7943 98.2664 50.7943C98.2664 50.7943 99.2629 57.191 101.742 59.8422H106.75L117.993 23.9874H128.087L137.541 48.3114L145.156 23.9874H155.403L141.272 71.3309H134.73L123.717 43.051L114.927 71.3309H93.0025L86.7676 53.4456H82.5003L77.1313 71.3309H65.942L71.5125 52.3935H54.7499L52.6545 59.5897H66.3764L62.9779 71.3309H36.1985L41.7179 52.3935H19.6658L13.9164 71.3309Z" fill="#A3A3A3"/>
<path d="M95.0493 40.5685H86.668L88.15 35.3969H95.8414C97.3491 35.3969 97.7835 36.7015 97.5279 38.0061C97.2724 39.2639 96.327 40.5685 95.0493 40.5685ZM195.523 52.2255C195.344 43.8089 200.762 34.3869 206.204 34.2139C207.134 34.1439 208.062 34.3867 208.933 34.9275C209.803 35.4682 210.598 36.2956 211.267 37.359C211.937 38.4224 212.469 39.6995 212.829 41.1123C213.189 42.5252 213.37 44.0441 213.362 45.5763C213.26 52.8146 208.89 62.0355 202.246 62.1571C197.031 62.2459 195.625 57.2334 195.523 52.2255ZM235.871 72.0466C235.871 75.9604 233.955 79.0745 231.604 79.0745C229.253 79.0745 227.362 75.9604 227.362 72.0887C227.36 71.1686 227.469 70.2569 227.681 69.4057C227.893 68.5545 228.205 67.7806 228.599 67.128C228.993 66.4754 229.461 65.9569 229.977 65.6022C230.492 65.2476 231.045 65.0636 231.604 65.0608C232.163 65.0581 232.716 65.2366 233.233 65.5861C233.75 65.9357 234.22 66.4495 234.616 67.0982C235.012 67.7469 235.327 68.5178 235.542 69.3668C235.758 70.2159 235.869 71.1265 235.871 72.0466Z" fill="#F5F5F5"/>
<path d="M229.812 76.2126H230.502V72.4672H232.24C233.339 72.4672 233.032 74.0663 233.134 75.0763L233.262 76.2126H234.054C233.773 75.4551 233.875 75.2446 233.824 74.1131C233.722 72.5981 233.722 72.4672 233.16 71.878C233.697 71.2467 233.901 70.8259 233.875 69.6897C233.799 67.7118 233.007 67.4546 232.189 67.4546H229.812V76.2126Z" fill="#A3A3A3"/>
<path d="M232.19 68.4739C232.625 68.4739 233.264 68.6376 233.161 70.1526C233.11 71.2467 232.65 71.4571 232.19 71.4571H230.504V68.4692H232.19V68.4739Z" fill="white"/>
</g>
<defs>
<clipPath id="clip0_1418_2556">
<rect width="240" height="80" fill="white"/>
</clipPath>
</defs>
</svg>
