<svg width="202" height="72" viewBox="0 0 202 72" fill="none" xmlns="http://www.w3.org/2000/svg">
<path fill-rule="evenodd" clip-rule="evenodd" d="M0 61.0101C0 61.0101 76.8449 79.3126 201.596 68.6795V57.1746C173.171 60.1447 147.579 62.4141 125.31 63.2762C89.037 64.681 61.1478 63.1059 40.8059 61.5324C13.5068 59.4203 0 56.8267 0 56.8267V61.0101Z" fill="#999999"/>
<path fill-rule="evenodd" clip-rule="evenodd" d="M40.8059 0H0V53.3395C0 53.3395 10.6635 53.5139 37.5751 53.5139C37.5751 53.5139 39.4597 47.5875 39.9982 42.8809C39.9982 42.8809 30.0392 44.623 16.8533 44.623V27.5413C16.8533 27.5413 23.3123 27.1925 30.8482 27.89C30.8482 27.89 32.7328 22.3123 32.7328 20.0462C32.7328 20.0462 25.1969 20.2206 16.5853 19.8718V8.01898C16.5853 8.01898 24.3904 6.9727 38.6546 9.23881C38.6521 9.23881 40.5367 3.22438 40.8059 0ZM61.2598 32.4222C61.2598 32.4222 61.2598 15.1652 71.756 17.6057C71.756 17.6057 76.3316 17.0826 76.3316 22.8347C76.3316 28.5875 77.6765 43.9272 73.6393 45.8437C69.6034 47.7619 65.5662 47.5875 63.6816 43.7528C61.797 39.9181 61.2598 32.4222 61.2598 32.4222ZM74.9855 53.3395H92.7471C92.7471 53.3395 89.2483 29.2842 93.0163 0H75.5239C75.5239 0 76.8688 11.1554 76.0624 14.4677C76.0624 14.4677 60.4534 5.57768 48.3418 20.5685C45.6382 23.9152 45.6571 28.1288 45.3815 32.2479C44.4241 46.5754 55.6928 61.5557 74.7162 50.7247L74.9855 53.3395ZM158.952 0C158.952 0 160.837 45.4949 157.338 53.6883H174.563C174.563 53.6883 171.064 24.2297 176.983 20.9173C176.983 20.9173 187.749 15.6884 186.942 29.2842C186.133 42.8809 185.867 53.5139 185.867 53.5139H201.598V23.1834C201.598 23.1834 201.474 12.8991 188.558 13.0727C188.558 13.0727 178.601 12.5496 175.37 16.2107C175.37 16.2107 172.95 12.0272 175.37 0H158.952ZM101.687 39.4332C102.394 31.4501 109.218 23.951 118.583 24.752C118.583 24.752 125.311 24.0553 130.695 27.89C130.695 27.89 133.656 14.4677 109.433 19.8718C109.433 19.8718 110.242 15.8628 110.242 14.119C110.242 12.3752 110.51 13.0727 110.51 13.0727C110.51 13.0727 141.998 4.88016 144.96 25.4487C144.96 25.4487 144.883 32.3782 145.017 39.4324C145.132 45.6163 145.408 51.8956 146.037 53.6875H130.429L130.159 50.2007C130.159 50.2007 118.047 59.2652 106.206 51.247C102.52 48.7519 101.586 44.4112 101.63 40.614C101.633 40.2212 101.653 39.826 101.687 39.4332ZM131.166 37.1003C131.181 35.3003 130.78 32.894 128.675 32.1607C125.177 30.94 122.218 31.5503 120.738 32.0735C119.256 32.5966 117.372 34.6012 117.372 34.6012C117.372 34.6012 116.296 36.8314 116.059 39.4332C116.047 39.5938 116.034 39.7559 116.028 39.9181C115.868 43.2679 117.175 47.0334 122.891 47.4131C122.891 47.4131 130.722 48.4569 131.042 41.1591C131.1 39.8325 131.154 38.4228 131.166 37.1003Z" fill="#A3A3A3"/>
</svg>
