<svg width="228" height="84" viewBox="0 0 228 84" fill="none" xmlns="http://www.w3.org/2000/svg">
<g clip-path="url(#clip0_1418_2574)">
<path d="M84.9046 0C75.5625 0 66.2153 0.257416 57.3867 0.772248C68.2901 21.1287 74.2605 49.4702 58.1648 83.2278C66.9933 83.7426 75.8167 84 84.9046 84C163.827 84 227.951 65.188 227.951 42C227.956 18.812 163.827 0 84.9046 0Z" fill="#A3A3A3"/>
<path d="M55.5711 0.772461C-10.6273 4.63885 0.79477 21.6438 0.79477 42.0002C0.79477 62.6141 -10.1086 79.619 56.3492 83.228C72.4449 49.4704 66.2152 21.1289 55.5711 0.772461Z" fill="#999999"/>
<path d="M101.007 33.2427L92.6969 53.0844L84.6516 33.2427L80.4967 52.307H79.1999L84.1277 28.3467L92.6969 49.4702L101.525 28.3467L106.458 52.307H104.897L101.007 33.2427ZM141.762 29.1189H146.176C149.553 29.1189 152.147 29.6338 154.746 31.9505C157.085 34.2724 158.382 37.3614 158.382 40.7129C158.382 43.8071 157.344 46.8961 154.746 49.2128C152.406 51.5296 149.553 52.307 146.176 52.307H141.762V29.1189ZM145.917 50.7573C149.035 50.7573 151.628 50.2425 153.968 48.1832C155.783 46.1238 157.085 43.5445 157.085 40.7129C157.085 37.8762 155.788 35.0395 153.708 32.9802C151.369 30.9208 149.035 30.406 145.922 30.406H143.329V50.7573H145.917ZM171.36 29.1189H172.916V52.307H171.36V29.1189ZM189.531 44.5742L186.418 52.307H184.862L194.728 28.3467L204.335 52.307H203.038L199.666 44.5742H189.531ZM194.723 32.2079L190.049 43.2871H199.132L194.723 32.2079ZM123.851 48.1832C123.851 48.9554 123.851 49.4702 124.37 49.4702C125.148 49.4702 125.148 48.9554 125.148 48.1832V43.8071H129.562V48.1883C129.562 52.0547 128.525 52.8218 124.37 52.8218C120.479 52.8218 119.437 52.0547 119.437 48.1883V33.2427C119.437 29.6338 120.474 28.6041 124.37 28.6041C128.265 28.6041 129.562 29.6338 129.562 33.2427V41.4903H123.851V48.1832ZM125.148 38.1336V33.2427C125.148 32.4705 125.148 31.9557 124.37 31.9557C123.851 31.9557 123.851 32.4756 123.851 33.2427V38.1388H125.148V38.1336ZM16.6325 28.6041C20.528 28.6041 21.0467 29.3763 21.0467 33.5001V47.9309C21.0467 52.0547 20.7874 52.8218 16.6325 52.8218H11.4453V28.6041H16.6325ZM15.595 49.7277H16.1138C16.8918 49.7277 16.8918 49.4702 16.8918 48.4406V33.2427C16.8918 32.2131 16.8918 31.6982 15.8544 31.6982H15.595V49.7277ZM28.0546 28.6041L28.8327 43.0297H29.092L30.394 28.6041H34.025L35.3218 43.0297H35.5863L36.105 28.6041H40.2548L37.9205 52.8218H33.5063L32.2095 38.6536L30.9127 52.8218H26.4984L23.8997 28.6041H28.0546ZM47.7865 28.6041C51.6821 28.6041 52.2008 29.6338 52.2008 33.5001V36.8466C52.2008 38.9059 52.2008 40.193 50.3801 40.9704C51.9362 41.4852 52.2008 42.7774 52.2008 44.5742V52.8218H48.0459V43.8071C48.0459 43.0348 47.7865 42.7774 47.0084 42.7774H46.7491V52.8218H42.5942V28.6041H47.7865ZM46.7439 39.1633H47.2626C48.0407 39.1633 48.0407 38.9059 48.0407 37.8762V33.2427C48.0407 32.2131 48.0407 31.6982 47.0033 31.6982H46.7439V39.1633Z" fill="white"/>
</g>
<defs>
<clipPath id="clip0_1418_2574">
<rect width="228" height="84" fill="white"/>
</clipPath>
</defs>
</svg>
