<svg width="171" height="94" viewBox="0 0 171 94" fill="none" xmlns="http://www.w3.org/2000/svg">
<path fill-rule="evenodd" clip-rule="evenodd" d="M2.25 2H168.768V92H2.25V2Z" fill="white" stroke="#A3A3A3" stroke-width="3" stroke-miterlimit="2.613"/>
<path fill-rule="evenodd" clip-rule="evenodd" d="M6.98438 66.7324H164.032V87.2185H6.98438V66.7324Z" fill="#A3A3A3"/>
<path fill-rule="evenodd" clip-rule="evenodd" d="M107.84 39.1398C101.826 39.1398 99.3126 35.1084 99.3126 28.7231C99.3126 24.481 101.043 19.5214 107.77 19.5214C113.457 19.5214 115.591 24.8117 115.591 28.7011C115.592 34.7666 112.858 39.1398 107.84 39.1398ZM89.6528 29.2271C89.6528 39.5723 97.6396 46.663 107.469 46.663C117.784 46.663 125.103 39.2965 125.103 28.9998C125.103 19.3271 117.655 11.7627 107.163 11.7627C97.6396 11.7618 89.6528 18.8534 89.6528 29.2271ZM39.2222 25.6281L23.0058 25.6345C23.0058 25.6345 22.6897 25.6391 22.6897 25.3056L22.6851 20.8472C22.6851 20.477 22.9655 20.5072 22.9655 20.5072H32.0628C32.0628 20.5072 37.0416 20.4862 39.0811 20.8527C39.2598 20.8838 39.3807 20.8829 39.3817 20.7565V13.0509C39.3817 13.0509 39.3881 12.8869 39.225 12.8869C39.0601 12.8869 12.5405 12.897 12.47 12.8988C12.2968 12.9007 12.3738 13.0445 12.3738 13.0445C12.6322 13.3826 13.0051 15.1665 13.0051 18.1773V39.7665C13.0051 42.6298 12.6239 45.2044 12.3729 45.5379C12.3729 45.5379 12.2867 45.6762 12.4608 45.679H39.2268C39.389 45.679 39.3807 45.5269 39.3807 45.5269V37.8543C39.3807 37.7279 39.258 37.7032 39.0674 37.76C37.2945 38.2868 32.1003 38.2163 32.1003 38.2163H23.0223C23.0223 38.2163 22.7016 38.2877 22.7016 37.9166C22.7016 37.5492 22.6796 33.7524 22.6796 33.4198C22.6796 33.0872 23.0223 33.0936 23.0223 33.0936L39.2195 33.0982C39.3972 33.0982 39.3817 32.9332 39.3817 32.9332L39.3844 25.7939C39.3844 25.7939 39.3991 25.6281 39.2222 25.6281ZM157.925 45.5608L157.929 18.1727C157.929 13.7354 158.391 13.1325 158.458 13.0482C158.458 13.0482 158.535 12.8961 158.359 12.8924H149.806H149.54C149.367 12.8952 149.452 13.05 149.452 13.05C149.688 13.3579 150.053 13.9891 150.053 18.1727C150.053 20.6099 150.04 30.6729 150.04 31.1108C150.04 31.1209 150.033 31.1118 150.033 31.1118L138.653 12.963C138.653 12.963 138.635 12.9355 138.608 12.9135C138.589 12.9008 138.567 12.8932 138.544 12.8915H128.377C128.199 12.8942 128.279 13.0289 128.279 13.0289C128.563 13.3908 128.705 13.4412 128.705 19.3427V39.761C128.705 44.3514 128.705 44.9341 128.278 45.5342C128.278 45.5342 128.199 45.6698 128.376 45.6735H136.901C137.073 45.6698 136.997 45.5287 136.997 45.5287C136.764 45.2245 136.724 43.546 136.617 39.7601C136.617 39.7079 136.625 27.6805 136.628 27.1371C136.628 27.1243 136.635 27.1335 136.635 27.1335L148.393 45.6167C148.393 45.6167 148.405 45.6368 148.43 45.657C148.445 45.6707 148.515 45.6689 148.515 45.6689L157.782 45.6735C157.818 45.6735 157.865 45.6735 157.895 45.6378C157.931 45.6011 157.925 45.5608 157.925 45.5608Z" fill="#999999"/>
<path fill-rule="evenodd" clip-rule="evenodd" d="M100.436 60.4712C100.436 60.4428 100.421 60.4208 100.393 60.3942C100.348 60.3601 100.304 60.325 100.26 60.2889C97.7175 58.0193 96.8581 57.1682 94.9019 55.0562C94.9019 55.0562 76.8411 36.4539 76.6652 36.2743C76.569 36.1745 76.569 36.1745 76.6652 36.0361C76.7146 35.9637 89.9323 16.8804 90.4389 16.1437C90.5874 15.9321 91.783 14.2966 92.0387 13.9759C92.5115 13.384 92.8633 13.0743 92.9265 13.0084C92.9586 12.9818 92.9641 12.9433 92.9513 12.9057C92.9137 12.87 92.8386 12.8508 92.713 12.8581H82.9881C82.9881 12.8581 82.9441 12.8627 82.9221 12.8764C82.9011 12.8856 82.8754 12.9195 82.8754 12.9195L70.946 30.1218C70.8407 30.273 70.8407 30.273 70.6913 30.1209L65.751 25.0321C65.6887 24.9671 65.6887 24.9671 65.751 24.8754L76.4517 9.43687C77.1865 8.43176 77.815 7.63922 78.3025 7.13895C78.3804 7.06474 78.4463 7.00609 78.5105 6.94104C78.5444 6.90714 78.5554 6.86041 78.5297 6.81918C78.5114 6.79719 78.4839 6.77979 78.4207 6.77979L68.5666 6.78803C68.5447 6.78727 68.5231 6.79267 68.5043 6.80361C68.4884 6.81283 68.4742 6.82459 68.4621 6.83842C68.1203 7.34327 60.1115 18.9364 60.0721 18.9758C60.0007 19.0509 59.9585 19.0601 59.8724 18.9749C59.7276 18.8292 53.9764 12.8938 53.9764 12.8938C53.9764 12.8938 53.9544 12.8709 53.9361 12.8636C53.9196 12.8544 53.8848 12.8544 53.8848 12.8544H40.8413C40.746 12.8544 40.7487 12.9057 40.7506 12.9268C40.7524 12.9506 40.7661 12.9726 40.8 13.0001C40.8119 13.0093 40.8275 13.0203 40.8422 13.034C40.8724 13.0578 40.9036 13.0862 40.9274 13.1046C41.2307 13.3364 41.2994 13.395 41.621 13.6745C43.3004 15.1294 46.2168 18.0119 46.2168 18.0119L54.6416 26.6364C54.6416 26.6364 54.6471 26.6419 54.6563 26.6575C54.6737 26.6896 54.6847 26.7418 54.637 26.8105C54.6279 26.8234 54.4959 27.0158 54.2687 27.3511C53.5888 28.3489 44.8681 40.9169 44.8681 40.9169C44.8681 40.9169 43.1676 43.1223 42.6407 43.8186C41.697 45.0665 41.2334 45.4633 41.1931 45.5036C41.1601 45.5402 41.1427 45.5778 41.1693 45.619C41.1848 45.641 41.2215 45.6529 41.2829 45.6529H41.4432L51.2598 45.6465C51.2726 45.6465 51.3047 45.6493 51.3276 45.6355C51.3505 45.6208 51.3642 45.6016 51.3725 45.5924C51.7151 45.0867 60.1592 32.9539 60.2673 32.7963C60.402 32.6057 60.402 32.6057 60.5907 32.8L65.4248 37.7715C65.5164 37.8558 65.5466 37.908 65.4724 38.0335C65.4724 38.0335 57.711 49.2253 55.2692 52.7629C54.9302 53.2549 53.4542 55.1754 52.5196 56.0678C52.4866 56.0998 52.4738 56.1631 52.5031 56.1915C52.5352 56.2199 52.5956 56.2144 52.6103 56.2144H62.622C62.622 56.2144 62.6642 56.2144 62.6807 56.207C62.6993 56.1953 62.716 56.1808 62.7301 56.164C63.0627 55.6774 71.0798 44.1054 71.0798 44.1054C71.2887 43.8049 71.2887 43.8049 71.5791 44.1054L87.5326 60.5243C87.5455 60.5335 87.5592 60.5491 87.5775 60.5564C87.5959 60.5656 87.6114 60.5729 87.6343 60.5729H100.351C100.427 60.5747 100.44 60.4859 100.436 60.4712Z" fill="#999999"/>
</svg>
