<svg width="149" height="79" viewBox="0 0 149 79" fill="none" xmlns="http://www.w3.org/2000/svg">
<path fill-rule="evenodd" clip-rule="evenodd" d="M138.689 0H147.895V57.7508H0.96875V0H138.689V0Z" fill="white"/>
<path fill-rule="evenodd" clip-rule="evenodd" d="M7.59892 67.2659H1.52344V64.3979H19.5667V67.2659H13.3064V78.7372H7.59892V67.2659ZM21.7764 78.7372V64.3979H31.5345C35.2171 64.3979 38.5309 65.7014 38.5309 68.1779C38.5309 69.8733 36.322 71.0465 34.1122 71.307C36.69 71.5676 38.8989 72.7407 38.8989 74.8264C38.8989 78.999 31.5345 78.7372 31.3505 78.7372H21.7764ZM30.6137 75.9995C32.0865 75.9995 33.0074 75.3475 33.0074 74.4355C33.0074 73.6539 32.2714 72.8704 30.9817 72.8704H27.2999V75.9995H30.6137ZM27.2999 70.1333H30.2457C31.7185 70.1333 32.6394 69.6116 32.6394 68.5693C32.6394 67.7876 31.7185 67.2659 30.4297 67.2659H27.2999V70.1333V70.1333ZM48.4738 78.7372L45.1592 64.3979H50.6827L52.5244 74.8264L55.8381 64.3979H62.6505L65.5962 74.8264H65.7802L67.6219 64.3979H72.5934L69.0939 78.7372H62.4665L58.9679 68.1779L55.2853 78.7372H48.4738V78.7372ZM89.7166 73.7841C89.7166 77.4338 86.034 78.999 81.6146 78.999C77.1951 78.999 73.5134 77.4338 73.5134 73.7841C73.5134 70.1333 77.1951 68.4396 81.6146 68.4396C86.034 68.4396 89.7166 70.1333 89.7166 73.7841ZM81.6146 76.7818C83.8235 76.7818 84.3763 75.2178 84.3763 73.7841C84.3763 72.3505 83.8235 70.655 81.6146 70.655C79.4057 70.655 78.8529 72.3505 78.8529 73.7841C78.8529 75.2178 79.4057 76.7818 81.6146 76.7818ZM107.943 73.7841C107.943 77.4338 104.076 78.999 99.6579 78.999C95.2401 78.999 91.5575 77.4338 91.5575 73.7841C91.5575 70.1333 95.2401 68.4396 99.6579 68.4396C104.077 68.439 107.943 70.1333 107.943 73.7841ZM99.6579 76.7818C101.868 76.7818 102.42 75.2178 102.42 73.7841C102.42 72.3505 101.868 70.655 99.6579 70.655C97.449 70.655 96.8961 72.3505 96.8961 73.7841C96.8961 75.2178 97.449 76.7818 99.6579 76.7818V76.7818ZM120.832 77.3035H120.648C119.911 78.4772 118.07 78.999 116.044 78.999C111.995 78.999 110.153 76.2613 110.153 73.7841C110.153 71.1767 111.994 68.4396 116.227 68.4396C117.885 68.4396 119.726 68.9614 120.831 70.0036V64.3985H126.17V78.7378H121.014L120.832 77.3035V77.3035ZM115.677 73.7841C115.677 75.0875 116.045 76.7818 118.253 76.7818C120.464 76.7818 120.831 75.0875 120.831 73.7841C120.831 72.4807 120.463 70.655 118.253 70.655C115.861 70.655 115.677 72.4801 115.677 73.7841ZM130.959 64.3979H136.298L132.984 69.743H129.117L130.959 64.3979V64.3979ZM143.479 71.8287C143.479 71.5676 143.294 71.1767 143.11 71.047C142.742 70.7859 142.374 70.6556 141.637 70.6556C140.902 70.6556 140.349 71.047 140.349 71.5676C140.349 72.3505 142.559 72.2196 145.872 73.0025C147.53 73.3927 148.634 74.0447 148.634 75.7401C148.634 78.3476 145.135 78.9996 142.006 78.9996C138.507 78.9996 135.194 78.4778 135.194 75.479H140.165C140.165 75.7401 140.349 76.131 140.533 76.3921C140.902 76.6527 141.27 76.7824 141.822 76.7824C142.926 76.7824 143.663 76.5218 143.663 75.8704C143.663 74.175 135.378 75.2184 135.378 71.5682C135.378 69.2225 139.061 68.4402 141.822 68.4402C145.135 68.4402 148.267 69.0922 148.451 71.8293H143.479V71.8287V71.8287Z" fill="#A3A3A3"/>
<path fill-rule="evenodd" clip-rule="evenodd" d="M14.7774 57.7508H23.9835V0H14.7774V57.7508ZM124.88 57.7508H134.086V0H124.88V57.7508ZM0.96875 57.7508H10.174V0H0.96875V57.7508ZM138.689 57.7508H147.895V0H138.689V57.7508ZM37.793 6.38794V0H28.4021V57.7508H37.793V19.2941L33.5584 6.38794H37.793ZM42.2116 33.3734V57.7508H51.4168V48.6264H47.1822L42.2116 33.3734V33.3734ZM51.4168 23.4655V0H42.2116V6.38794H46.6302L51.4168 23.4655ZM65.2264 6.38794V0H56.0203V35.7196L65.2264 6.38794ZM56.0203 48.6264V57.7508H65.2264V41.8464L62.8326 48.6264H56.0203ZM69.829 29.5929V57.7508H79.035V30.2449L74.2484 17.3387L69.829 29.5929V29.5929ZM69.829 6.38794H79.035V0H69.829V6.38794ZM92.8445 0H83.6376V6.90966L92.8445 36.3716V0ZM83.6376 42.4984V57.7508H92.8445V48.6264H85.8465L83.6376 42.4984ZM106.653 6.38794V0H97.2632V22.8141L102.051 6.38794H106.653V6.38794ZM97.2632 48.6264V57.7508H106.653V32.7214L101.497 48.6264H97.2632V48.6264ZM111.073 0V6.38794H115.122L111.073 18.773V57.7508H120.463V0H111.073Z" fill="#999999"/>
</svg>
