<svg width="230" height="72" viewBox="0 0 230 72" fill="none" xmlns="http://www.w3.org/2000/svg">
<g clip-path="url(#clip0_1418_2554)">
<path fill-rule="evenodd" clip-rule="evenodd" d="M0 46.8462V46.7078C0 33.088 10.9708 21.5538 26.4078 21.5538C34.0889 21.5538 39.2081 23.2892 43.8909 26.4863C44.4572 26.886 44.9179 27.4087 45.2357 28.0123C45.5536 28.6158 45.7196 29.2831 45.7204 29.9601C45.7204 32.2549 43.746 34.2008 41.2573 34.2008C40.087 34.2008 39.2096 33.7135 38.4772 33.2263C35.186 30.9345 31.6018 29.4037 26.0416 29.4037C16.6058 29.4037 9.43737 37.258 9.43737 46.568V46.7078C9.43737 56.7141 16.3861 64.0797 26.8473 64.0797C31.675 64.0797 36.0633 62.621 39.2096 60.3969V51.2944H29.1147C26.9189 51.2944 25.0926 49.6974 25.0926 47.6131C25.0926 45.5274 26.9189 43.8596 29.1147 43.8596H43.3798C45.9386 43.8596 47.9146 45.7364 47.9146 48.1695V61.1623C47.9146 63.594 46.8908 65.3323 44.7698 66.582C40.38 69.3625 34.2354 71.8633 26.5558 71.8633C10.5329 71.8618 0 61.024 0 46.8462ZM55.9822 24.1238C55.9822 21.8305 57.8834 19.9538 60.3689 19.9538C62.8576 19.9538 64.832 21.8305 64.832 24.1238V67.2076C64.832 69.57 62.856 71.3761 60.3689 71.3761C57.9566 71.3761 55.9822 69.5715 55.9822 67.2061V24.1223V24.1238ZM71.6888 52.8929V52.7516C71.6888 42.2596 80.4654 33.5737 92.3167 33.5737C104.166 33.5737 112.873 42.1213 112.873 52.6147V52.7516C112.873 63.1774 104.095 71.8633 92.1702 71.8633C80.3922 71.8633 71.6888 63.3158 71.6888 52.8929ZM104.021 52.8929V52.7516C104.021 46.2913 99.1189 40.9408 92.1702 40.9408C85.0734 40.9408 80.5387 46.2221 80.5387 52.6147V52.7516C80.5387 59.1457 85.4397 64.4962 92.3167 64.4962C99.4851 64.4962 104.02 59.2149 104.02 52.8929H104.021ZM134.972 71.7235H134.532C132.12 71.7235 130.509 70.2648 129.486 68.0392L116.614 40.0355C116.393 39.4099 116.1 38.7182 116.1 37.9512C116.1 35.867 118.075 33.9211 120.489 33.9211C122.901 33.9211 124.144 35.2414 124.877 36.9798L134.825 61.2992L144.92 36.8414C145.58 35.3812 146.748 33.9211 149.09 33.9211C151.504 33.9211 153.406 35.6594 153.406 37.9512C153.406 38.7182 153.114 39.5513 152.896 39.9663L140.021 68.0407C138.992 70.1941 137.387 71.725 134.972 71.725V71.7235ZM156.633 52.8929V52.7516C156.633 42.2596 165.411 33.5737 177.265 33.5737C189.112 33.5737 197.819 42.1213 197.819 52.6147V52.7516C197.819 63.1774 189.04 71.8633 177.116 71.8633C165.339 71.8633 156.633 63.3158 156.633 52.8929ZM188.969 52.8929V52.7516C188.969 46.2913 184.066 40.9408 177.116 40.9408C170.021 40.9408 165.486 46.2221 165.486 52.6147V52.7516C165.486 59.1457 170.385 64.4962 177.264 64.4962C184.431 64.4962 188.967 59.2149 188.967 52.8929H188.969ZM212.62 0.266113C203.036 0.266113 195.239 7.67531 195.239 16.7778C195.239 20.2455 196.374 23.5749 198.517 26.4051L198.979 27.0141L208.027 39.1452C208.027 39.1452 209.132 40.8596 211.54 40.8596H213.701C216.11 40.8596 217.211 39.1452 217.211 39.1452L226.262 27.0141L226.72 26.4051C228.851 23.6164 230 20.2426 230 16.7778C230 7.67531 222.204 0.266113 212.62 0.266113ZM219.773 21.6531L219.291 22.2937L212.621 31.2368L205.961 22.3118L205.472 21.6636C204.387 20.2494 203.801 18.5371 203.798 16.7778C203.798 12.1566 207.756 8.39714 212.618 8.39714C217.483 8.39714 221.44 12.1566 221.44 16.7778C221.44 18.5297 220.863 20.2155 219.773 21.6531ZM207.731 48.3079V48.2748C207.731 45.8086 209.793 43.7649 212.578 43.7649C215.366 43.7649 217.41 45.774 217.41 48.2417V48.2748C217.41 50.723 215.347 52.7651 212.545 52.7651C209.779 52.7651 207.73 50.7576 207.73 48.3079H207.731Z" fill="#41AB68"/>
</g>
<defs>
<clipPath id="clip0_1418_2554">
<rect width="230" height="72" fill="white"/>
</clipPath>
</defs>
</svg>
