<svg width="193" height="78" viewBox="0 0 193 78" fill="none" xmlns="http://www.w3.org/2000/svg">
<path fill-rule="evenodd" clip-rule="evenodd" d="M108.305 75.7389H113.391V58.877C113.455 55.2501 115.165 52.0007 119.044 51.4666C120.644 51.2467 122.403 51.483 123.754 52.4253C125.748 53.8218 126.25 56.2405 126.282 58.5476V75.7399H130.568V56.2251C130.568 52.1429 129.518 48.076 125.025 47.1184C121.291 46.3183 117.71 47.4478 115.433 50.5571L113.236 53.5875V47.6832H108.306V75.7389H108.305ZM107.018 42.6433H113.972V24.6816C113.972 20.6945 117.159 18.2912 120.803 18.2912C125.277 18.2912 125.386 21.1958 125.386 26.7851V42.6423H133.158V22.4522C133.158 15.9524 130.3 11.556 122.969 11.556C119.373 11.556 116.125 12.9219 113.972 15.716V0H13.9458V7.30093H38.1874V42.6423H38.2028V76.8378H46.3519V7.30195H107.018V42.6433ZM103.046 54.0571C103.029 53.3348 102.966 52.6442 102.778 51.9526C101.287 46.4421 93.2636 46.1127 88.7261 46.8821C86.8415 47.1962 84.9109 47.8243 83.4345 49.0644C81.9429 50.3207 81.2993 51.9219 81.1428 53.8372H85.2721C86.0885 49.7703 92.6825 48.562 95.7753 50.5724C97.4706 51.6702 98.24 53.5865 98.1459 55.5642C97.9904 59.0192 94.5987 59.0346 91.9448 59.3957C87.0779 60.0863 80.0122 61.2946 79.3851 67.3556C78.7252 73.5577 83.9062 77.4189 89.7471 76.7447C92.4011 76.4459 94.6458 75.1435 96.5928 73.2743L98.1305 71.7191C98.6339 74.2943 98.8222 75.4719 99.2774 75.7389H103.312C103.046 74.2943 103.046 72.7555 103.046 71.2638V54.0571ZM98.2564 60.1651V64.8428C98.1469 68.925 95.6505 72.0025 91.5683 72.7085C88.8519 73.1637 85.5391 72.3156 84.5978 69.3967C84.4894 69.0551 84.4211 68.7022 84.3942 68.3449C84.1425 64.0898 89.9364 63.0697 93.0764 62.284C94.2169 62.0024 95.3266 61.6083 96.3892 61.1074L98.2564 60.1651ZM54.4999 62.7393H74.8159V62.5653L74.8312 62.5019V62.4385C74.8629 56.2998 73.4653 49.2025 66.7773 47.1624C62.7892 45.9377 58.1729 46.6744 54.8764 49.2342C47.7013 54.7764 47.7013 67.8395 54.4835 73.6794C57.8117 76.5533 62.428 77.4485 66.6514 76.2699C70.4349 75.2182 73.3395 72.5018 74.6429 68.7818H69.4926L69.4455 68.8759C67.7973 71.5298 64.3586 73.0993 61.2821 72.597C57.294 71.9698 54.8283 68.217 54.593 64.3865L54.4999 62.7393ZM54.4529 59.6617C54.6575 57.5419 54.8457 55.7054 55.9609 53.8525C58.3632 49.8174 64.2512 48.5139 67.4218 52.3762C69.1805 54.5278 69.4159 56.9924 69.51 59.6617H54.4529ZM39.318 75.7389H45.2367V43.2081H39.318V75.7389ZM29.2536 47.2268H34.6382C33.9947 42.0305 30.9796 38.467 26.0185 36.8648C21.6703 35.4682 15.9705 35.4365 11.7318 37.2106C3.6932 40.5705 1.88843 49.7713 2.12375 57.6206C2.29666 63.257 3.69423 69.5368 8.13658 73.4001C14.4318 78.8789 26.4902 77.7964 31.7807 71.3283C33.3982 69.3342 34.3405 66.9627 34.6853 64.4192H29.3314L29.2997 64.498C27.9338 69.1296 24.0869 72.0813 19.267 72.2696C13.2695 72.5049 9.70603 68.2027 8.37087 62.7556C8.13479 61.7574 7.96188 60.7452 7.85318 59.7252C6.97432 51.8431 8.93665 39.9116 19.047 39.8175C23.8526 39.7858 28.0289 42.4704 29.2536 47.2268ZM170.321 27.4767C170.321 20.8664 173.179 17.2558 178.093 17.2558C183.007 17.2558 185.802 20.8664 185.802 27.4767C185.802 34.0706 183.007 37.76 178.093 37.76C173.179 37.76 170.321 34.0706 170.321 27.4767ZM162.706 27.4767C162.706 37.5717 168.327 43.6787 177.543 43.6787C186.76 43.6787 192.397 37.5707 192.397 27.4767C192.397 17.3806 186.76 11.2737 177.543 11.2737C168.327 11.2737 162.706 17.3806 162.706 27.4767ZM135.372 42.6433H143.207V24.6816C143.207 20.6945 145.593 18.2912 149.236 18.2912C152.595 18.2912 154.574 20.2228 154.574 24.3357V42.6423H161.591V21.9959C161.591 15.0408 158.39 11.555 151.935 11.555C148.23 11.555 145.263 13.0467 143.048 15.9513V12.3561H135.371V42.6433H135.372ZM97.7387 32.3283C97.1893 35.9235 95.4305 38.0117 92.5106 38.0117C88.8049 38.0117 85.6179 33.4578 85.6179 27.5872C85.6179 21.3063 88.5849 18.1203 92.5106 18.1203C95.3681 18.1203 97.1893 19.8944 97.6282 23.0814H105.415C104.866 15.7181 100.062 11.2747 92.4471 11.2747C83.8438 11.2747 78.5369 17.3192 78.5369 27.4777C78.5369 37.6833 83.7343 43.6797 92.1648 43.6797C99.6683 43.6797 104.804 40.0221 105.477 32.3283H97.7387ZM68.0019 34.0072C66.9983 36.3471 65.2866 38.1836 62.649 38.1836C58.8338 38.1836 55.4269 34.3684 55.2069 29.6426H76.1664C76.2134 28.9039 76.2134 28.2144 76.2134 27.5227C76.2134 17.0982 71.0784 11.2726 62.1456 11.2726C53.6988 11.2726 48.4554 17.3796 48.4554 27.3028C48.4554 37.5083 53.9188 44.2271 62.2561 44.2271C69.2112 44.2271 74.2357 40.3331 75.8369 34.0062H68.0019V34.0072ZM55.2059 24.3368C55.5507 20.2228 58.9423 17.7899 62.3022 17.7899C65.9455 17.7899 68.0009 20.2228 68.1114 24.3368H55.2059ZM107.207 76.8388H114.506V58.8934C114.506 54.9053 116.72 52.503 120.127 52.503C123.268 52.503 125.167 54.45 125.167 58.5476V76.8388H131.683V56.2087C131.683 49.2536 128.684 45.7679 122.656 45.7679C119.2 45.7679 116.423 47.2596 114.351 50.1642V46.568H107.208V76.8388H107.207ZM97.5023 73.7613C97.7704 75.2212 98.0681 76.0377 98.5398 76.8388H104.882C104.349 76.1952 104.161 74.2636 104.161 71.2649V54.0418C104.161 48.563 100.03 45.4855 92.2906 45.4855C85.225 45.4855 80.0133 48.2336 80.0133 54.3876V54.9534H86.3248V54.4981C86.3248 52.1122 89.2919 50.73 92.2753 50.73C95.4305 50.73 97.0317 52.7394 97.0317 55.2511C97.0317 58.1557 95.0694 57.7015 89.4013 58.6581C83.011 59.7569 78.2228 62.3791 78.2228 68.2978C78.2228 74.5153 83.1685 77.9386 88.4284 77.9386C92.4001 77.9376 95.6976 75.9436 97.5023 73.7613ZM97.1412 61.9699V64.8274C97.1412 69.0979 93.9071 71.7191 89.9354 71.7191C87.705 71.7191 85.5074 70.3062 85.5074 68.0758C85.5074 65.737 88.2708 64.7794 90.5943 64.0253C91.9765 63.5711 94.3471 63.3992 97.1412 61.9699ZM68.803 67.6696C67.8771 70.0085 64.9101 71.579 62.4444 71.579C58.8809 71.579 55.8811 68.5956 55.6775 63.8545H75.884C75.9464 63.1158 75.9464 62.4262 75.9464 61.7499C75.9464 51.3091 71.1419 45.4845 62.7892 45.4845C54.8918 45.4845 48.3766 51.5925 48.3766 61.5146C48.3766 71.7201 55.0964 77.8742 62.8833 77.8742C69.3831 77.8742 74.6276 74.0119 76.1193 67.6686H68.803V67.6696ZM55.6775 58.5476C55.9916 54.45 58.4409 51.1842 62.6644 51.1842C66.0713 51.1842 68.2536 54.45 68.3641 58.5476H55.6775ZM35.911 63.3204H28.4372C27.5583 68.2191 23.429 71.1707 18.781 71.1707C12.4388 71.1707 8.78012 65.3932 8.78012 56.3817C8.78012 47.1962 12.3446 40.9316 19.0481 40.9316C23.7902 40.9316 27.7148 43.7258 28.3267 48.342H35.8629C35.3442 39.0941 28.5937 34.7612 19.047 34.7612C7.39789 34.7612 0.992188 42.407 0.992188 56.3806C0.992188 70.1333 7.44496 78 18.3728 78C27.9655 78 35.3452 72.5519 35.911 63.3204Z" fill="#A3A3A3"/>
</svg>
