<svg width="144" height="78" viewBox="0 0 144 78" fill="none" xmlns="http://www.w3.org/2000/svg">
<path fill-rule="evenodd" clip-rule="evenodd" d="M84.9145 0.254383C84.7379 0.140744 84.5407 0.0629992 84.3341 0.0255856C84.1274 -0.0118281 83.9155 -0.00817789 83.7102 0.036329C83.505 0.0808359 83.3106 0.165327 83.138 0.284979C82.9655 0.404631 82.8182 0.557101 82.7045 0.733681C82.5909 0.910262 82.5131 1.1075 82.4757 1.31412C82.4383 1.52075 82.4419 1.73272 82.4865 1.93794C82.531 2.14315 82.6155 2.33759 82.7351 2.51015C82.8548 2.68272 83.0072 2.83002 83.1838 2.94366L132.444 34.6457H63.7944C63.3704 34.6457 62.9638 34.8142 62.664 35.114C62.3641 35.4138 62.1957 35.8205 62.1957 36.2445C62.1957 36.6685 62.3641 37.0751 62.664 37.375C62.9638 37.6748 63.3704 37.8432 63.7944 37.8432H143.324L84.9145 0.254383ZM15.1846 57.6349L25.0719 47.4642C25.4135 47.1129 25.6825 46.6977 25.8636 46.2424C26.0447 45.7871 26.1343 45.3005 26.1274 44.8106C26.1205 44.3206 26.0171 43.8368 25.8232 43.3868C25.6293 42.9368 25.3487 42.5294 24.9974 42.1879C24.646 41.8463 24.2309 41.5773 23.7755 41.3962C23.3202 41.2151 22.8337 41.1254 22.3438 41.1323C21.8538 41.1393 21.37 41.2426 20.92 41.4365C20.47 41.6304 20.0626 41.911 19.721 42.2624L7.65021 54.681V44.2415C7.65021 43.2518 7.25709 42.3028 6.55732 41.603C5.85756 40.9032 4.90847 40.5101 3.91886 40.5101C2.92924 40.5101 1.98015 40.9032 1.28039 41.603C0.580624 42.3028 0.1875 43.2518 0.1875 44.2415V72.5799C0.1875 73.5695 0.580624 74.5186 1.28039 75.2184C1.98015 75.9181 2.92924 76.3113 3.91886 76.3113C4.90847 76.3113 5.85756 75.9181 6.55732 75.2184C7.25709 74.5186 7.65021 73.5695 7.65021 72.5799V60.47L20.8075 74.7528C21.4781 75.4808 22.4104 75.9125 23.3993 75.953C24.3881 75.9936 25.3526 75.6396 26.0806 74.9691C26.8085 74.2985 27.2402 73.3662 27.2808 72.3773C27.3213 71.3884 26.9674 70.4239 26.2968 69.696L15.1846 57.6349ZM90.7223 40.4209C89.7328 40.4214 88.784 40.8147 88.0846 41.5145C87.3851 42.2143 86.9921 43.1632 86.9921 44.1527V61.9604L70.705 41.8071C70.2198 41.2075 69.5608 40.773 68.8185 40.5633C68.0763 40.3536 67.2873 40.379 66.5601 40.6361C65.8329 40.8931 65.2033 41.3692 64.7577 41.9988C64.3122 42.6284 64.0727 43.3806 64.0722 44.1519V72.5123C64.0722 73.5019 64.4653 74.451 65.165 75.1508C65.8648 75.8505 66.8139 76.2437 67.8035 76.2437C68.7931 76.2437 69.7422 75.8505 70.442 75.1508C71.1417 74.451 71.5349 73.5019 71.5349 72.5123V54.7046L87.8212 74.8587C88.3062 75.4592 88.9654 75.8945 89.7081 76.1047C90.4508 76.3148 91.2404 76.2894 91.968 76.0321C92.6957 75.7747 93.3257 75.2979 93.771 74.6675C94.2164 74.0372 94.4553 73.2841 94.4548 72.5123V44.1519C94.4544 43.1622 94.061 42.2132 93.361 41.5136C92.6611 40.8139 91.7119 40.4209 90.7223 40.4209ZM101.829 40.4209C100.839 40.4209 99.8899 40.8141 99.19 41.5139C98.4902 42.2138 98.097 43.163 98.097 44.1527V72.5131C98.097 73.5026 98.4901 74.4516 99.1898 75.1513C99.8895 75.851 100.838 76.2441 101.828 76.2441C102.817 76.2441 103.766 75.851 104.466 75.1513C105.166 74.4516 105.559 73.5026 105.559 72.5131V44.1519C105.559 43.1625 105.166 42.2136 104.466 41.514C103.767 40.8143 102.818 40.4211 101.829 40.4209ZM141.068 59.4959C140.82 58.7529 140.345 58.1065 139.71 57.6486C139.075 57.1906 138.311 56.9442 137.528 56.9443H128.379C127.389 56.9445 126.44 57.3377 125.74 58.0375C125.04 58.7373 124.647 59.6864 124.647 60.676C124.647 61.6655 125.041 62.6143 125.741 63.3138C126.44 64.0132 127.389 64.4062 128.379 64.4062H133.197C132.768 65.8201 132.06 67.365 130.911 68.5215C129.569 69.8768 127.78 70.5373 125.447 70.5373C117.611 70.5373 116.663 61.2543 116.568 59.9292C116.838 51.4794 122.991 49.2161 126.602 49.2161C130.395 49.2161 133.419 51.9835 133.449 52.0112C133.803 52.3492 134.22 52.6141 134.677 52.7907C135.133 52.9673 135.62 53.0521 136.109 53.0403C136.598 53.0285 137.081 52.9203 137.528 52.7219C137.975 52.5235 138.379 52.2388 138.716 51.8842C139.4 51.1684 139.771 50.2104 139.749 49.2208C139.726 48.2313 139.311 47.2912 138.596 46.6074C138.075 46.1114 133.322 41.7542 126.602 41.7542C119.746 41.7542 109.428 46.5805 109.103 59.8738C109.099 59.9659 109.101 60.0587 109.106 60.1507C109.413 66.3242 113.223 78 125.447 78C130.642 78 134.886 75.9224 137.719 71.9919C141.057 67.3602 141.588 61.0531 141.068 59.4959Z" fill="#A3A3A3"/>
<path fill-rule="evenodd" clip-rule="evenodd" d="M44.3393 76.3466C54.5386 76.3466 62.8076 68.4155 62.8076 58.6325C62.8076 48.8494 54.5394 40.9184 44.3393 40.9184C34.1393 40.9184 25.8711 48.8503 25.8711 58.6325C25.8711 68.4147 34.1401 76.3466 44.3393 76.3466ZM39.9422 39.6878C40.3505 39.6879 40.7548 39.6075 41.132 39.4513C41.5092 39.2951 41.852 39.0661 42.1408 38.7775C42.4295 38.4888 42.6586 38.1461 42.8149 37.7689C42.9712 37.3917 43.0516 36.9874 43.0517 36.5791C43.0518 36.1708 42.9714 35.7665 42.8152 35.3893C42.659 35.012 42.43 34.6692 42.1413 34.3805C41.8527 34.0917 41.51 33.8627 41.1328 33.7064C40.7556 33.5501 40.3513 33.4696 39.943 33.4696C39.1184 33.4695 38.3275 33.7969 37.7444 34.3799C37.1612 34.9629 36.8336 35.7537 36.8335 36.5783C36.8333 37.4029 37.1608 38.1937 37.7438 38.7769C38.3268 39.36 39.1176 39.6877 39.9422 39.6878ZM50.9355 39.6878C51.7602 39.6878 52.5511 39.3602 53.1342 38.777C53.7174 38.1939 54.045 37.403 54.045 36.5783C54.045 35.7536 53.7174 34.9627 53.1342 34.3795C52.5511 33.7964 51.7602 33.4688 50.9355 33.4688C50.1108 33.4688 49.3199 33.7964 48.7367 34.3795C48.1536 34.9627 47.8259 35.7536 47.8259 36.5783C47.8259 37.403 48.1536 38.1939 48.7367 38.777C49.3199 39.3602 50.1108 39.6878 50.9355 39.6878Z" fill="#A3A3A3"/>
<path fill-rule="evenodd" clip-rule="evenodd" d="M36.2389 64.9949L36.7788 66.5105H52.8152L53.3551 64.9949H36.2389ZM53.6996 64.0297L58.0463 51.8368L51.2506 56.2999L48.9848 45.5737L44.797 55.6891L40.6083 45.5737L38.3434 56.2999L31.5469 51.8368L35.8944 64.0297H53.6996ZM36.8407 67.4765L36.0108 69.0255C38.2619 70.8515 43.8522 70.8833 44.806 70.858C45.7589 70.8833 51.3313 70.8515 53.5824 69.0255L52.7524 67.4765H36.8407Z" fill="white"/>
</svg>
