<svg width="40" height="40" viewBox="0 0 40 40" fill="none" xmlns="http://www.w3.org/2000/svg">
<path d="M20 0C8.97287 0 0 8.97094 0 20C0 31.0291 8.97287 40 20 40C31.0271 40 40 31.0291 40 20C40 8.97094 31.0271 0 20 0ZM20 38.6678C9.70752 38.6678 1.33458 30.2931 1.33458 20C1.33458 9.70687 9.70752 1.33217 20 1.33217C30.2925 1.33217 38.6654 9.70687 38.6654 20C38.6654 30.2931 30.2925 38.6678 20 38.6678Z" fill="white"/>
<path d="M20.0005 15.8018H20.0004C19.1701 15.8018 18.3584 16.048 17.668 16.5094C16.9777 16.9707 16.4396 17.6264 16.1218 18.3936C15.8041 19.1607 15.7209 20.0049 15.8829 20.8193C16.0449 21.6337 16.4447 22.3818 17.0319 22.969C17.619 23.5561 18.367 23.956 19.1814 24.118C19.9958 24.28 20.8399 24.1969 21.607 23.8791C22.3741 23.5613 23.0298 23.0232 23.4911 22.3328C23.9524 21.6423 24.1986 20.8306 24.1986 20.0002V20.0001C24.1974 18.8871 23.7547 17.8199 22.9676 17.0329C22.1806 16.2458 21.1136 15.8031 20.0005 15.8018ZM23.9205 11.1688H23.9204L16.0804 11.1688L16.0803 11.1688C14.7784 11.1703 13.5301 11.6882 12.6095 12.6089C11.6889 13.5296 11.171 14.7778 11.1695 16.0799V16.08L11.1695 23.9205L11.1695 23.9206C11.171 25.2226 11.6889 26.4709 12.6095 27.3916C13.5301 28.3123 14.7784 28.8302 16.0803 28.8317H16.0804H23.9204H23.9205C25.2225 28.8302 26.4707 28.3123 27.3913 27.3916C28.312 26.4709 28.8298 25.2226 28.8313 23.9206V23.9205V16.08V16.0799C28.8298 14.7778 28.312 13.5296 27.3913 12.6089C26.4707 11.6882 25.2225 11.1703 23.9205 11.1688ZM25.6241 15.3672V15.3671C25.6237 15.1044 25.5193 14.8526 25.3335 14.6668C25.1478 14.4811 24.896 14.3766 24.6333 14.3763H24.6332C24.4372 14.3763 24.2456 14.4344 24.0826 14.5433C23.9197 14.6522 23.7927 14.8069 23.7177 14.988C23.6427 15.1691 23.6231 15.3683 23.6613 15.5606C23.6995 15.7528 23.7939 15.9294 23.9325 16.0679C24.0711 16.2065 24.2476 16.3009 24.4398 16.3392C24.6321 16.3774 24.8313 16.3578 25.0124 16.2828C25.1934 16.2078 25.3482 16.0807 25.4571 15.9178C25.5659 15.7548 25.6241 15.5632 25.6241 15.3672ZM20.0003 22.9295C19.421 22.9295 18.8548 22.7577 18.3731 22.4359C17.8914 22.114 17.516 21.6565 17.2943 21.1212C17.0726 20.586 17.0146 19.997 17.1276 19.4288C17.2406 18.8605 17.5196 18.3386 17.9293 17.9289C18.3389 17.5193 18.8608 17.2403 19.429 17.1273C19.9972 17.0142 20.5861 17.0722 21.1213 17.2939C21.6566 17.5157 22.114 17.8911 22.4359 18.3728C22.7577 18.8545 22.9295 19.4208 22.9295 20.0001C22.9286 20.7768 22.6197 21.5214 22.0706 22.0705C21.5215 22.6197 20.7769 22.9286 20.0003 22.9295ZM27.5622 23.9204C27.5612 24.886 27.1771 25.8118 26.4944 26.4946C25.8116 27.1774 24.8859 27.5615 23.9203 27.5625H16.0805C15.115 27.5615 14.1893 27.1774 13.5065 26.4946C12.8238 25.8118 12.4397 24.8861 12.4386 23.9205C12.4386 23.9204 12.4386 23.9204 12.4386 23.9204V16.0801C12.4386 16.0801 12.4386 16.08 12.4386 16.08C12.4397 15.1144 12.8238 14.1887 13.5065 13.5059C14.1892 12.8231 15.1149 12.4391 16.0804 12.438C16.0805 12.438 16.0805 12.438 16.0805 12.438H23.9203C23.9204 12.438 23.9204 12.438 23.9204 12.438C24.886 12.4391 25.8116 12.8231 26.4944 13.5059C27.1771 14.1887 27.5612 15.1145 27.5622 16.0801V23.9204Z" fill="white" stroke="white" stroke-width="0.2"/>
</svg>
