<svg width="40" height="40" viewBox="0 0 40 40" fill="none" xmlns="http://www.w3.org/2000/svg">
<path d="M20 -0.0424805C8.9488 -0.0424805 -0.0437012 8.94752 -0.0437012 20C-0.0437012 31.0525 8.9488 40.0425 20 40.0425C31.0513 40.0425 40.0438 31.0525 40.0438 20C40.0438 8.94752 31.0513 -0.0424805 20 -0.0424805ZM20 38.7075C9.68505 38.7075 1.2938 30.315 1.2938 20C1.2938 9.68502 9.68505 1.29252 20 1.29252C30.315 1.29252 38.7063 9.68502 38.7063 20C38.7063 30.315 30.315 38.7075 20 38.7075Z" fill="white"/>
<path d="M30.9926 13.8075C31.1313 13.5509 31.2455 13.2818 31.3339 13.0038C31.3748 12.8748 31.3756 12.7365 31.3362 12.6071C31.2969 12.4776 31.2192 12.3632 31.1134 12.2788C31.0077 12.1944 30.8788 12.1441 30.7439 12.1345C30.6089 12.1249 30.4743 12.1565 30.3576 12.225C29.7171 12.6055 29.0237 12.889 28.3001 13.0663C27.4217 12.2735 26.2809 11.834 25.0976 11.8325C24.4548 11.833 23.8186 11.9633 23.2273 12.2156C22.6361 12.4679 22.1018 12.837 21.6566 13.3007C21.2114 13.7645 20.8645 14.3133 20.6365 14.9144C20.4086 15.5155 20.3044 16.1564 20.3301 16.7988C17.5189 16.4449 14.9518 15.0223 13.1614 12.8263C13.0928 12.7431 13.0051 12.6777 12.9058 12.6356C12.8065 12.5935 12.6985 12.576 12.5911 12.5846C12.4836 12.5932 12.3797 12.6276 12.2884 12.6849C12.197 12.7422 12.1209 12.8207 12.0664 12.9138C11.6564 13.6174 11.4336 14.4144 11.4191 15.2286C11.4047 16.0429 11.5991 16.8473 11.9839 17.565C11.8895 17.5809 11.7988 17.614 11.7164 17.6625C11.6153 17.727 11.5321 17.8158 11.4744 17.9209C11.4167 18.026 11.3865 18.1439 11.3864 18.2638C11.3864 19.6825 12.0176 20.985 13.0351 21.87L12.9914 21.9138C12.9145 22.0007 12.8617 22.1061 12.838 22.2196C12.8144 22.3332 12.8207 22.4509 12.8564 22.5613C13.0685 23.2232 13.4228 23.8307 13.8944 24.3414C14.3659 24.852 14.9434 25.2534 15.5864 25.5175C14.2659 26.1617 12.7881 26.4129 11.3289 26.2413C11.1789 26.226 11.028 26.2609 10.9 26.3405C10.772 26.4201 10.674 26.54 10.6214 26.6813C10.5708 26.8236 10.5699 26.9788 10.6187 27.1218C10.6675 27.2647 10.7631 27.387 10.8901 27.4688C12.8739 28.742 15.1817 29.4184 17.5389 29.4175C25.2639 29.4175 29.8814 23.1425 29.8814 17.0763L29.8801 16.8713C30.6288 16.2868 31.2791 15.5863 31.8064 14.7963C31.8862 14.6768 31.9255 14.5349 31.9183 14.3914C31.9112 14.2479 31.8581 14.1105 31.7668 13.9996C31.6755 13.8887 31.5509 13.8101 31.4115 13.7755C31.272 13.7409 31.1252 13.7521 30.9926 13.8075ZM28.8114 16.0013C28.7207 16.0665 28.6477 16.1534 28.5993 16.2541C28.5508 16.3547 28.5283 16.4659 28.5339 16.5775C28.5414 16.7425 28.5451 16.91 28.5451 17.075C28.5451 22.485 24.4289 28.0813 17.5401 28.0813C16.3115 28.0818 15.0915 27.8756 13.9314 27.4713C15.3209 27.205 16.6262 26.6091 17.7376 25.7338C17.8458 25.6485 17.925 25.5318 17.9644 25.3998C18.0038 25.2678 18.0014 25.1268 17.9577 24.9961C17.9139 24.8655 17.8308 24.7516 17.7198 24.6699C17.6089 24.5883 17.4754 24.5429 17.3376 24.54C16.7986 24.5297 16.2696 24.3929 15.7933 24.1406C15.3169 23.8883 14.9065 23.5276 14.5951 23.0875C14.9114 23.0663 15.2214 23.0138 15.5226 22.9325C15.6684 22.8935 15.7967 22.8062 15.8865 22.6849C15.9763 22.5636 16.0224 22.4155 16.0171 22.2646C16.0119 22.1138 15.9557 21.9692 15.8577 21.8544C15.7598 21.7396 15.6258 21.6614 15.4776 21.6325C14.8689 21.5087 14.3053 21.2217 13.8471 20.8023C13.3889 20.3828 13.0534 19.8467 12.8764 19.2513C13.2089 19.335 13.5501 19.3838 13.8914 19.395C14.1851 19.3938 14.4576 19.2138 14.5489 18.9313C14.6401 18.6488 14.5326 18.3375 14.2839 18.1725C13.6957 17.7807 13.2428 17.2168 12.9871 16.5579C12.7314 15.8991 12.6853 15.1773 12.8551 14.4913C15.0264 16.7192 17.9583 18.0458 21.0651 18.2063C21.2851 18.2075 21.4776 18.1288 21.6114 17.9675C21.7451 17.8063 21.7964 17.5925 21.7489 17.3875C21.5779 16.6513 21.6544 15.8792 21.9664 15.1908C22.2785 14.5024 22.8087 13.936 23.4751 13.5793C24.1415 13.2226 24.9069 13.0955 25.6528 13.2177C26.3987 13.3398 27.0835 13.7044 27.6014 14.255C27.679 14.3378 27.7764 14.3995 27.8844 14.4343C27.9924 14.4691 28.1075 14.4758 28.2189 14.4538C28.4251 14.4125 28.6289 14.365 28.8301 14.31C28.7394 14.3779 28.6451 14.4409 28.5476 14.4988C28.418 14.5782 28.3193 14.6994 28.2678 14.8424C28.2162 14.9854 28.215 15.1417 28.2642 15.2855C28.3134 15.4293 28.4101 15.5521 28.5384 15.6336C28.6668 15.7151 28.819 15.7504 28.9701 15.7338L29.1976 15.705C29.0723 15.8082 28.9435 15.907 28.8114 16.0013Z" fill="white"/>
</svg>
