<svg width="35" height="35" viewBox="0 0 35 35" fill="none" xmlns="http://www.w3.org/2000/svg">
<path d="M24.8329 20.6005L14.404 10.1606C14.3024 10.0589 14.1818 9.97826 14.049 9.92322C13.9162 9.86817 13.7739 9.83984 13.6302 9.83984C13.4864 9.83984 13.3441 9.86817 13.2113 9.92322C13.0785 9.97826 12.9579 10.0589 12.8563 10.1606L10.1657 12.8567C9.962 13.0616 9.84766 13.3389 9.84766 13.6278C9.84766 13.9168 9.962 14.194 10.1657 14.3989L20.5946 24.8388C20.6968 24.9401 20.818 25.0203 20.9513 25.0747C21.0845 25.1292 21.2272 25.1568 21.3712 25.1559C21.66 25.1562 21.9372 25.0421 22.1423 24.8388L24.8329 22.1427C25.0366 21.9377 25.151 21.6605 25.151 21.3716C25.151 21.0826 25.0366 20.8054 24.8329 20.6005ZM21.3712 24.0622L10.9368 13.6278L13.6274 10.9372L15.7001 13.0098L14.4696 14.2184L15.2407 14.9895L16.4712 13.7809L18.7298 16.0395L17.4993 17.27L18.2759 18.0466L19.5063 16.8161L21.7649 19.0747L20.5345 20.3052L21.3274 21.0763L22.5579 19.8458L24.0618 21.3716L21.3712 24.0622Z" fill="white"/>
<circle cx="17.5" cy="17.5" r="17" stroke="white" stroke-opacity="0.5"/>
</svg>
