<svg width="144" height="106" viewBox="0 0 144 106" fill="none" xmlns="http://www.w3.org/2000/svg">
<g clip-path="url(#clip0_1568_2705)">
<rect width="144.176" height="105.85" rx="9.12504" fill="#333333"/>
<g clip-path="url(#clip1_1568_2705)">
<path d="M122.276 66.6124C123.788 66.6124 125.022 65.3856 124.928 63.8766C124.589 58.4608 123.247 53.1284 120.95 48.1048C118.267 42.2372 114.335 36.9057 109.378 32.4148C104.421 27.9239 98.5367 24.3616 92.0601 21.9311C85.5836 19.5007 78.6421 18.2497 71.6319 18.2497C64.6218 18.2497 57.6803 19.5007 51.2037 21.9311C44.7272 24.3616 38.8425 27.9239 33.8856 32.4148C28.9286 36.9057 24.9966 42.2372 22.3139 48.1048C20.0171 53.1284 18.6747 58.4608 18.336 63.8766C18.2416 65.3856 19.4761 66.6124 20.988 66.6124H42.2037C43.7156 66.6124 44.9237 65.3821 45.1119 63.882C45.3926 61.6439 46.0177 59.4479 46.9729 57.3586C48.3143 54.4248 50.2803 51.7591 52.7588 49.5136C55.2372 47.2682 58.1796 45.487 61.4178 44.2718C64.6561 43.0565 68.1269 42.4311 71.6319 42.4311C75.137 42.4311 78.6078 43.0565 81.846 44.2718C85.0843 45.487 88.0267 47.2682 90.5051 49.5136C92.9836 51.7591 94.9496 54.4248 96.291 57.3586C97.2462 59.4479 97.8713 61.6439 98.152 63.882C98.3401 65.3821 99.5483 66.6124 101.06 66.6124H122.276Z" fill="white"/>
</g>
<g clip-path="url(#clip2_1568_2705)" filter="url(#filter0_f_1568_2705)">
<path d="M122.276 66.6124C123.788 66.6124 125.022 65.3856 124.928 63.8766C124.589 58.4608 123.247 53.1284 120.95 48.1048C118.267 42.2372 114.335 36.9057 109.378 32.4148C104.421 27.9239 98.5367 24.3616 92.0601 21.9311C85.5836 19.5007 78.6421 18.2497 71.6319 18.2497C64.6218 18.2497 57.6803 19.5007 51.2037 21.9311C44.7272 24.3616 38.8425 27.9239 33.8856 32.4148C28.9286 36.9057 24.9966 42.2372 22.3139 48.1048C20.0171 53.1284 18.6747 58.4608 18.336 63.8766C18.2416 65.3856 19.4761 66.6124 20.988 66.6124H42.2037C43.7156 66.6124 44.9237 65.3821 45.1119 63.882C45.3926 61.6439 46.0177 59.4479 46.9729 57.3586C48.3143 54.4248 50.2803 51.7591 52.7588 49.5136C55.2372 47.2682 58.1796 45.487 61.4178 44.2718C64.6561 43.0565 68.1269 42.4311 71.6319 42.4311C75.137 42.4311 78.6078 43.0565 81.846 44.2718C85.0843 45.487 88.0267 47.2682 90.5051 49.5136C92.9836 51.7591 94.9496 54.4248 96.291 57.3586C97.2462 59.4479 97.8713 61.6439 98.152 63.882C98.3401 65.3821 99.5483 66.6124 101.06 66.6124H122.276Z" fill="white"/>
</g>
<g style="mix-blend-mode:darken" filter="url(#filter1_f_1568_2705)">
<ellipse cx="25.0938" cy="55.2061" rx="35.1314" ry="36.0439" fill="#F8D94D"/>
</g>
<g style="mix-blend-mode:darken" filter="url(#filter2_f_1568_2705)">
<ellipse cx="113.606" cy="55.2061" rx="35.1314" ry="36.0439" fill="#6DB1F9"/>
</g>
<path d="M21.2279 76.9098H18.3663V75.0574H26.0825V76.9098H23.2081V83.9999H21.2279V76.9098ZM32.5916 75.0574H34.5717V80.1674C34.5717 81.3512 34.2268 82.3009 33.5369 83.0163C32.8556 83.7317 31.9358 84.0894 30.7775 84.0894C29.5766 84.0894 28.61 83.7189 27.8776 82.9779C27.1451 82.2285 26.7789 81.2661 26.7789 80.0908V75.0574H28.759V79.8608C28.759 80.5507 28.9294 81.1213 29.27 81.5727C29.6107 82.0155 30.1132 82.237 30.7775 82.237C31.9869 82.237 32.5916 81.462 32.5916 79.9119V75.0574ZM43.894 75.0574V83.9999H42.361L38.0302 78.6983V83.9999H36.1012V75.0574H37.6214L41.9649 80.3718V75.0574H43.894ZM46.7203 83.9999H44.6763L48.5982 75.0574H50.0673L53.9893 83.9999H51.9197L51.1915 82.3392H47.4484L46.7203 83.9999ZM50.4633 80.6657L49.3136 77.9957L48.1383 80.6657H50.4633ZM58.6611 83.9999H54.7647V75.0574H58.7633C59.7428 75.0574 60.4837 75.2192 60.9862 75.5429C61.5653 75.9602 61.8549 76.5606 61.8549 77.3441C61.8549 78.1192 61.5653 78.7579 60.9862 79.2604C61.7612 79.6266 62.1487 80.3207 62.1487 81.3427C62.1487 81.99 61.9699 82.5223 61.6122 82.9396C61.263 83.3484 60.8414 83.6295 60.3474 83.7828C59.8535 83.9275 59.2914 83.9999 58.6611 83.9999ZM58.5589 80.3335H56.7449V82.1476H58.4567C58.6697 82.1476 58.8485 82.139 58.9933 82.122C59.1466 82.105 59.3169 82.0709 59.5043 82.0198C59.6917 81.9687 59.8322 81.875 59.9259 81.7388C60.0281 81.6025 60.0792 81.4322 60.0792 81.2278C60.0792 81.0234 60.0323 80.8573 59.9386 80.7295C59.8535 80.6018 59.7257 80.5123 59.5554 80.4612C59.3851 80.4016 59.2275 80.3676 59.0827 80.359C58.9464 80.342 58.7719 80.3335 58.5589 80.3335ZM58.4312 76.9098H56.7449V78.545H58.5973C58.9124 78.545 59.1892 78.4896 59.4276 78.3789C59.6746 78.2682 59.7981 78.0723 59.7981 77.7913C59.7981 77.5954 59.7598 77.4336 59.6831 77.3058C59.615 77.1781 59.5043 77.0886 59.351 77.0375C59.2062 76.9864 59.0657 76.9524 58.9294 76.9353C58.8017 76.9183 58.6356 76.9098 58.4312 76.9098ZM70.2319 83.9999H63.4228V75.0574H65.403V82.1476H70.2319V83.9999ZM78.1448 83.9999H71.1952V75.0574H78.0298V76.9098H73.1753V78.5705H77.7104V80.359H73.1753V82.1476H78.1448V83.9999ZM92.1174 75.0574H94.0848L91.4403 83.9999H89.8307L87.9272 78.5833L86.0748 83.9999H84.4651L81.6802 75.0574H83.7242L85.3594 80.4485L87.1479 75.0574H88.732L90.5588 80.4101L92.1174 75.0574ZM102.845 83.9999H100.865V80.4229H96.8915V83.9999H94.9113V75.0574H96.8915V78.5705H100.865V75.0574H102.845V83.9999ZM106.549 83.9999H104.569V75.0574H106.549V83.9999ZM110.304 76.9098H107.442V75.0574H115.158V76.9098H112.284V83.9999H110.304V76.9098ZM122.932 83.9999H115.983V75.0574H122.817V76.9098H117.963V78.5705H122.498V80.359H117.963V82.1476H122.932V83.9999Z" fill="white"/>
</g>
<defs>
<filter id="filter0_f_1568_2705" x="1.82516" y="2.73721" width="139.613" height="73.0003" filterUnits="userSpaceOnUse" color-interpolation-filters="sRGB">
<feFlood flood-opacity="0" result="BackgroundImageFix"/>
<feBlend mode="normal" in="SourceGraphic" in2="BackgroundImageFix" result="shape"/>
<feGaussianBlur stdDeviation="4.56252" result="effect1_foregroundBlur_1568_2705"/>
</filter>
<filter id="filter1_f_1568_2705" x="-46.5377" y="-17.3379" width="143.263" height="145.088" filterUnits="userSpaceOnUse" color-interpolation-filters="sRGB">
<feFlood flood-opacity="0" result="BackgroundImageFix"/>
<feBlend mode="normal" in="SourceGraphic" in2="BackgroundImageFix" result="shape"/>
<feGaussianBlur stdDeviation="18.2501" result="effect1_foregroundBlur_1568_2705"/>
</filter>
<filter id="filter2_f_1568_2705" x="41.975" y="-17.3379" width="143.263" height="145.088" filterUnits="userSpaceOnUse" color-interpolation-filters="sRGB">
<feFlood flood-opacity="0" result="BackgroundImageFix"/>
<feBlend mode="normal" in="SourceGraphic" in2="BackgroundImageFix" result="shape"/>
<feGaussianBlur stdDeviation="18.2501" result="effect1_foregroundBlur_1568_2705"/>
</filter>
<clipPath id="clip0_1568_2705">
<rect width="144" height="106" fill="white"/>
</clipPath>
<clipPath id="clip1_1568_2705">
<rect width="121.363" height="54.7502" fill="white" transform="translate(10.9502 11.8622)"/>
</clipPath>
<clipPath id="clip2_1568_2705">
<rect width="121.363" height="54.7502" fill="white" transform="translate(10.9502 11.8622)"/>
</clipPath>
</defs>
</svg>
