<svg width="220" height="106" viewBox="0 0 220 106" fill="none" xmlns="http://www.w3.org/2000/svg">
<g clip-path="url(#clip0_1568_2679)">
<rect y="-0.00012207" width="219.523" height="106.103" rx="9.14677" fill="#333333"/>
<path d="M203.974 50.3072C203.974 54.191 201.554 58.0448 196.819 61.6873C192.097 65.3199 185.206 68.6307 176.609 71.4277C159.426 77.0185 135.63 80.4915 109.304 80.4915C82.9789 80.4915 59.1829 77.0185 41.9995 71.4277C33.4028 68.6307 26.5121 65.3199 21.7898 61.6873C17.0546 58.0448 14.6354 54.191 14.6354 50.3072C14.6354 46.4233 17.0546 42.5695 21.7898 38.927C26.5121 35.2945 33.4028 31.9836 41.9995 29.1866C59.1829 23.5959 82.9789 20.1228 109.304 20.1228C135.63 20.1228 159.426 23.5959 176.609 29.1866C185.206 31.9836 192.097 35.2945 196.819 38.927C201.554 42.5695 203.974 46.4233 203.974 50.3072Z" stroke="white" stroke-width="1.82935"/>
<g filter="url(#filter0_f_1568_2679)">
<path d="M203.516 50.3072C203.516 53.986 201.225 57.7214 196.54 61.3248C191.875 64.9133 185.039 68.2042 176.468 70.9928C159.342 76.565 135.596 80.0342 109.304 80.0342C83.0135 80.0342 59.2674 76.565 42.141 70.9928C33.5703 68.2042 26.7337 64.9133 22.0687 61.3248C17.3842 57.7214 15.0927 53.986 15.0927 50.3072C15.0927 46.6284 17.3842 42.893 22.0687 39.2895C26.7337 35.701 33.5703 32.4101 42.141 29.6215C59.2674 24.0493 83.0135 20.5801 109.304 20.5801C135.596 20.5801 159.342 24.0493 176.468 29.6215C185.039 32.4101 191.875 35.701 196.54 39.2895C201.225 42.893 203.516 46.6284 203.516 50.3072Z" stroke="white" stroke-width="2.74403"/>
</g>
<path d="M71.0615 60.5017H65.3814V41.2935H71.4731C74.8392 41.2935 77.5192 42.0618 79.5132 43.5984C81.5254 45.1168 82.5316 47.4675 82.5316 50.6506C82.5316 52.0226 82.3304 53.2666 81.9279 54.3825C81.5254 55.4801 80.9766 56.4039 80.2815 57.154C79.5863 57.904 78.7448 58.5351 77.757 59.0473C76.7874 59.5596 75.7447 59.9346 74.6288 60.1724C73.5129 60.3919 72.3238 60.5017 71.0615 60.5017ZM71.4183 45.2723H69.6346V56.5228H71.4183C75.9002 56.5228 78.1411 54.5654 78.1411 50.6506C78.1411 47.0651 75.9002 45.2723 71.4183 45.2723ZM95.1902 60.5017H90.7997L99.2239 41.2935H102.38L110.804 60.5017H106.358L104.794 56.9344H96.7543L95.1902 60.5017ZM103.23 53.3398L100.761 47.6047L98.236 53.3398H103.23ZM135.327 60.5017H120.702V41.2935H124.955V56.5228H135.327V60.5017ZM150.019 60.5017H145.765V41.2935H150.019V60.5017Z" fill="white"/>
<rect x="21.0371" y="60.3686" width="176.533" height="1.82935" fill="white"/>
<rect x="20.1226" y="39.3311" width="178.362" height="1.82935" fill="white"/>
<rect x="65" y="60.3686" width="36.5871" height="1.82936" transform="rotate(-90 65 60.3686)" fill="white"/>
<rect x="119.88" y="60.3686" width="39.3311" height="1.82936" transform="rotate(-90 119.88 60.3686)" fill="white"/>
<rect x="145.492" y="60.3686" width="38.4165" height="1.82936" transform="rotate(-90 145.492 60.3686)" fill="white"/>
</g>
<defs>
<filter id="filter0_f_1568_2679" x="7.31796" y="12.8054" width="203.973" height="75.0035" filterUnits="userSpaceOnUse" color-interpolation-filters="sRGB">
<feFlood flood-opacity="0" result="BackgroundImageFix"/>
<feBlend mode="normal" in="SourceGraphic" in2="BackgroundImageFix" result="shape"/>
<feGaussianBlur stdDeviation="3.20137" result="effect1_foregroundBlur_1568_2679"/>
</filter>
<clipPath id="clip0_1568_2679">
<rect width="220" height="106" fill="white"/>
</clipPath>
</defs>
</svg>
