<svg width="18" height="18" viewBox="0 0 18 18" fill="none" xmlns="http://www.w3.org/2000/svg">
<path d="M11.475 10.7258L8.775 8.02578C8.7 7.95078 8.647 7.86953 8.616 7.78203C8.5845 7.69453 8.56875 7.60078 8.56875 7.50078C8.56875 7.40078 8.5845 7.30703 8.616 7.21953C8.647 7.13203 8.7 7.05078 8.775 6.97578L11.475 4.27578C11.625 4.12578 11.8 4.05078 12 4.05078C12.2 4.05078 12.375 4.12578 12.525 4.27578C12.675 4.42578 12.75 4.60378 12.75 4.80978C12.75 5.01628 12.675 5.19453 12.525 5.34453L11.1187 6.75078H15.75C15.9625 6.75078 16.1405 6.82253 16.284 6.96603C16.428 7.11003 16.5 7.28828 16.5 7.50078C16.5 7.71328 16.428 7.89128 16.284 8.03478C16.1405 8.17878 15.9625 8.25078 15.75 8.25078H11.1187L12.525 9.65703C12.675 9.80703 12.75 9.98203 12.75 10.182C12.75 10.382 12.675 10.557 12.525 10.707C12.375 10.857 12.2032 10.9383 12.0098 10.9508C11.8158 10.9633 11.6375 10.8883 11.475 10.7258ZM5.475 15.207C5.625 15.357 5.8 15.435 6 15.441C6.2 15.4475 6.375 15.3758 6.525 15.2258L9.225 12.5258C9.3 12.4508 9.35325 12.3695 9.38475 12.282C9.41575 12.1945 9.43125 12.1008 9.43125 12.0008C9.43125 11.9008 9.41575 11.807 9.38475 11.7195C9.35325 11.632 9.3 11.5508 9.225 11.4758L6.525 8.77578C6.375 8.62578 6.2 8.55078 6 8.55078C5.8 8.55078 5.625 8.62578 5.475 8.77578C5.325 8.92578 5.25 9.10378 5.25 9.30978C5.25 9.51628 5.325 9.69453 5.475 9.84453L6.88125 11.2508H2.25C2.0375 11.2508 1.8595 11.3225 1.716 11.466C1.572 11.61 1.5 11.7883 1.5 12.0008C1.5 12.2133 1.572 12.3913 1.716 12.5348C1.8595 12.6788 2.0375 12.7508 2.25 12.7508H6.88125L5.475 14.157C5.325 14.307 5.25 14.482 5.25 14.682C5.25 14.882 5.325 15.057 5.475 15.207Z" fill="#1C1C1C"/>
</svg>
