<svg width="117" height="45" viewBox="0 0 117 45" fill="none" xmlns="http://www.w3.org/2000/svg">
<path d="M17.59 26.4427C20.0076 26.4427 21.9675 24.4815 21.9675 22.0622C21.9675 19.6429 20.0076 17.6816 17.59 17.6816C15.1723 17.6816 13.2124 19.6429 13.2124 22.0622C13.2124 24.4815 15.1723 26.4427 17.59 26.4427Z" fill="#1C1C1C"/>
<path d="M75.6122 8.76106C78.0298 8.76106 79.9897 6.79983 79.9897 4.38053C79.9897 1.96123 78.0298 0 75.6122 0C73.1945 0 71.2346 1.96123 71.2346 4.38053C71.2346 6.79983 73.1945 8.76106 75.6122 8.76106Z" fill="#1C1C1C"/>
<path d="M112.622 44.9998C115.04 44.9998 117 43.0386 117 40.6193C117 38.2 115.04 36.2388 112.622 36.2388C110.205 36.2388 108.245 38.2 108.245 40.6193C108.245 43.0386 110.205 44.9998 112.622 44.9998Z" fill="#1C1C1C"/>
<path d="M30.8019 45H30.5631C28.3345 45 26.5835 43.2478 26.5835 41.0177V3.9823C26.5835 1.75221 28.3345 0 30.5631 0H30.8019C33.0304 0 34.7815 1.75221 34.7815 3.9823V41.0177C34.7815 43.1681 32.9508 45 30.8019 45Z" fill="#1C1C1C"/>
<path d="M4.21837 45H3.97959C1.75102 45 0 43.2478 0 41.0177V3.9823C0 1.75221 1.75102 0 3.97959 0H4.21837C6.44694 0 8.19796 1.75221 8.19796 3.9823V41.0177C8.19796 43.1681 6.44694 45 4.21837 45Z" fill="#1C1C1C"/>
<path d="M95.0326 45H94.7938C92.5652 45 90.8142 43.2478 90.8142 41.0177V3.9823C90.8142 1.75221 92.5652 0 94.7938 0H95.0326C97.2611 0 99.0122 1.75221 99.0122 3.9823V41.0177C99.0122 43.1681 97.2611 45 95.0326 45Z" fill="#1C1C1C"/>
<path d="M62.6389 44.9204H62.4001C60.1716 44.9204 58.4205 43.1681 58.4205 40.9381V7.08849H47.0389C47.0389 7.08849 43.6165 7.16814 43.6165 3.58407C43.6165 0 46.7205 0 46.7205 0H62.6389C64.8675 0 66.6185 1.75221 66.6185 3.9823V41.0177C66.6185 43.1681 64.8675 44.9204 62.6389 44.9204Z" fill="#1C1C1C"/>
</svg>
