<svg width="145" height="107" viewBox="0 0 145 107" fill="none" xmlns="http://www.w3.org/2000/svg">
<rect width="144.038" height="106.314" rx="9.11633" fill="#333333"/>
<path d="M122.159 76.1516C123.669 76.1516 124.903 74.9259 124.808 73.4184C124.47 68.0077 123.129 62.6804 120.834 57.6616C118.154 51.7996 114.226 46.4732 109.274 41.9866C104.321 37.5 98.4423 33.941 91.9719 31.5129C85.5015 29.0848 78.5667 27.835 71.5632 27.835C64.5597 27.835 57.6248 29.0848 51.1545 31.5129C44.6841 33.941 38.805 37.5 33.8528 41.9866C28.9006 46.4732 24.9723 51.7996 22.2922 57.6616C19.9976 62.6804 18.6564 68.0077 18.3181 73.4184C18.2238 74.9259 19.4571 76.1516 20.9676 76.1516H42.163C43.6735 76.1516 44.8805 74.9224 45.0685 73.4237C45.3489 71.1878 45.9734 68.9939 46.9277 66.9066C48.2678 63.9756 50.2319 61.3124 52.708 59.0691C55.1841 56.8258 58.1237 55.0463 61.3588 53.8322C64.594 52.6182 68.0615 51.9933 71.5632 51.9933C75.0649 51.9933 78.5324 52.6182 81.7675 53.8322C85.0027 55.0463 87.9423 56.8258 90.4184 59.0691C92.8945 61.3124 94.8586 63.9756 96.1987 66.9066C97.153 68.9939 97.7775 71.1878 98.0579 73.4237C98.2459 74.9224 99.4529 76.1516 100.963 76.1516H122.159Z" fill="white"/>
<g filter="url(#filter0_f_1568_3477)">
<path d="M122.159 76.1516C123.669 76.1516 124.903 74.9259 124.808 73.4184C124.47 68.0077 123.129 62.6804 120.834 57.6616C118.154 51.7996 114.226 46.4732 109.274 41.9866C104.321 37.5 98.4423 33.941 91.9719 31.5129C85.5015 29.0848 78.5667 27.835 71.5632 27.835C64.5597 27.835 57.6248 29.0848 51.1545 31.5129C44.6841 33.941 38.805 37.5 33.8528 41.9866C28.9006 46.4732 24.9723 51.7996 22.2922 57.6616C19.9976 62.6804 18.6564 68.0077 18.3181 73.4184C18.2238 74.9259 19.4571 76.1516 20.9676 76.1516H42.163C43.6735 76.1516 44.8805 74.9224 45.0685 73.4237C45.3489 71.1878 45.9734 68.9939 46.9277 66.9066C48.2678 63.9756 50.2319 61.3124 52.708 59.0691C55.1841 56.8258 58.1237 55.0463 61.3588 53.8322C64.594 52.6182 68.0615 51.9933 71.5632 51.9933C75.0649 51.9933 78.5324 52.6182 81.7675 53.8322C85.0027 55.0463 87.9423 56.8258 90.4184 59.0691C92.8945 61.3124 94.8586 63.9756 96.1987 66.9066C97.153 68.9939 97.7775 71.1878 98.0579 73.4237C98.2459 74.9224 99.4529 76.1516 100.963 76.1516H122.159Z" fill="white"/>
</g>
<g style="mix-blend-mode:darken" opacity="0.7" filter="url(#filter1_f_1568_3477)">
<rect x="33.6414" y="36.0403" width="31.9072" height="14.3216" transform="rotate(39.0706 33.6414 36.0403)" fill="#CBF950"/>
</g>
<g style="mix-blend-mode:darken" opacity="0.7" filter="url(#filter2_f_1568_3477)">
<rect x="44.2356" y="30.5699" width="31.9072" height="12.7508" transform="rotate(55.478 44.2356 30.5699)" fill="#FFEA00"/>
</g>
<g style="mix-blend-mode:darken" opacity="0.7" filter="url(#filter3_f_1568_3477)">
<rect x="52.4404" y="25.1002" width="31.9072" height="12.7508" transform="rotate(55.478 52.4404 25.1002)" fill="#FFA800"/>
</g>
<g style="mix-blend-mode:darken" opacity="0.7" filter="url(#filter4_f_1568_3477)">
<rect x="66.5315" y="24.1885" width="31.9072" height="12.7508" transform="rotate(68.1245 66.5315 24.1885)" fill="#FF3D00"/>
</g>
<g style="mix-blend-mode:darken" opacity="0.7" filter="url(#filter5_f_1568_3477)">
<rect x="75.865" y="24.1932" width="32.0036" height="11.432" transform="rotate(85.4549 75.865 24.1932)" fill="#FF3D00"/>
</g>
<g style="mix-blend-mode:darken" opacity="0.7" filter="url(#filter6_f_1568_3477)">
<rect x="86.9363" y="26.7117" width="32.0036" height="11.432" transform="rotate(98.1015 86.9363 26.7117)" fill="#FF0000"/>
</g>
<g style="mix-blend-mode:darken" opacity="0.7" filter="url(#filter7_f_1568_3477)">
<rect x="97.0229" y="30.379" width="32.0036" height="11.432" transform="rotate(109.408 97.0229 30.379)" fill="#FF002E"/>
</g>
<g style="mix-blend-mode:darken" opacity="0.7" filter="url(#filter8_f_1568_3477)">
<rect x="104.733" y="33.6859" width="32.0036" height="11.432" transform="rotate(115.165 104.733 33.6859)" fill="#FF00A8"/>
</g>
<g style="mix-blend-mode:darken" opacity="0.7" filter="url(#filter9_f_1568_3477)">
<rect x="112.962" y="41.4457" width="32.0036" height="11.432" transform="rotate(129.221 112.962 41.4457)" fill="#FA00FF"/>
</g>
<g style="mix-blend-mode:darken" opacity="0.7" filter="url(#filter10_f_1568_3477)">
<rect x="120.06" y="48.3007" width="32.0036" height="11.432" transform="rotate(138.898 120.06 48.3007)" fill="#8F00FF"/>
</g>
<g style="mix-blend-mode:darken" opacity="0.7" filter="url(#filter11_f_1568_3477)">
<rect x="124.377" y="57.4189" width="32.0036" height="11.0049" transform="rotate(149.966 124.377 57.4189)" fill="#7000FF"/>
</g>
<g style="mix-blend-mode:darken" opacity="0.7" filter="url(#filter12_f_1568_3477)">
<rect x="126.813" y="67.2954" width="32.0036" height="11.0049" transform="rotate(159.209 126.813 67.2954)" fill="#0500FF"/>
</g>
<g style="mix-blend-mode:darken" opacity="0.7" filter="url(#filter13_f_1568_3477)">
<rect x="127.62" y="74.0613" width="32.0036" height="11.0049" transform="rotate(165.887 127.62 74.0613)" fill="#0500FF"/>
</g>
<g style="mix-blend-mode:darken" opacity="0.7" filter="url(#filter14_f_1568_3477)">
<rect x="129.548" y="78.9516" width="32.0036" height="11.0049" transform="rotate(-180 129.548 78.9516)" fill="#0500FF"/>
</g>
<path d="M48.1397 90.4828V93.5331H46.1615V84.5991H49.7733C50.8709 84.5991 51.7473 84.8289 52.4025 85.2883C53.0576 85.7478 53.3852 86.488 53.3852 87.5091C53.3852 88.0706 53.2236 88.6024 52.9002 89.1044C52.5769 89.5979 52.1557 89.9383 51.6367 90.1255L54.1255 93.5331H51.7388L49.5564 90.4828H48.1397ZM49.7351 86.4498H48.1397V88.6322H49.8116C50.2371 88.6322 50.5944 88.5429 50.8837 88.3642C51.1815 88.1855 51.3304 87.9005 51.3304 87.5091C51.3304 87.0922 51.1815 86.8114 50.8837 86.6667C50.5944 86.5221 50.2115 86.4498 49.7351 86.4498ZM62.1381 90.3169H59.879V88.5301H64.0397V92.142C63.5888 92.6355 63.0442 93.0184 62.4061 93.2906C61.7764 93.5544 61.1213 93.6863 60.4406 93.6863C59.0367 93.6863 57.8795 93.2609 56.9691 92.41C56.0587 91.5506 55.6035 90.436 55.6035 89.0661C55.6035 87.7388 56.0459 86.6369 56.9308 85.7606C57.8157 84.8842 58.9133 84.446 60.2236 84.446C60.9213 84.446 61.6148 84.5821 62.304 84.8544C62.9932 85.1267 63.5037 85.5266 63.8355 86.0541L62.4699 87.2793C61.9424 86.6667 61.2191 86.3604 60.3002 86.3604C59.4749 86.3604 58.8282 86.6072 58.3603 87.1007C57.8923 87.5856 57.6583 88.2408 57.6583 89.0661C57.6583 89.9085 57.9178 90.5722 58.4368 91.0571C58.9559 91.5336 59.628 91.7719 60.4534 91.7719C61.083 91.7719 61.6446 91.6017 62.1381 91.2614V90.3169ZM70.5545 93.5331H66.6618V84.5991H70.6566C71.6351 84.5991 72.3753 84.7608 72.8773 85.0841C73.4559 85.501 73.7452 86.1009 73.7452 86.8837C73.7452 87.658 73.4559 88.2961 72.8773 88.7981C73.6516 89.164 74.0387 89.8574 74.0387 90.8785C74.0387 91.5251 73.86 92.0569 73.5027 92.4738C73.1538 92.8822 72.7327 93.163 72.2392 93.3162C71.7457 93.4608 71.1841 93.5331 70.5545 93.5331ZM70.4524 89.8702H68.64V91.6825H70.3503C70.563 91.6825 70.7417 91.674 70.8863 91.657C71.0395 91.64 71.2096 91.606 71.3968 91.5549C71.584 91.5038 71.7244 91.4103 71.818 91.2741C71.9201 91.138 71.9711 90.9678 71.9711 90.7636C71.9711 90.5594 71.9243 90.3935 71.8308 90.2658C71.7457 90.1382 71.618 90.0489 71.4479 89.9978C71.2777 89.9383 71.1203 89.9042 70.9756 89.8957C70.8395 89.8787 70.6651 89.8702 70.4524 89.8702ZM70.3247 86.4498H68.64V88.0834H70.4907C70.8055 88.0834 71.082 88.0281 71.3202 87.9175C71.567 87.8069 71.6904 87.6112 71.6904 87.3304C71.6904 87.1347 71.6521 86.973 71.5755 86.8454C71.5074 86.7178 71.3968 86.6284 71.2437 86.5774C71.099 86.5263 70.9586 86.4923 70.8225 86.4753C70.6949 86.4583 70.5289 86.4498 70.3247 86.4498ZM78.6172 86.4498H75.7583V84.5991H83.4671V86.4498H80.5954V93.5331H78.6172V86.4498ZM95.1644 84.5991H97.1299L94.488 93.5331H92.8799L90.9782 88.1217L89.1276 93.5331H87.5195L84.7372 84.5991H86.7792L88.4129 89.9851L90.1997 84.5991H91.7823L93.6074 89.9468L95.1644 84.5991Z" fill="white"/>
<defs>
<filter id="filter0_f_1568_3477" x="11.0199" y="20.542" width="121.087" height="62.9027" filterUnits="userSpaceOnUse" color-interpolation-filters="sRGB">
<feFlood flood-opacity="0" result="BackgroundImageFix"/>
<feBlend mode="normal" in="SourceGraphic" in2="BackgroundImageFix" result="shape"/>
<feGaussianBlur stdDeviation="3.64653" result="effect1_foregroundBlur_1568_3477"/>
</filter>
<filter id="filter1_f_1568_3477" x="15.4984" y="26.924" width="52.031" height="49.4618" filterUnits="userSpaceOnUse" color-interpolation-filters="sRGB">
<feFlood flood-opacity="0" result="BackgroundImageFix"/>
<feBlend mode="normal" in="SourceGraphic" in2="BackgroundImageFix" result="shape"/>
<feGaussianBlur stdDeviation="4.55816" result="effect1_foregroundBlur_1568_3477"/>
</filter>
<filter id="filter2_f_1568_3477" x="24.6137" y="21.4536" width="46.8208" height="51.7474" filterUnits="userSpaceOnUse" color-interpolation-filters="sRGB">
<feFlood flood-opacity="0" result="BackgroundImageFix"/>
<feBlend mode="normal" in="SourceGraphic" in2="BackgroundImageFix" result="shape"/>
<feGaussianBlur stdDeviation="4.55816" result="effect1_foregroundBlur_1568_3477"/>
</filter>
<filter id="filter3_f_1568_3477" x="32.8185" y="15.9838" width="46.8208" height="51.7474" filterUnits="userSpaceOnUse" color-interpolation-filters="sRGB">
<feFlood flood-opacity="0" result="BackgroundImageFix"/>
<feBlend mode="normal" in="SourceGraphic" in2="BackgroundImageFix" result="shape"/>
<feGaussianBlur stdDeviation="4.55816" result="effect1_foregroundBlur_1568_3477"/>
</filter>
<filter id="filter4_f_1568_3477" x="45.5824" y="15.0722" width="41.9538" height="52.5932" filterUnits="userSpaceOnUse" color-interpolation-filters="sRGB">
<feFlood flood-opacity="0" result="BackgroundImageFix"/>
<feBlend mode="normal" in="SourceGraphic" in2="BackgroundImageFix" result="shape"/>
<feGaussianBlur stdDeviation="4.55816" result="effect1_foregroundBlur_1568_3477"/>
</filter>
<filter id="filter5_f_1568_3477" x="55.3527" y="15.0769" width="32.1648" height="51.0416" filterUnits="userSpaceOnUse" color-interpolation-filters="sRGB">
<feFlood flood-opacity="0" result="BackgroundImageFix"/>
<feBlend mode="normal" in="SourceGraphic" in2="BackgroundImageFix" result="shape"/>
<feGaussianBlur stdDeviation="4.55816" result="effect1_foregroundBlur_1568_3477"/>
</filter>
<filter id="filter6_f_1568_3477" x="61.9918" y="15.9843" width="34.0608" height="51.528" filterUnits="userSpaceOnUse" color-interpolation-filters="sRGB">
<feFlood flood-opacity="0" result="BackgroundImageFix"/>
<feBlend mode="normal" in="SourceGraphic" in2="BackgroundImageFix" result="shape"/>
<feGaussianBlur stdDeviation="4.55816" result="effect1_foregroundBlur_1568_3477"/>
</filter>
<filter id="filter7_f_1568_3477" x="66.4896" y="17.4639" width="39.6496" height="52.2165" filterUnits="userSpaceOnUse" color-interpolation-filters="sRGB">
<feFlood flood-opacity="0" result="BackgroundImageFix"/>
<feBlend mode="normal" in="SourceGraphic" in2="BackgroundImageFix" result="shape"/>
<feGaussianBlur stdDeviation="4.55816" result="effect1_foregroundBlur_1568_3477"/>
</filter>
<filter id="filter8_f_1568_3477" x="71.6608" y="19.7084" width="42.1882" height="52.0599" filterUnits="userSpaceOnUse" color-interpolation-filters="sRGB">
<feFlood flood-opacity="0" result="BackgroundImageFix"/>
<feBlend mode="normal" in="SourceGraphic" in2="BackgroundImageFix" result="shape"/>
<feGaussianBlur stdDeviation="4.55816" result="effect1_foregroundBlur_1568_3477"/>
</filter>
<filter id="filter9_f_1568_3477" x="74.7533" y="25.1009" width="47.3254" height="50.255" filterUnits="userSpaceOnUse" color-interpolation-filters="sRGB">
<feFlood flood-opacity="0" result="BackgroundImageFix"/>
<feBlend mode="normal" in="SourceGraphic" in2="BackgroundImageFix" result="shape"/>
<feGaussianBlur stdDeviation="4.55816" result="effect1_foregroundBlur_1568_3477"/>
</filter>
<filter id="filter10_f_1568_3477" x="79.3119" y="30.5699" width="49.864" height="47.8863" filterUnits="userSpaceOnUse" color-interpolation-filters="sRGB">
<feFlood flood-opacity="0" result="BackgroundImageFix"/>
<feBlend mode="normal" in="SourceGraphic" in2="BackgroundImageFix" result="shape"/>
<feGaussianBlur stdDeviation="4.55816" result="effect1_foregroundBlur_1568_3477"/>
</filter>
<filter id="filter11_f_1568_3477" x="82.0463" y="38.7754" width="51.4473" height="43.7782" filterUnits="userSpaceOnUse" color-interpolation-filters="sRGB">
<feFlood flood-opacity="0" result="BackgroundImageFix"/>
<feBlend mode="normal" in="SourceGraphic" in2="BackgroundImageFix" result="shape"/>
<feGaussianBlur stdDeviation="4.55816" result="effect1_foregroundBlur_1568_3477"/>
</filter>
<filter id="filter12_f_1568_3477" x="83.8707" y="47.8909" width="52.0586" height="39.8811" filterUnits="userSpaceOnUse" color-interpolation-filters="sRGB">
<feFlood flood-opacity="0" result="BackgroundImageFix"/>
<feBlend mode="normal" in="SourceGraphic" in2="BackgroundImageFix" result="shape"/>
<feGaussianBlur stdDeviation="4.55816" result="effect1_foregroundBlur_1568_3477"/>
</filter>
<filter id="filter13_f_1568_3477" x="84.7824" y="54.2723" width="51.9536" height="36.7089" filterUnits="userSpaceOnUse" color-interpolation-filters="sRGB">
<feFlood flood-opacity="0" result="BackgroundImageFix"/>
<feBlend mode="normal" in="SourceGraphic" in2="BackgroundImageFix" result="shape"/>
<feGaussianBlur stdDeviation="4.55816" result="effect1_foregroundBlur_1568_3477"/>
</filter>
<filter id="filter14_f_1568_3477" x="88.4281" y="58.8304" width="50.2363" height="29.2375" filterUnits="userSpaceOnUse" color-interpolation-filters="sRGB">
<feFlood flood-opacity="0" result="BackgroundImageFix"/>
<feBlend mode="normal" in="SourceGraphic" in2="BackgroundImageFix" result="shape"/>
<feGaussianBlur stdDeviation="4.55816" result="effect1_foregroundBlur_1568_3477"/>
</filter>
</defs>
</svg>
