<?xml version="1.0" encoding="utf-8"?><svg viewBox="0 0 108 48" xmlns="http://www.w3.org/2000/svg" xmlns:xlink="http://www.w3.org/1999/xlink"><style>:root>svg{display:none}:root>svg:target{display:block}</style><svg fill="none" viewBox="0 0 10 18" id="arrow" xmlns="http://www.w3.org/2000/svg"><path d="M9 17L1 9l8-8"/></svg><svg fill="none" viewBox="0 0 40 40" id="bonus-card" xmlns="http://www.w3.org/2000/svg"><mask id="ba" style="mask-type:alpha" maskUnits="userSpaceOnUse" x="0" y="0" width="40" height="40"><path fill="#D9D9D9" d="M0 0h40v40H0z"/></mask><g mask="url(#ba)"><path d="M6.25 28.042v3.5c0 .139.056.264.167.375.11.11.236.166.375.166h26.416c.14 0 .264-.055.375-.166a.518.518 0 00.167-.375v-3.5H6.25zm.542-17.167h5.333a3.597 3.597 0 01-.333-.875 3.95 3.95 0 01-.125-.958c0-1.111.389-2.056 1.166-2.834.778-.777 1.723-1.166 2.834-1.166.694 0 1.347.18 1.958.541.611.361 1.111.82 1.5 1.375l.833 1.25.875-1.25a4.44 4.44 0 011.479-1.395 3.79 3.79 0 011.938-.521c1.111 0 2.063.389 2.854 1.166.792.778 1.188 1.736 1.188 2.875 0 .278-.042.563-.125.855a8.525 8.525 0 01-.334.937h5.375c.723 0 1.34.257 1.854.771s.771 1.118.771 1.812v18.084c0 .722-.257 1.34-.771 1.854a2.526 2.526 0 01-1.854.771H6.792c-.723 0-1.34-.257-1.854-.771a2.528 2.528 0 01-.771-1.854V13.458c0-.694.257-1.298.771-1.812a2.526 2.526 0 011.854-.771zM6.25 24h27.5V13.458c0-.11-.056-.222-.167-.333a.516.516 0 00-.375-.167h-10l3.709 5.167-1.667 1.208-5.292-7.25-5.291 7.25L13 18.125l3.708-5.167H6.792a.516.516 0 00-.375.167c-.111.111-.167.222-.167.333V24zm9.417-13c.555 0 1.02-.187 1.395-.562.375-.375.563-.84.563-1.396 0-.528-.188-.98-.563-1.354-.375-.375-.84-.563-1.395-.563-.528 0-.98.188-1.355.563a1.845 1.845 0 00-.562 1.354c0 .555.187 1.02.562 1.396.375.375.827.562 1.355.562zm8.583 0c.528 0 .98-.187 1.354-.562.375-.375.563-.84.563-1.396 0-.528-.188-.98-.563-1.354a1.844 1.844 0 00-1.354-.563c-.528 0-.98.188-1.354.563a1.844 1.844 0 00-.563 1.354c0 .555.188 1.02.563 1.396.375.375.826.562 1.354.562z" fill="#F17123"/></g></svg><svg fill="none" viewBox="0 0 36 36" id="icon-link" xmlns="http://www.w3.org/2000/svg"><path d="M18 33c8.271 0 15-6.729 15-15S26.271 3 18 3 3 9.729 3 18s6.729 15 15 15zm-4.06-21.44l2.12-2.12L24.622 18l-8.56 8.56-2.121-2.12L20.379 18l-6.44-6.44z" fill="#03A543"/></svg><svg fill="none" viewBox="0 0 108 48" id="logo" xmlns="http://www.w3.org/2000/svg"><path d="M12.479 29.921C10.269 20.397 23.129 9.462 39.984 0 15.168 11.804-2.938 24.967 1.33 34.395 4.886 42.116 22.544 47.069 45.734 48 29.112 45.2 14.55 38.9 12.48 29.921zM89.814 20.914l2.105-5.2H108l-1.888 5.2h-4.207l-4.73 12.643H89.26l4.749-12.643h-4.196z" fill="#F17123"/><path fill-rule="evenodd" clip-rule="evenodd" d="M53.402 15.713L39.711 33.557h8.298l1.622-2.612h4.932l-.09 2.612h8.097l-.496-17.844h-8.672zm1.837 10.77h-2.792l3.058-4.554-.266 4.553z" fill="#F17123"/><path d="M81.76 15.713l-2.149 6.12h-4.004l2.154-6.12h-7.779l-6.684 17.844h7.903l2.475-6.532 3.992-.048-2.29 6.58h7.695l6.512-17.844h-7.824zM30.354 22.057l6.788-6.344h8.58l-9.845 8.474 3.467 9.37h-9.08l-1.705-6.767-2.553 6.767h-8.053l6.868-17.844h7.834l-2.3 6.344z" fill="#F17123"/></svg></svg>