<?xml version="1.0" encoding="utf-8"?><svg viewBox="0 0 108 48" xmlns="http://www.w3.org/2000/svg" xmlns:xlink="http://www.w3.org/1999/xlink"><style>:root>svg{display:none}:root>svg:target{display:block}</style><svg fill="none" viewBox="0 0 10 18" id="arrow" xmlns="http://www.w3.org/2000/svg"><path d="M9 17L1 9l8-8"/></svg><svg fill="none" viewBox="0 0 40 40" id="bonus-card" xmlns="http://www.w3.org/2000/svg"><mask id="ba" style="mask-type:alpha" maskUnits="userSpaceOnUse" x="0" y="0" width="40" height="40"><path fill="#D9D9D9" d="M0 0h40v40H0z"/></mask><g mask="url(#ba)"><path d="M6.25 28.042v3.5c0 .139.056.264.167.375.11.11.236.166.375.166h26.416c.14 0 .264-.055.375-.166a.518.518 0 00.167-.375v-3.5H6.25zm.542-17.167h5.333a3.597 3.597 0 01-.333-.875 3.95 3.95 0 01-.125-.958c0-1.111.389-2.056 1.166-2.834.778-.777 1.723-1.166 2.834-1.166.694 0 1.347.18 1.958.541.611.361 1.111.82 1.5 1.375l.833 1.25.875-1.25a4.44 4.44 0 011.479-1.395 3.79 3.79 0 011.938-.521c1.111 0 2.063.389 2.854 1.166.792.778 1.188 1.736 1.188 2.875 0 .278-.042.563-.125.855a8.525 8.525 0 01-.334.937h5.375c.723 0 1.34.257 1.854.771s.771 1.118.771 1.812v18.084c0 .722-.257 1.34-.771 1.854a2.526 2.526 0 01-1.854.771H6.792c-.723 0-1.34-.257-1.854-.771a2.528 2.528 0 01-.771-1.854V13.458c0-.694.257-1.298.771-1.812a2.526 2.526 0 011.854-.771zM6.25 24h27.5V13.458c0-.11-.056-.222-.167-.333a.516.516 0 00-.375-.167h-10l3.709 5.167-1.667 1.208-5.292-7.25-5.291 7.25L13 18.125l3.708-5.167H6.792a.516.516 0 00-.375.167c-.111.111-.167.222-.167.333V24zm9.417-13c.555 0 1.02-.187 1.395-.562.375-.375.563-.84.563-1.396 0-.528-.188-.98-.563-1.354-.375-.375-.84-.563-1.395-.563-.528 0-.98.188-1.355.563a1.845 1.845 0 00-.562 1.354c0 .555.187 1.02.562 1.396.375.375.827.562 1.355.562zm8.583 0c.528 0 .98-.187 1.354-.562.375-.375.563-.84.563-1.396 0-.528-.188-.98-.563-1.354a1.844 1.844 0 00-1.354-.563c-.528 0-.98.188-1.354.563a1.844 1.844 0 00-.563 1.354c0 .555.188 1.02.563 1.396.375.375.826.562 1.354.562z" fill="#F17123"/></g></svg><svg fill="none" viewBox="0 0 36 36" id="ico-catalog" xmlns="http://www.w3.org/2000/svg"><circle cx="18" cy="18" r="18" fill="#03A543"/><path fill="#fff" d="M11 17.176h14v1.647H11z"/><path fill="#fff" d="M18.823 11v14h-1.647V11z"/></svg><svg fill="none" viewBox="0 0 16 16" id="ico-download" xmlns="http://www.w3.org/2000/svg"><path d="M14 11v3H2v-3H0v3c0 1.1.9 2 2 2h12c1.1 0 2-.9 2-2v-3h-2zm-1-4l-1.41-1.41L9 8.17V0H7v8.17L4.41 5.59 3 7l5 5 5-5z" fill="#03A543"/></svg><svg fill="none" viewBox="0 0 30 30" id="ico-filters" xmlns="http://www.w3.org/2000/svg"><path d="M17.5 16.25V25h-5v-8.75L3.686 5h22.625l-8.813 11.25zm-2.5-.875L21.186 7.5H8.812L15 15.375z" fill="#03A543"/></svg><svg fill="none" viewBox="0 0 12 17" id="ico-pagination-arrow" xmlns="http://www.w3.org/2000/svg"><path d="M11 1L2 8.5l9 7.5"/></svg><svg fill="none" viewBox="0 0 25 25" id="ico-sort-grid" xmlns="http://www.w3.org/2000/svg"><path fill="#03A543" d="M0 0h5v5H0zM0 10h5v5H0zM0 20h5v5H0zM10 0h5v5h-5zM10 10h5v5h-5zM10 20h5v5h-5zM20 0h5v5h-5zM20 10h5v5h-5zM20 20h5v5h-5z"/></svg><svg fill="none" viewBox="0 0 30 25" id="ico-sort-line" xmlns="http://www.w3.org/2000/svg"><g fill="#1C1C1C"><path d="M0 0h5v5H0zM0 10h5v5H0zM0 20h5v5H0zM10 0h20v5H10zM10 10h20v5H10zM10 20h20v5H10z"/></g></svg><svg fill="none" viewBox="0 0 13 12" id="ico-triangle" xmlns="http://www.w3.org/2000/svg"><path d="M6.5 12L.005.75h12.99L6.5 12z" fill="#03A543"/></svg><svg fill="none" viewBox="0 0 40 40" id="icon-fb" xmlns="http://www.w3.org/2000/svg"><path d="M20 0C8.973 0 0 8.97 0 20s8.973 20 20 20 20-8.97 20-20S31.027 0 20 0zm0 38.668C9.708 38.668 1.335 30.293 1.335 20S9.708 1.332 20 1.332c10.293 0 18.665 8.375 18.665 18.668S30.293 38.668 20 38.668z" fill="#1C1C1C"/><path d="M24.366 8.774H21.04c-4.239-.042-4.78 2.58-4.78 5.42v2.064h-1.87a.554.554 0 00-.624.624v3.742a.554.554 0 00.623.623h1.871v9.356a.56.56 0 00.628.623h3.81c.368.043.666-.255.549-.623l.002-9.356h3.118a.556.556 0 00.624-.623v-3.742a.556.556 0 00-.623-.624h-3.123l.004-1.871c.121-.797.121-.667.86-.624h2.232c.174-.038.358-.017.488-.143s.204-.298.16-.48V9.398a.552.552 0 00-.622-.624zm-.667 3.672l-1.564-.06c-1.937 0-2.1 1.052-2.1 2.128l-.004 2.365a.667.667 0 00.666.668h3.046v2.41H20.7a.667.667 0 00-.668.665l-.001 9.357h-2.524v-9.355c0-.368-.251-.666-.62-.666h-1.875v-2.41h1.875a.665.665 0 00.471-.195c.125-.126.147-.295.147-.473v-2.687c0-2.797.565-4.13 3.533-4.13h2.66v2.383h.001z" fill="#1C1C1C"/></svg><svg fill="none" viewBox="0 0 40 40" id="icon-ig" xmlns="http://www.w3.org/2000/svg"><path d="M20 0C8.973 0 0 8.97 0 20s8.973 20 20 20 20-8.97 20-20S31.027 0 20 0zm0 38.668C9.708 38.668 1.335 30.293 1.335 20S9.708 1.332 20 1.332c10.293 0 18.665 8.375 18.665 18.668S30.293 38.668 20 38.668z" fill="#1C1C1C"/><path d="M22.436 18.373a2.93 2.93 0 11-4.872 3.255 2.93 2.93 0 014.872-3.255zM24.199 20v0A4.202 4.202 0 0020 15.802v.1-.1A4.198 4.198 0 1024.2 20zm-.279-8.831h0-7.84 0a4.916 4.916 0 00-4.91 4.91v7.841h0a4.917 4.917 0 004.91 4.912h7.84a4.916 4.916 0 004.911-4.911v0-7.841 0a4.917 4.917 0 00-4.91-4.911zm.713 3.207h0a.991.991 0 10.991.991h-.1.1a.992.992 0 00-.99-.99zm2.93 9.544a3.646 3.646 0 01-3.643 3.642h-7.84a3.646 3.646 0 01-3.641-3.642s0 0 0 0v-7.84s0 0 0 0a3.647 3.647 0 013.641-3.642s0 0 0 0h7.84s0 0 0 0a3.646 3.646 0 013.642 3.642v7.84z" fill="#1C1C1C" stroke="#0F0F0F" stroke-width=".2"/></svg><svg fill="none" viewBox="0 0 36 36" id="icon-link" xmlns="http://www.w3.org/2000/svg"><path d="M18 33c8.271 0 15-6.729 15-15S26.271 3 18 3 3 9.729 3 18s6.729 15 15 15zm-4.06-21.44l2.12-2.12L24.622 18l-8.56 8.56-2.121-2.12L20.379 18l-6.44-6.44z" fill="#03A543"/></svg><svg fill="none" viewBox="0 0 40 40" id="icon-tw" xmlns="http://www.w3.org/2000/svg"><g clip-path="url(#mclip0_1418_2882)" fill="#1C1C1C"><path d="M20-.042C8.949-.042-.044 8.948-.044 20-.044 31.052 8.95 40.042 20 40.042S40.044 31.052 40.044 20C40.044 8.948 31.05-.042 20-.042zm0 38.75C9.685 38.708 1.294 30.315 1.294 20 1.294 9.685 9.684 1.293 20 1.293c10.315 0 18.706 8.392 18.706 18.707 0 10.315-8.391 18.708-18.706 18.708z"/><path d="M30.992 13.807c.139-.256.253-.525.342-.803a.67.67 0 00-.977-.779c-.64.38-1.334.664-2.057.841a4.789 4.789 0 00-3.203-1.234A4.775 4.775 0 0020.33 16.8a11.026 11.026 0 01-7.169-3.973.67.67 0 00-1.095.088 4.765 4.765 0 00-.082 4.651.786.786 0 00-.268.098.714.714 0 00-.33.6c0 1.42.631 2.722 1.649 3.607l-.044.044a.668.668 0 00-.135.647 4.772 4.772 0 002.73 2.956 7.668 7.668 0 01-4.257.724.681.681 0 00-.708.44.67.67 0 00.269.788 12.3 12.3 0 006.649 1.948c7.725 0 12.342-6.275 12.342-12.34l-.001-.206a8.904 8.904 0 001.926-2.075.669.669 0 00-.814-.989zm-2.18 2.194a.669.669 0 00-.278.576c.007.165.01.333.01.498 0 5.41-4.115 11.006-11.004 11.006-1.229 0-2.449-.205-3.609-.61a8.843 8.843 0 003.806-1.737.669.669 0 00-.4-1.194 3.44 3.44 0 01-2.742-1.453c.316-.02.626-.073.927-.154a.668.668 0 00-.045-1.3 3.425 3.425 0 01-2.6-2.382c.332.084.673.133 1.014.144a.687.687 0 00.658-.464.666.666 0 00-.265-.759 3.432 3.432 0 01-1.43-3.68 12.354 12.354 0 008.21 3.714.68.68 0 00.547-.238.67.67 0 00.138-.58 3.438 3.438 0 015.852-3.133.669.669 0 00.618.199 9.08 9.08 0 00.61-.144c-.09.068-.184.13-.282.189a.668.668 0 00.423 1.235l.227-.029a7.018 7.018 0 01-.386.296z"/></g><defs><clipPath id="mclip0_1418_2882"><path fill="#fff" d="M0 0h40v40H0z"/></clipPath></defs></svg><svg fill="none" viewBox="0 0 108 48" id="logo" xmlns="http://www.w3.org/2000/svg"><path d="M12.479 29.921C10.269 20.397 23.129 9.462 39.984 0 15.168 11.804-2.938 24.967 1.33 34.395 4.886 42.116 22.544 47.069 45.734 48 29.112 45.2 14.55 38.9 12.48 29.921zM89.814 20.914l2.105-5.2H108l-1.888 5.2h-4.207l-4.73 12.643H89.26l4.749-12.643h-4.196z" fill="#F17123"/><path fill-rule="evenodd" clip-rule="evenodd" d="M53.402 15.713L39.711 33.557h8.298l1.622-2.612h4.932l-.09 2.612h8.097l-.496-17.844h-8.672zm1.837 10.77h-2.792l3.058-4.554-.266 4.553z" fill="#F17123"/><path d="M81.76 15.713l-2.149 6.12h-4.004l2.154-6.12h-7.779l-6.684 17.844h7.903l2.475-6.532 3.992-.048-2.29 6.58h7.695l6.512-17.844h-7.824zM30.354 22.057l6.788-6.344h8.58l-9.845 8.474 3.467 9.37h-9.08l-1.705-6.767-2.553 6.767h-8.053l6.868-17.844h7.834l-2.3 6.344z" fill="#F17123"/></svg></svg>