<svg width="40" height="40" viewBox="0 0 40 40" fill="none" xmlns="http://www.w3.org/2000/svg">
<mask id="mask0_15510_27539" style="mask-type:alpha" maskUnits="userSpaceOnUse" x="0" y="0" width="40" height="40">
<rect width="40" height="40" fill="#D9D9D9"/>
</mask>
<g mask="url(#mask0_15510_27539)">
<path d="M6.24999 28.042V31.542C6.24999 31.6807 6.30566 31.8057 6.41699 31.917C6.52766 32.0277 6.65266 32.083 6.79199 32.083H33.208C33.3473 32.083 33.4723 32.0277 33.583 31.917C33.6943 31.8057 33.75 31.6807 33.75 31.542V28.042H6.24999ZM6.79199 10.875H12.125C11.9863 10.625 11.8753 10.3333 11.792 9.99999C11.7087 9.66666 11.667 9.34733 11.667 9.04199C11.667 7.93066 12.0557 6.98599 12.833 6.20799C13.611 5.43066 14.5557 5.04199 15.667 5.04199C16.361 5.04199 17.0137 5.22233 17.625 5.58299C18.2363 5.94433 18.7363 6.40266 19.125 6.95799L19.958 8.20799L20.833 6.95799C21.2223 6.37466 21.7153 5.90966 22.312 5.56299C22.9093 5.21566 23.5553 5.04199 24.25 5.04199C25.3613 5.04199 26.3127 5.43066 27.104 6.20799C27.896 6.98599 28.292 7.94433 28.292 9.08299C28.292 9.36099 28.2503 9.64599 28.167 9.93799C28.0837 10.2293 27.9723 10.5417 27.833 10.875H33.208C33.9307 10.875 34.5487 11.132 35.062 11.646C35.576 12.16 35.833 12.764 35.833 13.458V31.542C35.833 32.264 35.576 32.882 35.062 33.396C34.5487 33.91 33.9307 34.167 33.208 34.167H6.79199C6.06933 34.167 5.45133 33.91 4.93799 33.396C4.42399 32.882 4.16699 32.264 4.16699 31.542V13.458C4.16699 12.764 4.42399 12.16 4.93799 11.646C5.45133 11.132 6.06933 10.875 6.79199 10.875ZM6.24999 24H33.75V13.458C33.75 13.3473 33.6943 13.2363 33.583 13.125C33.4723 13.0137 33.3473 12.958 33.208 12.958H23.208L26.917 18.125L25.25 19.333L19.958 12.083L14.667 19.333L13 18.125L16.708 12.958H6.79199C6.65266 12.958 6.52766 13.0137 6.41699 13.125C6.30566 13.2363 6.24999 13.3473 6.24999 13.458V24ZM15.667 11C16.2223 11 16.6873 10.8127 17.062 10.438C17.4373 10.0627 17.625 9.59733 17.625 9.04199C17.625 8.51399 17.4373 8.06266 17.062 7.68799C16.6873 7.31266 16.2223 7.12499 15.667 7.12499C15.139 7.12499 14.6873 7.31266 14.312 7.68799C13.9373 8.06266 13.75 8.51399 13.75 9.04199C13.75 9.59733 13.9373 10.0627 14.312 10.438C14.6873 10.8127 15.139 11 15.667 11ZM24.25 11C24.778 11 25.2293 10.8127 25.604 10.438C25.9793 10.0627 26.167 9.59733 26.167 9.04199C26.167 8.51399 25.9793 8.06266 25.604 7.68799C25.2293 7.31266 24.778 7.12499 24.25 7.12499C23.722 7.12499 23.2707 7.31266 22.896 7.68799C22.5207 8.06266 22.333 8.51399 22.333 9.04199C22.333 9.59733 22.5207 10.0627 22.896 10.438C23.2707 10.8127 23.722 11 24.25 11Z" fill="#F17123"/>
</g>
</svg>
