<svg width="26" height="26" viewBox="0 0 26 26" fill="none" xmlns="http://www.w3.org/2000/svg">
<path d="M23.5642 22.4134L17.4282 16.2774C18.9027 14.5072 19.638 12.2367 19.4811 9.93818C19.3242 7.63967 18.2872 5.49014 16.5858 3.93674C14.8845 2.38334 12.6497 1.54568 10.3464 1.59802C8.04316 1.65035 5.84875 2.58865 4.21968 4.21772C2.5906 5.84679 1.6523 8.04121 1.59997 10.3445C1.54763 12.6477 2.38529 14.8825 3.93869 16.5839C5.49209 18.2853 7.64162 19.3223 9.94013 19.4792C12.2386 19.6361 14.5092 18.9008 16.2793 17.4263L22.4153 23.5623L23.5642 22.4134ZM3.25171 10.5623C3.25171 9.11598 3.68058 7.70219 4.48409 6.49965C5.2876 5.29712 6.42965 4.35985 7.76584 3.80639C9.10202 3.25292 10.5723 3.10811 11.9908 3.39027C13.4093 3.67242 14.7123 4.36887 15.7349 5.39154C16.7576 6.41421 17.454 7.71717 17.7362 9.13566C18.0184 10.5541 17.8735 12.0244 17.3201 13.3606C16.7666 14.6968 15.8294 15.8389 14.6268 16.6424C13.4243 17.4459 12.0105 17.8748 10.5642 17.8748C8.62547 17.8726 6.76676 17.1015 5.39587 15.7306C4.02497 14.3597 3.25386 12.501 3.25171 10.5623Z" fill="#1C1C1C"/>
</svg>
