<svg width="17" height="16" viewBox="0 0 17 16" fill="none" xmlns="http://www.w3.org/2000/svg">
<path d="M15.4141 5.192C15.2046 4.70706 14.9026 4.26761 14.525 3.89825C14.1471 3.52779 13.7015 3.2334 13.2125 3.03107C12.7054 2.82043 12.1616 2.71261 11.6125 2.71388C10.8422 2.71388 10.0906 2.92482 9.4375 3.32325C9.28125 3.41857 9.13281 3.52325 8.99219 3.63732C8.85156 3.52325 8.70312 3.41857 8.54688 3.32325C7.89375 2.92482 7.14219 2.71388 6.37187 2.71388C5.81719 2.71388 5.27969 2.82013 4.77187 3.03107C4.28125 3.23419 3.83906 3.52638 3.45937 3.89825C3.08124 4.26719 2.77918 4.70675 2.57031 5.192C2.35313 5.69669 2.24219 6.23263 2.24219 6.78419C2.24219 7.3045 2.34844 7.84669 2.55938 8.39825C2.73594 8.85919 2.98906 9.33732 3.3125 9.82013C3.825 10.5842 4.52969 11.3811 5.40469 12.1889C6.85469 13.5279 8.29063 14.4529 8.35156 14.4904L8.72188 14.7279C8.88594 14.8326 9.09688 14.8326 9.26094 14.7279L9.63125 14.4904C9.69219 14.4514 11.1266 13.5279 12.5781 12.1889C13.4531 11.3811 14.1578 10.5842 14.6703 9.82013C14.9938 9.33732 15.2484 8.85919 15.4234 8.39825C15.6344 7.84669 15.7406 7.3045 15.7406 6.78419C15.7422 6.23263 15.6313 5.69669 15.4141 5.192ZM8.99219 13.492C8.99219 13.492 3.42969 9.92794 3.42969 6.78419C3.42969 5.192 4.74687 3.90138 6.37187 3.90138C7.51406 3.90138 8.50469 4.53888 8.99219 5.47013C9.47969 4.53888 10.4703 3.90138 11.6125 3.90138C13.2375 3.90138 14.5547 5.192 14.5547 6.78419C14.5547 9.92794 8.99219 13.492 8.99219 13.492Z" fill="#1C1C1C"/>
</svg>
