<svg width="40" height="40" viewBox="0 0 40 40" fill="none" xmlns="http://www.w3.org/2000/svg">
<g clip-path="url(#clip0_1418_2882)">
<path d="M19.9998 -0.0424805C8.94855 -0.0424805 -0.0439453 8.94752 -0.0439453 20C-0.0439453 31.0525 8.94855 40.0425 19.9998 40.0425C31.0511 40.0425 40.0436 31.0525 40.0436 20C40.0436 8.94752 31.0511 -0.0424805 19.9998 -0.0424805ZM19.9998 38.7075C9.6848 38.7075 1.29355 30.315 1.29355 20C1.29355 9.68502 9.6848 1.29252 19.9998 1.29252C30.3148 1.29252 38.7061 9.68502 38.7061 20C38.7061 30.315 30.3148 38.7075 19.9998 38.7075Z" fill="#1C1C1C"/>
<path d="M30.9924 13.8075C31.131 13.5509 31.2453 13.2818 31.3336 13.0038C31.3745 12.8748 31.3753 12.7365 31.336 12.6071C31.2966 12.4776 31.2189 12.3632 31.1132 12.2788C31.0074 12.1944 30.8786 12.1441 30.7436 12.1345C30.6087 12.1249 30.474 12.1565 30.3574 12.225C29.7169 12.6055 29.0235 12.889 28.2999 13.0663C27.4215 12.2735 26.2806 11.834 25.0974 11.8325C24.4545 11.833 23.8184 11.9633 23.2271 12.2156C22.6358 12.4679 22.1016 12.837 21.6564 13.3007C21.2112 13.7645 20.8642 14.3133 20.6363 14.9144C20.4083 15.5155 20.3041 16.1564 20.3299 16.7988C17.5186 16.4449 14.9515 15.0223 13.1611 12.8263C13.0925 12.7431 13.0049 12.6777 12.9056 12.6356C12.8063 12.5935 12.6983 12.576 12.5908 12.5846C12.4833 12.5932 12.3795 12.6276 12.2882 12.6849C12.1968 12.7422 12.1206 12.8207 12.0661 12.9138C11.6561 13.6174 11.4333 14.4144 11.4189 15.2286C11.4044 16.0429 11.5989 16.8473 11.9836 17.565C11.8893 17.5809 11.7986 17.614 11.7161 17.6625C11.6151 17.727 11.5318 17.8158 11.4742 17.9209C11.4165 18.026 11.3862 18.1439 11.3861 18.2638C11.3861 19.6825 12.0174 20.985 13.0349 21.87L12.9911 21.9138C12.9143 22.0007 12.8615 22.1061 12.8378 22.2196C12.8141 22.3332 12.8204 22.4509 12.8561 22.5613C13.0683 23.2232 13.4226 23.8307 13.8941 24.3414C14.3657 24.852 14.9432 25.2534 15.5861 25.5175C14.2656 26.1617 12.7878 26.4129 11.3286 26.2413C11.1786 26.226 11.0278 26.2609 10.8998 26.3405C10.7717 26.4201 10.6737 26.54 10.6211 26.6813C10.5706 26.8236 10.5696 26.9788 10.6184 27.1218C10.6672 27.2647 10.7629 27.387 10.8899 27.4688C12.8736 28.742 15.1814 29.4184 17.5386 29.4175C25.2636 29.4175 29.8811 23.1425 29.8811 17.0763L29.8799 16.8713C30.6285 16.2868 31.2788 15.5863 31.8061 14.7963C31.886 14.6768 31.9252 14.5349 31.9181 14.3914C31.911 14.2479 31.8578 14.1105 31.7665 13.9996C31.6752 13.8887 31.5507 13.8101 31.4112 13.7755C31.2718 13.7409 31.1249 13.7521 30.9924 13.8075ZM28.8111 16.0013C28.7204 16.0665 28.6475 16.1534 28.599 16.2541C28.5505 16.3547 28.5281 16.4659 28.5336 16.5775C28.5411 16.7425 28.5449 16.91 28.5449 17.075C28.5449 22.485 24.4286 28.0813 17.5399 28.0813C16.3112 28.0818 15.0913 27.8756 13.9311 27.4713C15.3206 27.205 16.6259 26.6091 17.7374 25.7338C17.8456 25.6485 17.9248 25.5318 17.9642 25.3998C18.0035 25.2678 18.0012 25.1268 17.9574 24.9961C17.9136 24.8655 17.8306 24.7516 17.7196 24.6699C17.6086 24.5883 17.4751 24.5429 17.3374 24.54C16.7984 24.5297 16.2694 24.3929 15.793 24.1406C15.3166 23.8883 14.9062 23.5276 14.5949 23.0875C14.9111 23.0663 15.2211 23.0138 15.5224 22.9325C15.6682 22.8935 15.7964 22.8062 15.8863 22.6849C15.9761 22.5636 16.0221 22.4155 16.0169 22.2646C16.0117 22.1138 15.9555 21.9692 15.8575 21.8544C15.7595 21.7396 15.6255 21.6614 15.4774 21.6325C14.8686 21.5087 14.305 21.2217 13.8469 20.8023C13.3887 20.3828 13.0531 19.8467 12.8761 19.2513C13.2086 19.335 13.5499 19.3838 13.8911 19.395C14.1849 19.3938 14.4574 19.2138 14.5486 18.9313C14.6399 18.6488 14.5324 18.3375 14.2836 18.1725C13.6955 17.7807 13.2426 17.2168 12.9869 16.5579C12.7312 15.8991 12.6851 15.1773 12.8549 14.4913C15.0262 16.7192 17.9581 18.0458 21.0649 18.2063C21.2849 18.2075 21.4774 18.1288 21.6111 17.9675C21.7449 17.8063 21.7961 17.5925 21.7486 17.3875C21.5777 16.6513 21.6541 15.8792 21.9662 15.1908C22.2782 14.5024 22.8085 13.936 23.4749 13.5793C24.1413 13.2226 24.9066 13.0955 25.6525 13.2177C26.3985 13.3398 27.0833 13.7044 27.6011 14.255C27.6787 14.3378 27.7761 14.3995 27.8842 14.4343C27.9922 14.4691 28.1073 14.4758 28.2186 14.4538C28.4249 14.4125 28.6286 14.365 28.8299 14.31C28.7391 14.3779 28.6448 14.4409 28.5474 14.4988C28.4177 14.5782 28.319 14.6994 28.2675 14.8424C28.216 14.9854 28.2147 15.1417 28.2639 15.2855C28.3131 15.4293 28.4099 15.5521 28.5382 15.6336C28.6665 15.7151 28.8188 15.7504 28.9699 15.7338L29.1974 15.705C29.0721 15.8082 28.9433 15.907 28.8111 16.0013Z" fill="#1C1C1C"/>
</g>
<defs>
<clipPath id="clip0_1418_2882">
<rect width="40" height="40" fill="white"/>
</clipPath>
</defs>
</svg>
