<svg width="108" height="48" viewBox="0 0 108 48" fill="none" xmlns="http://www.w3.org/2000/svg">
<path d="M12.4786 29.9213C10.2692 20.3971 23.1299 9.46243 39.9835 0C15.1695 11.8038 -2.93742 24.967 1.33111 34.3947C4.88617 42.1163 22.5443 47.0694 45.7341 48C29.1121 45.1998 14.5488 38.9003 12.4786 29.9213Z" fill="#F17123"/>
<path d="M89.8138 20.9142L91.9186 15.7133H108L106.112 20.9142H101.905L97.1742 33.5571H89.2612L94.0096 20.9142H89.8138Z" fill="#F17123"/>
<path fill-rule="evenodd" clip-rule="evenodd" d="M53.4024 15.7133L39.711 33.5575H48.0092L49.6313 30.9449H54.5635L54.4728 33.5575H62.57L62.0742 15.7133H53.4024ZM55.2387 26.4824H52.4465L55.5054 21.9292L55.2387 26.4824Z" fill="#F17123"/>
<path d="M81.7608 15.7133L79.6114 21.8335H75.6067L77.761 15.7133H69.9823L63.2981 33.5571H71.2014L73.6758 27.0248L77.6683 26.9772L75.3772 33.5571H83.073L89.5852 15.7133H81.7608Z" fill="#F17123"/>
<path d="M30.3543 22.0571L37.1418 15.7133H45.7221L35.8766 24.1874L39.3443 33.5571H30.2632L28.5594 26.7899L26.0057 33.5571H17.9526L24.821 15.7133H32.6552L30.3543 22.0571Z" fill="#F17123"/>
</svg>
