<svg width="243" height="60" viewBox="0 0 243 60" fill="none" xmlns="http://www.w3.org/2000/svg">
<path fill-rule="evenodd" clip-rule="evenodd" d="M72.9888 13.084C72.6734 13.0977 72.3098 13.1693 71.8938 13.3016C71.4906 13.429 71.1037 13.6032 70.741 13.8208C70.3308 14.0706 69.9696 14.3932 69.675 14.7725C69.4051 15.132 69.1682 15.632 68.9671 16.2724C68.0732 19.1799 67.0347 22.5736 65.8516 26.4562C64.6671 30.3388 63.3904 34.4734 62.0186 38.867H60.2529L53.522 18.2612L46.4826 38.867H44.8147C42.6229 31.1241 40.4385 23.3791 38.2615 15.632C38.1573 15.2591 37.988 14.9075 37.7616 14.5935C37.5134 14.2665 37.2099 13.9854 36.8649 13.763C36.5277 13.5393 36.1538 13.3766 35.7603 13.2823C35.3856 13.1838 35.0032 13.117 34.6172 13.0826V11.7259H45.5213V13.084C44.5654 13.1349 43.7487 13.2286 43.0766 13.3677C42.4044 13.5068 42.0684 13.7395 42.0684 14.066C42.0684 14.1913 42.0863 14.358 42.1249 14.5659C42.162 14.7725 42.1937 14.9392 42.2185 15.0659C42.5064 16.1746 43.0187 18.0051 43.7542 20.5572C44.8502 24.379 45.9406 28.2024 47.0253 32.0274L53.7245 12.1281H55.5714L62.2982 32.4764C63.2086 29.3471 63.9923 26.6132 64.6506 24.2718C65.309 21.9304 65.853 19.9278 66.2813 18.2612C66.5857 17.0878 66.7744 16.2834 66.8502 15.851C66.9192 15.4866 66.9574 15.1171 66.9645 14.7464C66.9645 14.318 66.6711 13.9599 66.0858 13.6707C65.5004 13.3815 64.5528 13.1859 63.2444 13.0853V11.7259H72.9902V13.084H72.9888ZM82.8103 35.3411C81.8903 36.8534 80.6438 37.6082 79.0696 37.6082C78.1124 37.6082 77.3094 37.3795 76.6607 36.9223C76.012 36.4678 75.4735 35.8383 75.0451 35.0395C74.5959 34.1836 74.2805 33.2639 74.1099 32.3125C73.9076 31.2155 73.8099 30.1017 73.8179 28.9863C73.8179 28.0745 73.8992 27.1297 74.0631 26.1559C74.2052 25.2475 74.4921 24.3677 74.9129 23.5501C75.3412 22.7251 75.8977 22.0764 76.5849 21.6012C77.2708 21.126 78.1 20.8877 79.0696 20.8877C80.0144 20.8877 80.8146 21.1219 81.4702 21.5915C82.1244 22.0612 82.6533 22.681 83.0569 23.455C83.4342 24.1822 83.718 25.0651 83.9067 26.1077C84.0954 27.1517 84.1904 28.1406 84.1904 29.0786C84.1904 31.7423 83.7304 33.8289 82.8103 35.3411ZM85.5718 22.0529C83.8736 20.3038 81.7195 19.4292 79.1082 19.4292C76.3563 19.4292 74.1333 20.3506 72.4351 22.1948C70.7369 24.0376 69.8885 26.408 69.8885 29.3044C69.8885 30.8098 70.1309 32.1692 70.6171 33.3771C71.1019 34.5878 71.7547 35.6125 72.5756 36.454C73.3858 37.2915 74.3588 37.9543 75.4349 38.4015C76.5085 38.8458 77.6597 39.0724 78.8217 39.0681C80.2472 39.0681 81.535 38.823 82.6836 38.334C83.8323 37.8451 84.8419 37.1 85.7137 36.0959C86.4836 35.2158 87.0758 34.1484 87.4918 32.8868C87.9057 31.6465 88.1169 30.3475 88.1171 29.04C88.1185 26.1325 87.27 23.8021 85.5718 22.0529ZM105.088 22.2706C105.088 22.911 104.931 23.4784 104.619 23.9743C104.306 24.4701 103.822 24.7166 103.171 24.7166C102.469 24.7166 101.933 24.5321 101.564 24.1643C101.195 23.7952 101.01 23.3889 101.01 22.944C101.01 22.6631 101.032 22.4097 101.076 22.181C101.12 21.951 101.161 21.7224 101.199 21.4924C100.604 21.4924 99.9081 21.7375 99.1107 22.2251C98.3146 22.714 97.637 23.4054 97.0805 24.3034V35.1414C97.0805 35.5794 97.1659 35.9403 97.3354 36.2171C97.5048 36.4939 97.7733 36.7019 98.1397 36.8383C98.4551 36.965 98.86 37.0586 99.36 37.1234C99.8586 37.1854 100.29 37.2308 100.656 37.2556V38.5144H90.7863V37.2556L91.6774 37.1798C91.9832 37.1523 92.249 37.1041 92.4735 37.0297C92.798 36.9353 93.0755 36.7231 93.2517 36.4347C93.4197 36.1524 93.5051 35.7833 93.5051 35.3343V23.8641C93.5051 23.4757 93.4128 23.0914 93.2282 22.7154C93.0437 22.3394 92.7875 22.0392 92.457 21.8119C92.1927 21.6531 91.9028 21.5417 91.6003 21.4827C91.2487 21.4106 90.8925 21.3632 90.5342 21.3409V20.082L96.812 19.6785L97.0805 19.9402V22.5446H97.1742C97.9551 21.524 98.8242 20.75 99.7814 20.2198C100.737 19.6922 101.613 19.4264 102.405 19.4264C103.199 19.4264 103.843 19.684 104.34 20.1977C104.84 20.7156 105.088 21.4056 105.088 22.2706ZM126.372 38.5158H120.774C119.795 37.0986 118.748 35.578 117.633 33.9611C116.522 32.3507 115.362 30.7752 114.154 29.2369L112.625 30.6693V35.0726C112.625 35.5243 112.706 35.8989 112.87 36.1937C113.034 36.4871 113.298 36.7019 113.663 36.8424C113.965 36.9691 114.256 37.06 114.531 37.1247C114.808 37.1867 115.13 37.2322 115.494 37.257V38.5158H106.329V37.257C106.614 37.2322 106.912 37.2032 107.222 37.1716C107.532 37.1399 107.793 37.0931 108.004 37.0311C108.351 36.9182 108.611 36.7184 108.785 36.4361C108.958 36.151 109.047 35.7819 109.047 35.3301V13.6955C109.049 13.2413 108.948 12.7925 108.752 12.3829C108.583 12.0079 108.316 11.685 107.981 11.4477C107.713 11.2466 107.297 11.1144 106.733 11.0511C106.168 10.9877 105.715 10.9436 105.371 10.9175V9.65998L112.355 9.25781L112.622 9.54154V29.2535C113.597 28.2756 114.651 27.2261 115.783 26.105C116.769 25.137 117.723 24.1375 118.645 23.108C118.744 22.995 118.853 22.849 118.973 22.6686C119.091 22.4868 119.15 22.3394 119.15 22.2279C119.15 21.8904 118.876 21.6411 118.331 21.4786C117.816 21.3222 117.29 21.2088 116.757 21.1398V19.8809H124.91V21.0392C123.938 21.3263 123.003 21.7305 122.128 22.243C121.322 22.7251 120.707 23.1575 120.284 23.5404C119.984 23.798 119.558 24.207 119.006 24.7717C118.455 25.335 117.684 26.0747 116.693 26.9878C117.889 28.4764 119.044 29.9961 120.16 31.5453C121.09 32.8317 122.027 34.1131 122.971 35.3893C123.522 36.129 124.015 36.6138 124.453 36.8396C124.891 37.0655 125.531 37.2032 126.372 37.2542V38.5158Z" fill="#A3A3A3"/>
<path fill-rule="evenodd" clip-rule="evenodd" d="M144.515 26.2066C145.082 26.8374 145.502 27.5275 145.773 28.2781C146.045 29.0287 146.18 29.9005 146.18 30.8991C146.18 33.2694 145.302 35.2252 143.549 36.7636C141.798 38.3021 139.621 39.072 137.023 39.072C135.826 39.072 134.627 38.8806 133.43 38.5018C132.23 38.123 131.197 37.6685 130.328 37.141L129.513 38.5183H128.001L127.75 29.3538H129.26C129.575 30.4859 129.945 31.5079 130.368 32.421C130.791 33.3342 131.35 34.1853 132.044 34.9759C132.689 35.7106 133.47 36.3127 134.345 36.7485C135.222 37.1892 136.241 37.4096 137.401 37.4096C138.273 37.4096 139.034 37.2967 139.682 37.0708C140.333 36.8421 140.858 36.5254 141.26 36.108C141.666 35.6935 141.965 35.2073 142.161 34.6495C142.355 34.0875 142.454 33.4443 142.454 32.7158C142.454 31.6456 142.15 30.6498 141.548 29.7256C140.943 28.8015 140.041 28.1018 138.844 27.6225C138.023 27.2947 137.085 26.9311 136.028 26.533C135.101 26.1895 134.187 25.8128 133.287 25.4037C131.774 24.7233 130.6 23.8294 129.762 22.7262C128.923 21.6216 128.506 20.1796 128.506 18.4001C128.506 17.3767 128.713 16.4237 129.127 15.5408C129.555 14.6413 130.159 13.8368 130.903 13.1746C131.631 12.5176 132.492 12.0039 133.488 11.632C134.484 11.2602 135.522 11.0742 136.603 11.0742C137.836 11.0742 138.941 11.2712 139.914 11.6665C140.891 12.0604 141.781 12.5094 142.585 13.0135L143.359 11.7298H144.868L145.021 20.6423H143.509C143.241 19.6467 142.929 18.6637 142.573 17.6963C142.241 16.7892 141.786 15.9323 141.22 15.1497C140.693 14.4279 140.016 13.8288 139.235 13.3936C138.453 12.9556 137.494 12.738 136.36 12.738C135.163 12.738 134.141 13.1209 133.295 13.8894C132.449 14.658 132.028 15.5945 132.028 16.7032C132.028 17.8602 132.296 18.8215 132.841 19.5818C133.385 20.3421 134.172 20.9701 135.208 21.4604C136.125 21.9026 137.032 22.2841 137.92 22.605C138.81 22.9273 139.671 23.2702 140.505 23.6366C141.256 23.9622 141.986 24.3353 142.69 24.7536C143.389 25.1654 143.998 25.6516 144.515 26.2066ZM161.915 35.3423C160.995 36.8545 159.747 37.6093 158.173 37.6093C157.216 37.6093 156.414 37.3807 155.763 36.9234C155.114 36.4689 154.577 35.8395 154.149 35.0406C153.72 34.2418 153.409 33.3328 153.212 32.3136C152.838 30.2799 152.821 28.1964 153.164 26.157C153.308 25.2487 153.596 24.3691 154.017 23.5512C154.445 22.7262 155.001 22.0775 155.69 21.6023C156.373 21.1271 157.202 20.8889 158.173 20.8889C159.118 20.8889 159.92 21.123 160.572 21.5927C161.229 22.0623 161.756 22.6821 162.159 23.4562C162.535 24.1834 162.82 25.0662 163.009 26.1088C163.198 27.1528 163.291 28.1417 163.291 29.0797C163.293 31.7434 162.833 33.83 161.915 35.3423ZM164.675 22.0541C162.979 20.3049 160.823 19.4303 158.212 19.4303C155.463 19.4303 153.238 20.3517 151.54 22.1959C149.843 24.0388 148.992 26.4091 148.992 29.3056C148.992 30.8109 149.235 32.1703 149.721 33.3782C150.208 34.5889 150.858 35.6136 151.679 36.4551C152.49 37.2921 153.463 37.9548 154.539 38.4026C155.612 38.8468 156.763 39.0734 157.925 39.0692C159.351 39.0692 160.64 38.8241 161.789 38.3351C162.937 37.8462 163.945 37.1011 164.817 36.097C165.587 35.2169 166.178 34.1495 166.598 32.8879C167.01 31.6472 167.221 30.3485 167.222 29.0411C167.223 26.1336 166.374 23.8032 164.675 22.0541ZM189.884 38.2153L183.762 38.6161L183.474 38.353V35.9937H183.361C183.06 36.3091 182.721 36.6452 182.345 37.0019C181.969 37.3586 181.535 37.6851 181.043 37.9757C180.479 38.3145 179.932 38.5651 179.406 38.7263C178.875 38.8874 178.13 38.9687 177.159 38.9687C175.516 38.9687 174.26 38.4302 173.401 37.3573C172.537 36.2816 172.107 34.7184 172.107 32.6662V23.7605C172.107 23.3074 172.022 22.9273 171.848 22.6201C171.662 22.2971 171.404 22.0222 171.092 21.8172C170.861 21.6657 170.573 21.5555 170.229 21.4866C169.884 21.4177 169.518 21.3695 169.137 21.3448V20.0859L175.396 19.6824L175.681 19.9454V32.8535C175.681 34.1991 175.983 35.2073 176.585 35.8849C177.187 36.5626 177.911 36.9041 178.75 36.9041C179.441 36.9041 180.054 36.7967 180.596 36.5846C181.134 36.3697 181.586 36.1191 181.948 35.8285C182.273 35.579 182.573 35.298 182.843 34.9897C183.071 34.739 183.269 34.4636 183.436 34.1688V23.6256C183.436 23.211 183.348 22.8433 183.173 22.5223C182.99 22.1969 182.738 21.9165 182.433 21.7015C182.204 21.5513 181.868 21.4604 181.419 21.4288C180.97 21.3971 180.47 21.3682 179.913 21.3434V20.0845L186.726 19.681L187.011 19.9454V34.7239C187.011 35.1522 187.099 35.5172 187.277 35.8188C187.455 36.1204 187.703 36.3808 188.019 36.5929C188.248 36.7333 188.519 36.8215 188.837 36.8669C189.153 36.9096 189.501 36.9399 189.884 36.951V38.2153ZM206.439 22.2717C206.439 22.9121 206.281 23.4796 205.968 23.9754C205.653 24.4712 205.172 24.7178 204.521 24.7178C203.818 24.7178 203.284 24.5332 202.912 24.1655C202.54 23.7963 202.358 23.39 202.358 22.9452C202.358 22.6642 202.38 22.4108 202.426 22.1821C202.469 21.9521 202.51 21.7235 202.547 21.4935C201.955 21.4935 201.258 21.7387 200.462 22.2262C199.666 22.7152 198.988 23.4066 198.43 24.3046V35.1426C198.43 35.5805 198.516 35.9414 198.687 36.2182C198.857 36.4951 199.124 36.703 199.491 36.8394C199.806 36.9661 200.211 37.0598 200.71 37.1245C201.21 37.1865 201.641 37.2319 202.006 37.2567V38.5156H192.136V37.2567L193.026 37.181C193.333 37.1534 193.599 37.1052 193.825 37.0308C194.148 36.9357 194.425 36.7236 194.601 36.4358C194.768 36.1535 194.855 35.7844 194.855 35.3354V23.8652C194.855 23.4768 194.764 23.0925 194.581 22.7165C194.406 22.3536 194.139 22.0423 193.808 21.813C193.566 21.6629 193.281 21.5541 192.95 21.4839C192.62 21.4136 192.264 21.3668 191.885 21.342V20.0831L198.165 19.6796L198.43 19.9413V22.5458H198.524C199.304 21.5252 200.173 20.7511 201.131 20.2209C202.088 19.6934 202.963 19.4275 203.756 19.4275C204.55 19.4275 205.193 19.6851 205.69 20.1988C206.189 20.7167 206.439 21.4067 206.439 22.2717ZM216.569 39.0706C213.866 39.0706 211.749 38.1781 210.221 36.389C208.694 34.6027 207.93 32.2034 207.93 29.194C207.93 27.8842 208.136 26.6598 208.548 25.5207C208.954 24.3861 209.561 23.3339 210.34 22.4149C211.111 21.5016 212.068 20.7642 213.148 20.2526C214.296 19.6995 215.557 19.4181 216.831 19.4303C218.666 19.4303 220.159 19.8683 221.31 20.7456C222.462 21.623 223.037 22.8171 223.037 24.3307C223.037 24.9615 222.887 25.5193 222.585 26.0055C222.281 26.4917 221.787 26.7328 221.095 26.7328C220.353 26.7328 219.78 26.5454 219.368 26.1694C218.959 25.7948 218.755 25.3747 218.755 24.9106C218.755 24.3473 218.834 23.7674 218.984 23.1724C219.134 22.5774 219.221 22.1422 219.247 21.8681C219.025 21.4848 218.661 21.2047 218.233 21.0886C217.76 20.954 217.27 20.8872 216.777 20.8902C216.177 20.8891 215.583 21.0213 215.039 21.2773C214.488 21.5362 213.953 22.01 213.433 22.7C212.965 23.3281 212.586 24.1765 212.296 25.2453C212.002 26.3127 211.858 27.5894 211.858 29.0714C211.858 31.4073 212.377 33.3176 213.418 34.7913C214.459 36.2678 215.823 37.0047 217.513 37.0047C218.737 37.0047 219.762 36.7086 220.587 36.1122C221.412 35.5158 222.176 34.6219 222.884 33.4306L224.095 34.2267C223.262 35.7141 222.161 36.8959 220.796 37.7636C219.431 38.634 218.022 39.0706 216.569 39.0706ZM229.267 27.0853C229.342 25.1392 229.815 23.6214 230.684 22.5292C231.556 21.437 232.648 20.8916 233.961 20.8916C234.748 20.8916 235.394 21.072 235.894 21.4356C236.394 21.7979 236.79 22.2648 237.077 22.8391C237.338 23.3763 237.529 24.0443 237.648 24.8417C237.766 25.6406 237.828 26.3884 237.828 27.0867H229.267V27.0853ZM240.748 33.3782C239.992 34.7473 239.209 35.6921 238.394 36.2169C237.582 36.7444 236.613 37.0047 235.492 37.0047C234.394 37.0047 233.451 36.7953 232.654 36.3725C231.856 35.9497 231.217 35.3739 230.725 34.6454C230.201 33.8442 229.825 32.9549 229.617 32.0202C229.374 30.9293 229.257 29.8143 229.267 28.6968H241.606V27.449C241.606 26.3265 241.463 25.2866 241.178 24.328C240.919 23.4172 240.479 22.568 239.884 21.8309C239.28 21.0872 238.491 20.5032 237.52 20.0735C236.549 19.6438 235.381 19.4303 234.02 19.4303C232.696 19.4303 231.502 19.7044 230.436 20.2526C229.401 20.7753 228.489 21.5124 227.76 22.4149C227.013 23.3539 226.44 24.4188 226.067 25.5593C225.685 26.707 225.49 27.9086 225.489 29.1182C225.489 30.4652 225.669 31.7434 226.03 32.9513C226.388 34.1619 226.934 35.2183 227.666 36.1232C228.416 37.0478 229.371 37.7852 230.455 38.2773C231.582 38.8076 232.897 39.0706 234.399 39.0706C236.098 39.0706 237.608 38.6271 238.917 37.747C240.23 36.8642 241.274 35.6783 242.056 34.1936L240.748 33.3782Z" fill="#999999"/>
<path fill-rule="evenodd" clip-rule="evenodd" d="M83.6432 4.8605H82.9876C82.9298 4.63324 82.8279 4.36604 82.6805 4.05478C82.5331 3.74351 82.3665 3.45014 82.1847 3.17193C82.0065 2.89701 81.7986 2.64252 81.5649 2.41303C81.3417 2.19679 81.1255 2.07146 80.9175 2.03979C80.7219 2.015 80.4768 1.99709 80.1807 1.98332C79.8846 1.96954 79.6105 1.96404 79.357 1.96404H78.8089V12.6739C78.8065 12.8725 78.8523 13.0686 78.9425 13.2455C79.0446 13.4306 79.2098 13.5728 79.408 13.6463C79.5223 13.6904 79.7606 13.7496 80.1256 13.8254C80.4906 13.9011 80.7729 13.941 80.9754 13.9479V14.6283H74.6301V13.9479C74.8064 13.9355 75.0764 13.9107 75.4386 13.8722C75.8009 13.835 76.0515 13.7868 76.1906 13.7303C76.3778 13.6652 76.5388 13.5409 76.6493 13.3763C76.7544 13.1878 76.8045 12.9735 76.7939 12.7579V1.96266H76.2471C76.0515 1.96266 75.8091 1.96678 75.5185 1.97642C75.2405 1.9847 74.9629 2.00492 74.6866 2.03702C74.4786 2.06319 74.2624 2.18715 74.0393 2.41028C73.809 2.64293 73.6015 2.89705 73.4195 3.16917C73.2308 3.4529 73.0642 3.75177 72.9182 4.06993C72.7722 4.38808 72.6716 4.64977 72.6152 4.85774H71.9609V1.2313H83.6432V4.8605ZM94.9605 14.6283H90.3782V13.9989L90.8603 13.9617C91.0366 13.9493 91.1812 13.9245 91.2941 13.886C91.457 13.8398 91.5969 13.7348 91.6866 13.5912C91.7782 13.423 91.822 13.233 91.8134 13.0417V8.27758C91.8134 7.62061 91.6605 7.11376 91.352 6.75704C91.0435 6.39894 90.6688 6.21989 90.2267 6.21989C89.903 6.21989 89.6028 6.27223 89.326 6.37552C89.0491 6.47882 88.8026 6.60554 88.5836 6.75566C88.3986 6.8872 88.2347 7.04602 88.0974 7.2267C88.0041 7.35357 87.9172 7.48504 87.8371 7.6206V12.948C87.8371 13.1615 87.8798 13.3378 87.9638 13.4755C88.0573 13.6211 88.1948 13.733 88.3563 13.795C88.4941 13.857 88.6373 13.9052 88.7861 13.9355C88.9348 13.9672 89.0973 13.9892 89.2722 14.0016V14.6311H84.69V13.9989C84.8318 13.9865 84.9806 13.9727 85.1362 13.9562C85.2918 13.941 85.4227 13.9163 85.5274 13.8846C85.6895 13.8369 85.8286 13.7316 85.9185 13.5885C86.0123 13.42 86.0576 13.2288 86.0494 13.0362V2.19955C86.0494 1.98469 85.9998 1.7712 85.9034 1.55772C85.8223 1.36536 85.6905 1.19871 85.5218 1.07567C85.4089 0.994409 85.2106 0.935187 84.9255 0.900754C84.696 0.8726 84.4659 0.849178 84.2355 0.830508V0.201081L87.7035 0L87.8371 0.143234V6.6689H87.8743C88.0809 6.4623 88.2682 6.27912 88.4376 6.11797C88.607 5.95683 88.8287 5.78879 89.1042 5.6125C89.6826 5.2569 90.3508 5.07434 91.0297 5.08637C91.8561 5.08637 92.491 5.34806 92.9359 5.87144C93.3794 6.39619 93.6025 7.14957 93.6025 8.13572V12.9632C93.6025 13.1835 93.641 13.3612 93.7195 13.4948C93.8119 13.6405 93.9499 13.7514 94.1121 13.8102C94.2567 13.868 94.3875 13.9094 94.5046 13.9383C94.6217 13.9658 94.7732 13.9865 94.9619 13.9989V14.6283H94.9605ZM98.3431 8.91252C98.3803 7.93877 98.6172 7.17987 99.0511 6.63446C99.4863 6.08905 100.033 5.81497 100.689 5.81497C101.084 5.81497 101.406 5.90587 101.656 6.08629C101.906 6.26672 102.103 6.50086 102.248 6.78734C102.379 7.05592 102.475 7.3906 102.534 7.78864C102.593 8.18805 102.624 8.56268 102.624 8.91114H98.3431V8.91252ZM104.084 12.061C103.705 12.7455 103.312 13.218 102.906 13.4797C102.5 13.7427 102.016 13.8736 101.454 13.8736C100.906 13.8736 100.433 13.7689 100.036 13.5582C99.6473 13.3549 99.3155 13.0582 99.0704 12.6946C98.8183 12.3172 98.6338 11.8792 98.5181 11.382C98.4024 10.8848 98.3431 10.3311 98.3431 9.71961H104.512V9.09569C104.512 8.53513 104.44 8.01452 104.299 7.53522C104.157 7.05591 103.941 6.64135 103.651 6.28738C103.348 5.91551 102.954 5.62352 102.468 5.40866C101.982 5.19381 101.399 5.08775 100.718 5.08775C100.057 5.08775 99.4588 5.2241 98.9257 5.49681C98.408 5.75834 97.952 6.12742 97.5884 6.57937C97.2165 7.0449 96.9328 7.56965 96.7413 8.15087C96.5485 8.73347 96.4535 9.32708 96.4535 9.93034C96.4535 10.6038 96.543 11.2429 96.7234 11.8489C96.9025 12.4522 97.1752 12.9811 97.5416 13.4342C97.9079 13.8873 98.3721 14.2468 98.9354 14.5112C99.5001 14.7757 100.157 14.9079 100.908 14.9079C101.76 14.9079 102.512 14.6875 103.168 14.2468C103.823 13.8061 104.347 13.2138 104.738 12.4701L104.084 12.061Z" fill="#A3A3A3"/>
<path fill-rule="evenodd" clip-rule="evenodd" d="M78.6673 44.6823L72.5356 55.2999H56.574L49.4465 42.9551L55.541 32.394L54.789 31.0897L48.6587 41.7045H32.6971L25.644 29.4893L31.9272 18.6031L31.1738 17.3001L25.0448 27.9136H9.0833L1.85385 15.3926L0 18.6031L7.98284 32.4298H23.6331L31.4934 46.043L26.042 55.4858H10.0791L2.85101 42.9634L0.997166 46.1753L8.98 59.9992H24.9429L32.8968 46.2235H47.561L47.5926 46.1642L55.4722 59.8133H71.4365L79.4193 45.9866L78.6673 44.6823Z" fill="#999999"/>
<path fill-rule="evenodd" clip-rule="evenodd" d="M94.2466 45.2691L93.7425 47.47H93.2577C93.2315 47.0183 93.1365 46.6381 92.9712 46.3324C92.8073 46.0225 92.5856 45.8476 92.3088 45.8076C92.1534 45.7864 91.9971 45.7731 91.8405 45.7677C91.6335 45.7595 91.4264 45.7558 91.2193 45.7567H89.7566L88.911 49.4093H89.9343C90.2497 49.4093 90.4948 49.3804 90.6711 49.3184C90.8495 49.2543 91.0098 49.148 91.1381 49.0085C91.2864 48.8525 91.4112 48.6757 91.5085 48.4837C91.6284 48.2606 91.7138 48.0719 91.7647 47.919H92.2495L91.4287 51.4615H90.9438C90.9438 51.416 90.9466 51.3595 90.9535 51.292C90.9604 51.2246 90.9631 51.1516 90.9631 51.0772C90.9631 50.9188 90.9521 50.7673 90.9301 50.6199C90.9187 50.5092 90.8889 50.4012 90.8419 50.3004C90.8037 50.2232 90.7501 50.1546 90.6845 50.0987C90.619 50.0429 90.5427 50.0009 90.4604 49.9754C90.2499 49.9164 90.0316 49.8899 89.8131 49.8968H88.7966L88.1521 52.6804C88.1022 52.884 88.0722 53.0921 88.0625 53.3015C88.0625 53.5357 88.1479 53.6941 88.316 53.7698C88.484 53.8483 88.8545 53.8855 89.4302 53.8855C90.145 53.8855 90.6298 53.8607 90.8846 53.807C91.1394 53.756 91.3295 53.6803 91.4535 53.5811C91.6959 53.3842 91.9796 53.0674 92.3046 52.6335C92.6297 52.1997 92.8487 51.8829 92.9588 51.6846H93.445L92.6572 54.3717H85.1055L85.2005 53.942C85.3341 53.9337 85.509 53.9144 85.7266 53.8883C85.9443 53.8621 86.093 53.8318 86.1687 53.8029C86.3054 53.7552 86.4248 53.6679 86.5117 53.5522C86.5929 53.4351 86.6487 53.3023 86.6756 53.1624L88.203 46.5638C88.2237 46.4865 88.2343 46.4069 88.2347 46.3269C88.236 46.2464 88.217 46.1668 88.1796 46.0955C88.1342 46.0189 88.0658 45.9586 87.984 45.9233C87.8462 45.855 87.6998 45.8054 87.5488 45.776C87.4031 45.742 87.2554 45.7167 87.1067 45.7002L87.2031 45.2705H94.2466V45.2691ZM105.647 53.6238L105.549 54.0466C105.236 54.1795 104.916 54.2936 104.59 54.3882C104.391 54.4447 104.185 54.4761 103.977 54.4819C103.63 54.4819 103.37 54.3937 103.196 54.2161C103.111 54.1287 103.044 54.0253 103 53.9117C102.955 53.7982 102.933 53.6769 102.936 53.555C102.936 53.4613 102.944 53.3552 102.962 53.2395C102.979 53.1266 103.008 52.9916 103.046 52.836L103.684 50.4285C103.732 50.2425 103.769 50.0759 103.798 49.9258C103.827 49.7756 103.84 49.6544 103.84 49.5622C103.84 49.2743 103.779 49.0457 103.656 48.879C103.534 48.7096 103.341 48.6256 103.076 48.6256C102.794 48.6256 102.519 48.6958 102.247 48.8322C101.977 48.9699 101.672 49.2275 101.33 49.6049L100.201 54.3717H99.0011L100.019 50.0594C100.04 49.9657 100.06 49.8652 100.079 49.7577C100.099 49.6531 100.108 49.5746 100.108 49.5236C100.108 49.244 100.04 49.0236 99.9032 48.8639C99.7668 48.7041 99.5644 48.6242 99.2999 48.6242C99.024 48.6317 98.7525 48.6959 98.5025 48.8129C98.2119 48.9369 97.8744 49.2165 97.4902 49.6462L96.3911 54.3703H95.1859L96.1487 50.2095C96.1831 50.0594 96.2162 49.8996 96.2478 49.7274C96.2795 49.5553 96.296 49.412 96.296 49.2922C96.296 49.0443 96.2561 48.8804 96.1735 48.8005C96.0922 48.722 95.9324 48.6821 95.6942 48.6821C95.5991 48.6821 95.4766 48.7013 95.3264 48.7385C95.1763 48.7757 95.062 48.8088 94.9793 48.8294L95.0758 48.4094C95.4132 48.2565 95.7121 48.1408 95.971 48.065C96.1882 47.9986 96.4133 47.9616 96.6404 47.9548C96.9861 47.9548 97.2326 48.0457 97.3772 48.2317C97.5218 48.4176 97.6004 48.6697 97.6072 48.9933H97.6458C98.1485 48.5925 98.5603 48.3074 98.884 48.1353C99.2063 47.9659 99.5919 47.8791 100.038 47.8791C100.417 47.8791 100.724 47.9893 100.961 48.2096C101.196 48.43 101.33 48.7069 101.359 49.0429H101.385C101.84 48.6614 102.245 48.3708 102.599 48.1738C102.979 47.9688 103.406 47.8667 103.838 47.8777C104.246 47.8777 104.558 47.9962 104.777 48.2331C104.996 48.47 105.105 48.7812 105.105 49.1669C105.105 49.2454 105.094 49.3817 105.071 49.5787C105.047 49.7756 105.01 49.9685 104.959 50.1627L104.418 52.2203C104.379 52.3581 104.342 52.5137 104.309 52.6941C104.28 52.8296 104.262 52.9674 104.257 53.106C104.257 53.3511 104.309 53.5178 104.411 53.6032C104.514 53.6913 104.689 53.7354 104.934 53.7354C105.176 53.7278 105.415 53.6903 105.647 53.6238ZM110.984 53.8125C110.704 54.0066 110.372 54.1109 110.032 54.1114C109.719 54.1179 109.416 54.0034 109.186 53.7918C108.952 53.577 108.82 53.3484 108.79 53.1004L109.621 49.4313C109.964 49.1008 110.252 48.8749 110.491 48.7537C110.727 48.6325 110.945 48.5705 111.142 48.5705C111.406 48.5705 111.621 48.6187 111.784 48.711C111.946 48.8039 112.079 48.9397 112.169 49.1035C112.259 49.2536 112.324 49.4451 112.365 49.6737C112.405 49.9051 112.426 50.1365 112.426 50.3651C112.426 50.8678 112.366 51.3471 112.248 51.7989C112.141 52.2237 111.971 52.63 111.742 53.004C111.551 53.325 111.292 53.6007 110.984 53.8125ZM113.19 48.5485C112.831 48.105 112.326 47.8818 111.678 47.8818C111.332 47.8866 110.993 47.977 110.69 48.1449C110.36 48.3226 110.05 48.5457 109.761 48.817H109.71C109.685 48.5788 109.583 48.3555 109.418 48.1821C109.262 48.032 109.033 47.9562 108.73 47.9562C108.546 47.9562 108.321 47.9962 108.057 48.0774C107.754 48.1763 107.458 48.2931 107.17 48.4273L107.072 48.8501L107.415 48.7592C107.561 48.722 107.682 48.7027 107.777 48.7027C108.027 48.7027 108.189 48.7427 108.265 48.8239C108.339 48.9079 108.378 49.0663 108.378 49.306C108.378 49.4272 108.363 49.569 108.332 49.7343C108.302 49.901 108.27 50.0621 108.236 50.226L106.887 56.136C106.853 56.2889 106.797 56.4184 106.717 56.523C106.637 56.6277 106.532 56.7007 106.4 56.7379C106.292 56.7668 106.18 56.7889 106.06 56.8026C105.94 56.8164 105.812 56.8247 105.675 56.8343L105.586 57.2241H109.131L109.221 56.8343C109.113 56.8233 108.993 56.8123 108.861 56.7944C108.739 56.7811 108.619 56.7557 108.502 56.7186C108.394 56.6897 108.301 56.6374 108.215 56.5712C108.13 56.5051 108.09 56.4101 108.09 56.2944C108.09 56.2407 108.097 56.1649 108.113 56.0713C108.13 55.9776 108.149 55.8743 108.174 55.7696L108.551 54.088C108.734 54.2229 108.945 54.3331 109.179 54.4213C109.413 54.5122 109.715 54.559 110.083 54.559C110.54 54.559 110.985 54.4571 111.419 54.2546C111.881 54.0312 112.292 53.7152 112.627 53.3263C112.96 52.9476 113.227 52.4999 113.428 51.9834C113.629 51.467 113.73 50.9216 113.73 50.3458C113.731 49.5925 113.551 48.9947 113.19 48.5485ZM118.564 44.5447L116.782 52.241C116.744 52.4021 116.707 52.5637 116.673 52.7258C116.643 52.8565 116.626 52.9898 116.622 53.1239C116.622 53.3663 116.676 53.5329 116.783 53.6211C116.891 53.7092 117.064 53.756 117.304 53.756C117.388 53.756 117.512 53.745 117.679 53.7244C117.806 53.7102 117.932 53.6829 118.053 53.6431L117.958 54.0659C117.667 54.1893 117.372 54.3023 117.073 54.4047C116.846 54.4721 116.61 54.5046 116.373 54.5012C116.031 54.5012 115.772 54.413 115.596 54.2353C115.509 54.1498 115.441 54.0474 115.395 53.9344C115.349 53.8214 115.327 53.7002 115.33 53.5784C115.33 53.482 115.34 53.3787 115.359 53.2712C115.379 53.1638 115.405 53.0288 115.439 52.8677L116.996 46.1244C117.024 45.9894 117.046 45.9013 117.056 45.8476C117.068 45.7845 117.074 45.7204 117.073 45.6561C117.079 45.5329 117.053 45.4102 116.996 45.3008C116.944 45.2167 116.868 45.1507 116.778 45.1121C116.688 45.0722 116.575 45.0474 116.438 45.0336C116.3 45.0198 116.162 45.006 116.022 44.9881L116.111 44.5984L118.5 44.4482L118.564 44.5447ZM124.178 51.5937C124.092 52.024 123.949 52.4408 123.753 52.8332C123.569 53.2051 123.33 53.5081 123.035 53.7478C122.752 53.9856 122.394 54.1145 122.024 54.1114C121.594 54.1114 121.275 53.953 121.063 53.6348C120.851 53.3194 120.746 52.8553 120.746 52.241C120.746 51.854 120.786 51.4312 120.867 50.9739C120.948 50.5166 121.076 50.0993 121.251 49.7261C121.479 49.2344 121.749 48.8763 122.064 48.6559C122.356 48.445 122.707 48.3304 123.068 48.3281C123.474 48.3281 123.786 48.481 124.002 48.7854C124.219 49.0925 124.327 49.5498 124.327 50.1599C124.327 50.6417 124.277 51.1222 124.178 51.5937ZM124.988 48.5774C124.558 48.1119 123.963 47.8805 123.202 47.8805C122.651 47.8805 122.14 47.9962 121.666 48.2248C121.194 48.4534 120.798 48.7551 120.477 49.1256C119.799 49.9355 119.431 50.9602 119.439 52.0165C119.439 52.7933 119.661 53.4103 120.101 53.8676C120.545 54.3276 121.121 54.5563 121.828 54.5563C122.44 54.5563 122.977 54.4378 123.44 54.1982C123.905 53.9613 124.301 53.6472 124.629 53.2506C124.954 52.8691 125.201 52.4242 125.374 51.9187C125.541 51.4311 125.628 50.9193 125.63 50.4037C125.631 49.6503 125.415 49.0429 124.988 48.5774ZM131.186 53.4282H131.149C130.805 53.7244 130.432 53.9838 130.034 54.2023C129.663 54.393 129.25 54.489 128.832 54.4819C128.426 54.4819 128.103 54.3634 127.867 54.1293C127.627 53.8924 127.508 53.5839 127.508 53.201C127.508 53.0991 127.519 52.9779 127.536 52.8374C127.553 52.6969 127.592 52.4875 127.657 52.2135L128.152 50.2233C128.2 50.0318 128.236 49.8652 128.262 49.7233C128.287 49.5801 128.299 49.4437 128.299 49.3115C128.299 49.0746 128.259 48.9162 128.181 48.8377C128.102 48.7564 127.941 48.7193 127.699 48.7193C127.605 48.7193 127.486 48.7385 127.343 48.7757C127.199 48.8129 127.084 48.846 127.004 48.8666L127.101 48.4438C127.437 48.2881 127.73 48.1697 127.986 48.0912C128.243 48.0127 128.446 47.9728 128.602 47.9728C128.944 47.9728 129.2 48.0485 129.364 48.2014C129.528 48.357 129.612 48.5856 129.612 48.8955C129.607 49.1358 129.572 49.3746 129.508 49.6062L128.927 51.9463C128.886 52.1126 128.85 52.2803 128.82 52.449C128.793 52.5657 128.778 52.6847 128.774 52.8043C128.774 53.0922 128.842 53.3181 128.978 53.4847C129.114 53.6514 129.317 53.7354 129.583 53.7354C129.89 53.7354 130.187 53.6569 130.481 53.5012C130.789 53.3322 131.067 53.114 131.304 52.8553L132.365 48.0664L133.491 47.9907L133.57 48.0843L132.464 53.1115C132.3 53.8483 132.092 54.4777 131.843 54.9997C131.625 55.4706 131.325 55.8988 130.957 56.2641C130.629 56.5836 130.239 56.8326 129.811 56.9954C129.36 57.1516 128.884 57.2271 128.406 57.2186C128.043 57.2186 127.755 57.1938 127.543 57.1428C127.363 57.1039 127.191 57.032 127.037 56.9307C126.913 56.8453 126.831 56.7475 126.787 56.6401C126.743 56.5327 126.722 56.4252 126.722 56.3178C126.722 56.1319 126.778 55.9707 126.889 55.8289C126.999 55.687 127.157 55.6168 127.368 55.6168C127.514 55.6129 127.656 55.6619 127.769 55.7545C127.879 55.8427 127.97 55.9432 128.037 56.0506C128.113 56.1663 128.182 56.2985 128.247 56.4432L128.4 56.793H128.552C128.795 56.793 129.052 56.7338 129.322 56.6126C129.592 56.4914 129.839 56.3027 130.065 56.0506C130.307 55.7765 130.527 55.4212 130.719 54.986C130.937 54.4876 131.094 53.9645 131.186 53.4282ZM139.006 50.0979C138.816 50.4085 138.539 50.6573 138.21 50.8141C137.959 50.9436 137.648 51.0483 137.268 51.1295C136.888 51.2108 136.55 51.2728 136.249 51.3155C136.364 50.4657 136.641 49.755 137.078 49.1848C137.515 48.6146 137.99 48.3295 138.509 48.3295C138.597 48.3295 138.687 48.3377 138.772 48.3487C138.857 48.3625 138.939 48.3942 139.017 48.4479C139.097 48.5007 139.159 48.5753 139.198 48.6628C139.252 48.7883 139.276 48.9243 139.271 49.0608C139.269 49.4602 139.181 49.8073 139.006 50.0979ZM139.998 48.2579C139.699 48.0072 139.242 47.8818 138.626 47.8818C138.07 47.8818 137.561 48.003 137.101 48.2482C136.641 48.4934 136.254 48.8157 135.936 49.2137C135.613 49.6178 135.362 50.0744 135.194 50.5635C135.025 51.0616 134.939 51.5842 134.94 52.1102C134.94 52.8925 135.14 53.4957 135.544 53.9199C135.942 54.3455 136.523 54.5576 137.279 54.5576C137.833 54.5576 138.366 54.402 138.879 54.0866C139.396 53.7708 139.835 53.3424 140.163 52.8332L139.797 52.5619C139.533 52.9371 139.205 53.263 138.828 53.5247C138.498 53.7395 138.121 53.8469 137.691 53.8469C137.206 53.8469 136.838 53.6693 136.588 53.3112C136.334 52.9531 136.212 52.4366 136.212 51.759C136.703 51.6997 137.154 51.6212 137.561 51.5331C137.968 51.4422 138.371 51.3265 138.769 51.1777C139.315 50.9835 139.729 50.7232 140.014 50.3982C140.299 50.0704 140.444 49.6806 140.444 49.222C140.448 49.0379 140.41 48.8553 140.333 48.6881C140.255 48.521 140.141 48.3738 139.998 48.2579ZM147.375 48.9217C147.375 49.0402 147.358 49.1724 147.324 49.3142C147.289 49.4561 147.24 49.5732 147.179 49.6668C147.101 49.7825 147.018 49.8707 146.926 49.9326C146.833 49.9946 146.703 50.0236 146.533 50.0236C146.304 50.0236 146.132 49.9671 146.017 49.8514C145.964 49.8021 145.921 49.7427 145.892 49.6767C145.862 49.6107 145.846 49.5394 145.844 49.4671C145.844 49.3349 145.876 49.1875 145.941 49.0236C146.006 48.8597 146.073 48.6958 146.141 48.5347C146.055 48.5401 145.97 48.5534 145.887 48.5746C145.771 48.6036 145.628 48.6586 145.464 48.7413C145.3 48.8239 145.112 48.9451 144.902 49.1132C144.659 49.31 144.434 49.53 144.233 49.7701L143.189 54.3731H141.984L142.929 50.2191C142.951 50.1172 142.98 49.9629 143.02 49.7591C143.06 49.5553 143.082 49.401 143.082 49.3046C143.082 49.0649 143.042 48.9038 142.958 48.8225C142.876 48.7413 142.712 48.7013 142.466 48.7013C142.372 48.7013 142.251 48.7206 142.105 48.7578C141.99 48.7867 141.875 48.817 141.761 48.8487L141.857 48.419C142.196 48.2634 142.492 48.1449 142.752 48.0692C142.968 48.0007 143.193 47.9627 143.419 47.9562C143.763 47.9562 144.011 48.0471 144.156 48.2358C144.303 48.4218 144.376 48.7013 144.376 49.0718H144.416C144.919 48.6311 145.302 48.3212 145.562 48.1435C145.736 48.021 145.935 47.9385 146.145 47.9018C146.355 47.8652 146.57 47.8753 146.776 47.9314C146.897 47.9621 147.008 48.0221 147.1 48.1062C147.193 48.1903 147.263 48.2958 147.304 48.4135C147.353 48.5319 147.375 48.6986 147.375 48.9217ZM154.753 54.5576C154.225 54.5576 153.768 54.4901 153.373 54.3607C153.034 54.2539 152.712 54.1 152.416 53.9034L152.052 54.3717H151.53L152.162 51.2562H152.684C152.706 51.6281 152.757 51.9738 152.834 52.2975C152.911 52.6211 153.041 52.9131 153.219 53.1721C153.399 53.4406 153.63 53.6486 153.915 53.796C154.198 53.9433 154.55 54.0164 154.973 54.0164C155.605 54.0164 156.111 53.8414 156.495 53.4888C156.877 53.139 157.068 52.657 157.068 52.0496C157.068 51.719 156.987 51.4256 156.826 51.1695C156.649 50.9006 156.395 50.692 156.097 50.5717C155.787 50.4367 155.487 50.3183 155.185 50.2136C154.884 50.1089 154.588 49.985 154.3 49.8445C153.925 49.6677 153.604 49.3937 153.371 49.0512C153.137 48.707 153.014 48.2994 153.019 47.8832C153.019 47.4714 153.11 47.0927 153.293 46.7456C153.473 46.3985 153.713 46.0996 154.01 45.8476C154.301 45.6024 154.654 45.4068 155.065 45.2608C155.477 45.1149 155.886 45.0432 156.293 45.0432C156.671 45.0432 157.032 45.0887 157.371 45.1837C157.71 45.2746 158.051 45.4495 158.393 45.7057L158.746 45.2677H159.268L158.613 48.2882H158.091C158.077 47.9469 158.044 47.6066 157.992 47.269C157.955 46.9639 157.864 46.6679 157.724 46.3944C157.587 46.1458 157.384 45.9399 157.137 45.7994C156.884 45.6561 156.55 45.5845 156.133 45.5845C155.633 45.5845 155.21 45.7594 154.871 46.1038C154.708 46.2647 154.578 46.4568 154.49 46.6689C154.403 46.8809 154.358 47.1084 154.36 47.3378C154.36 47.6546 154.425 47.9245 154.552 48.1449C154.676 48.3653 154.871 48.5457 155.136 48.6807C155.418 48.8253 155.711 48.952 156.021 49.0567C156.331 49.1614 156.608 49.2715 156.85 49.3872C157.339 49.6186 157.722 49.8982 157.999 50.2233C158.277 50.5581 158.423 50.9825 158.411 51.4174C158.411 51.8719 158.312 52.2975 158.118 52.69C157.928 53.0724 157.66 53.41 157.33 53.6803C156.984 53.9642 156.59 54.1839 156.167 54.329C155.74 54.4819 155.267 54.5576 154.753 54.5576ZM163.999 50.0979C163.824 50.3913 163.558 50.6309 163.2 50.8141C162.952 50.9436 162.638 51.0483 162.258 51.1295C161.882 51.2108 161.54 51.2728 161.239 51.3155C161.354 50.4657 161.631 49.755 162.068 49.1848C162.506 48.6146 162.982 48.3295 163.499 48.3295C163.587 48.3295 163.676 48.3377 163.762 48.3487C163.847 48.3625 163.928 48.3942 164.007 48.4479C164.087 48.4999 164.15 48.5747 164.187 48.6628C164.241 48.7883 164.266 48.9243 164.26 49.0608C164.26 49.4602 164.171 49.8073 163.999 50.0979ZM164.989 48.2579C164.69 48.0072 164.233 47.8818 163.617 47.8818C163.061 47.8818 162.552 48.003 162.092 48.2482C161.632 48.4934 161.245 48.8157 160.927 49.2137C160.604 49.6173 160.354 50.074 160.188 50.5635C160.018 51.0551 159.931 51.5689 159.931 52.1102C159.931 52.8925 160.133 53.4957 160.535 53.9199C160.937 54.3441 161.514 54.5576 162.273 54.5576C162.824 54.5576 163.357 54.402 163.871 54.0866C164.384 53.7739 164.813 53.3552 165.157 52.8332L164.788 52.5619C164.471 52.9903 164.147 53.3098 163.82 53.5247C163.492 53.7395 163.112 53.8469 162.682 53.8469C162.197 53.8469 161.829 53.6693 161.579 53.3112C161.325 52.9531 161.203 52.4366 161.203 51.759C161.694 51.6997 162.148 51.6212 162.552 51.5331C162.964 51.4425 163.368 51.3238 163.763 51.1777C164.307 50.9835 164.723 50.7232 165.008 50.3982C165.293 50.0704 165.437 49.6806 165.437 49.222C165.44 49.0379 165.401 48.8554 165.324 48.6884C165.246 48.5214 165.132 48.3742 164.989 48.2579ZM172.364 48.9217C172.364 49.0402 172.348 49.1724 172.313 49.3142C172.287 49.4395 172.238 49.5589 172.169 49.6668C172.09 49.7825 172.008 49.8707 171.915 49.9326C171.823 49.9946 171.695 50.0236 171.526 50.0236C171.294 50.0236 171.122 49.9671 171.009 49.8514C170.956 49.8025 170.913 49.7432 170.883 49.6771C170.854 49.611 170.838 49.5396 170.837 49.4671C170.837 49.3349 170.869 49.1875 170.931 49.0236C170.995 48.8597 171.063 48.6958 171.13 48.5347C171.045 48.5401 170.96 48.5534 170.877 48.5746C170.761 48.6036 170.618 48.6586 170.454 48.7413C170.29 48.8239 170.101 48.9451 169.895 49.1132C169.651 49.31 169.427 49.53 169.226 49.7701L168.179 54.3731H166.976L167.918 50.2191C167.94 50.1172 167.969 49.9629 168.009 49.7591C168.049 49.5553 168.071 49.401 168.071 49.3046C168.071 49.0649 168.031 48.9038 167.947 48.8225C167.866 48.7413 167.702 48.7013 167.458 48.7013C167.362 48.7013 167.244 48.7206 167.095 48.7578C166.946 48.795 166.835 48.8253 166.751 48.8487L166.847 48.419C167.186 48.2634 167.482 48.1449 167.742 48.0692C167.958 48.0007 168.182 47.9627 168.409 47.9562C168.753 47.9562 169.001 48.0471 169.146 48.2358C169.293 48.4218 169.366 48.7013 169.366 49.0718H169.403C169.909 48.6311 170.292 48.3212 170.552 48.1435C170.726 48.0214 170.925 47.9391 171.135 47.9024C171.345 47.8657 171.56 47.8757 171.765 47.9314C171.887 47.9617 171.999 48.0215 172.092 48.1056C172.184 48.1898 172.255 48.2955 172.297 48.4135C172.344 48.5319 172.364 48.6986 172.364 48.9217ZM179.518 49.0705C179.518 49.7219 179.419 50.383 179.222 51.0524C179.022 51.7218 178.754 52.3085 178.412 52.8085C178.086 53.3059 177.666 53.7346 177.175 54.0701C176.696 54.3951 176.17 54.5576 175.597 54.5576C175.035 54.5576 174.589 54.402 174.254 54.0921C173.919 53.7822 173.754 53.369 173.754 52.847C173.754 52.7506 173.765 52.6377 173.789 52.5137L173.837 52.263L174.396 50.2136C174.436 50.047 174.477 49.8858 174.506 49.7247C174.535 49.5865 174.552 49.4458 174.554 49.3046C174.554 49.0649 174.514 48.9066 174.43 48.8225C174.346 48.7413 174.182 48.7013 173.941 48.7013C173.853 48.7013 173.729 48.7206 173.575 48.7606C173.46 48.7884 173.345 48.8178 173.231 48.8487L173.327 48.4314C173.66 48.2785 173.959 48.1628 174.217 48.0788C174.477 47.9948 174.685 47.9548 174.838 47.9548C175.182 47.9548 175.436 48.0333 175.602 48.1917C175.766 48.3501 175.85 48.5788 175.85 48.8776C175.846 49.1188 175.811 49.3585 175.747 49.5911L175.129 51.9876C175.061 52.2348 175.018 52.4881 175.001 52.7437C175.001 52.9668 175.035 53.1473 175.105 53.2878C175.178 53.4282 175.266 53.5357 175.371 53.6128C175.476 53.6858 175.586 53.7368 175.707 53.7657C175.831 53.7946 175.955 53.8111 176.083 53.8111C176.374 53.8111 176.675 53.7175 176.984 53.5343C177.297 53.3511 177.565 53.1087 177.796 52.814C178.05 52.4944 178.251 52.1363 178.404 51.7383C178.559 51.343 178.638 50.905 178.638 50.4257C178.638 50.1668 178.601 49.9712 178.528 49.8307C178.464 49.7001 178.385 49.5779 178.291 49.4671C178.206 49.3595 178.127 49.2473 178.054 49.1311C177.973 48.9773 177.936 48.8044 177.947 48.6311C177.947 48.3887 178.028 48.2014 178.192 48.0747C178.335 47.952 178.517 47.8833 178.705 47.8805C178.959 47.8805 179.154 47.9824 179.298 48.1849C179.445 48.3887 179.518 48.6848 179.518 49.0705ZM184 53.6431L183.903 54.0659C183.596 54.1985 183.282 54.3125 182.961 54.4075C182.727 54.4695 182.526 54.5012 182.358 54.5012C182.017 54.5012 181.758 54.413 181.588 54.2353C181.504 54.1486 181.437 54.0457 181.393 53.9329C181.349 53.82 181.328 53.6995 181.332 53.5784C181.332 53.4792 181.34 53.3773 181.357 53.2685C181.373 53.1638 181.402 53.0288 181.441 52.8649L182.118 50.1392C182.153 49.9891 182.186 49.8294 182.218 49.6572C182.249 49.4878 182.266 49.3404 182.266 49.222C182.266 48.9823 182.226 48.8239 182.147 48.7427C182.069 48.6642 181.908 48.6242 181.665 48.6242C181.574 48.6242 181.448 48.6435 181.292 48.6807C181.173 48.7068 181.056 48.738 180.939 48.7743L181.036 48.3446C181.369 48.1862 181.671 48.0705 181.934 47.9948C182.2 47.9163 182.41 47.8791 182.566 47.8791C182.916 47.8791 183.171 47.9631 183.33 48.1298C183.49 48.2964 183.567 48.5195 183.567 48.8019C183.559 49.0418 183.524 49.2801 183.464 49.5126L182.784 52.2355C182.741 52.3983 182.704 52.5623 182.671 52.7272C182.644 52.8565 182.629 52.9878 182.625 53.1197C182.625 53.3649 182.679 53.5288 182.786 53.6197C182.894 53.7078 183.066 53.7547 183.308 53.7547C183.543 53.7473 183.775 53.7098 184 53.6431ZM184.449 45.4578C184.451 45.6936 184.366 45.922 184.209 46.0982C184.136 46.1846 184.045 46.2537 183.942 46.3006C183.839 46.3475 183.727 46.3711 183.614 46.3696C183.506 46.3703 183.399 46.3474 183.3 46.3024C183.202 46.2575 183.114 46.1915 183.044 46.1093C182.891 45.9502 182.805 45.738 182.804 45.517C182.804 45.2801 182.886 45.0763 183.044 44.8986C183.114 44.8163 183.202 44.7504 183.3 44.7055C183.399 44.6605 183.506 44.6376 183.614 44.6383C183.726 44.6344 183.838 44.6545 183.941 44.6972C184.045 44.74 184.138 44.8044 184.215 44.8862C184.29 44.9612 184.349 45.0503 184.389 45.1485C184.429 45.2466 184.45 45.3518 184.449 45.4578ZM187.785 54.5576C187.037 54.5576 186.445 54.34 186.012 53.9007C185.577 53.4627 185.358 52.8401 185.358 52.0344C185.358 51.4959 185.442 50.9822 185.606 50.4932C185.77 50.0015 186.001 49.5622 186.294 49.1806C186.591 48.8019 186.961 48.4865 187.413 48.2441C187.876 47.9984 188.393 47.8734 188.917 47.8805C189.527 47.8805 189.99 48.0099 190.311 48.2675C190.627 48.5278 190.787 48.8542 190.787 49.2495C190.787 49.5456 190.717 49.8032 190.578 50.0263C190.514 50.1334 190.422 50.2211 190.312 50.2798C190.202 50.3385 190.078 50.3661 189.954 50.3596C189.723 50.3596 189.548 50.3031 189.432 50.1847C189.378 50.1359 189.335 50.0767 189.305 50.0106C189.275 49.9445 189.258 49.873 189.257 49.8004C189.257 49.6627 189.302 49.4754 189.395 49.2385L189.612 48.6628C189.567 48.5471 189.462 48.4617 189.3 48.4066C189.137 48.3515 188.969 48.3253 188.794 48.3253C188.216 48.3253 187.716 48.6669 187.296 49.3473C186.876 50.0304 186.666 50.8651 186.666 51.854C186.666 52.4641 186.804 52.9489 187.075 53.307C187.201 53.4803 187.367 53.62 187.56 53.7139C187.752 53.8078 187.965 53.853 188.179 53.8456C188.593 53.8456 188.964 53.7354 189.287 53.5095C189.648 53.2474 189.963 52.9267 190.218 52.5605L190.585 52.8319C190.273 53.3157 189.863 53.729 189.382 54.0453C188.914 54.3731 188.357 54.5517 187.785 54.5576ZM195.933 50.0979C195.758 50.3913 195.492 50.6309 195.137 50.8141C194.886 50.9436 194.572 51.0483 194.192 51.1295C193.816 51.2108 193.474 51.2728 193.173 51.3155C193.291 50.4657 193.565 49.755 194.005 49.1848C194.44 48.6146 194.916 48.3295 195.433 48.3295C195.524 48.3295 195.61 48.3377 195.696 48.3487C195.785 48.363 195.87 48.3968 195.944 48.4479C196.023 48.5015 196.085 48.5758 196.124 48.6628C196.17 48.7592 196.194 48.8942 196.194 49.0608C196.193 49.4602 196.108 49.8073 195.933 50.0979ZM196.922 48.2579C196.626 48.0072 196.168 47.8818 195.55 47.8818C194.993 47.8818 194.488 48.003 194.028 48.2482C193.568 48.4934 193.178 48.8157 192.86 49.2137C192.535 49.6228 192.29 50.0718 192.12 50.5635C191.951 51.0551 191.867 51.5689 191.867 52.1102C191.867 52.8925 192.067 53.4957 192.467 53.9199C192.868 54.3441 193.447 54.5576 194.206 54.5576C194.757 54.5576 195.29 54.402 195.803 54.0866C196.317 53.7739 196.748 53.3552 197.09 52.8332L196.721 52.5619C196.404 52.9903 196.08 53.3098 195.752 53.5247C195.425 53.7395 195.044 53.8469 194.617 53.8469C194.13 53.8469 193.762 53.6693 193.511 53.3112C193.261 52.9531 193.135 52.4366 193.135 51.759C193.63 51.6997 194.08 51.6212 194.485 51.5331C194.894 51.4422 195.298 51.3265 195.696 51.1777C196.241 50.9835 196.656 50.7232 196.941 50.3982C197.226 50.0704 197.369 49.6806 197.369 49.222C197.373 49.0378 197.334 48.8553 197.257 48.6882C197.179 48.5212 197.065 48.374 196.922 48.2579ZM200.514 54.5576C199.879 54.5576 199.348 54.4447 198.927 54.2216C198.506 53.9984 198.295 53.7051 198.295 53.3415C198.295 53.1693 198.357 53.0109 198.484 52.8594C198.538 52.7898 198.607 52.7336 198.686 52.6949C198.766 52.6562 198.853 52.6362 198.941 52.6363C199.113 52.6363 199.253 52.6762 199.358 52.7547C199.459 52.8306 199.544 52.9256 199.609 53.0343C199.674 53.1473 199.73 53.2795 199.778 53.4324C199.829 53.588 199.869 53.7147 199.905 53.8111C199.981 53.8956 200.072 53.9648 200.173 54.015C200.327 54.0857 200.496 54.1179 200.665 54.1086C201.131 54.1086 201.483 53.9902 201.723 53.7588C201.963 53.5246 202.081 53.2106 202.081 52.8112C202.085 52.6764 202.057 52.5426 201.999 52.4209C201.941 52.2991 201.855 52.1931 201.748 52.1115C201.522 51.9394 201.191 51.7782 200.746 51.6322C200.588 51.5813 200.399 51.5028 200.184 51.3981C199.97 51.2934 199.797 51.1805 199.671 51.0593C199.515 50.9233 199.388 50.7575 199.298 50.5717C199.197 50.3632 199.148 50.1337 199.154 49.9024C199.154 49.3542 199.399 48.8804 199.888 48.4796C200.377 48.076 200.981 47.8763 201.694 47.8763C201.861 47.8763 202.041 47.8846 202.233 47.9011C202.427 47.9204 202.639 47.9659 202.87 48.0444C203.061 48.1053 203.236 48.2084 203.381 48.346C203.452 48.413 203.507 48.4942 203.543 48.5842C203.58 48.6742 203.597 48.7709 203.593 48.868C203.593 49.0429 203.534 49.1985 203.416 49.3418C203.297 49.485 203.144 49.5567 202.95 49.5567C202.812 49.562 202.676 49.5266 202.558 49.4547C202.453 49.3827 202.365 49.2881 202.301 49.1779C202.231 49.0622 202.175 48.9382 202.132 48.806C202.089 48.6738 202.044 48.543 201.992 48.4162C201.92 48.3855 201.847 48.3611 201.771 48.3432C201.686 48.3296 201.601 48.3231 201.515 48.324C201.095 48.324 200.775 48.4369 200.56 48.6655C200.455 48.7716 200.372 48.8977 200.316 49.0363C200.261 49.1749 200.233 49.3232 200.235 49.4726C200.235 49.7743 200.332 50.0001 200.529 50.1503C200.723 50.3031 201.045 50.4602 201.497 50.6241C202.081 50.8334 202.502 51.0731 202.77 51.3444C203.03 51.613 203.165 51.949 203.165 52.3484C203.165 52.9999 202.912 53.5288 202.412 53.9406C201.908 54.3538 201.275 54.5576 200.514 54.5576Z" fill="#A3A3A3"/>
</svg>
