<svg width="210" height="91" viewBox="0 0 210 91" fill="none" xmlns="http://www.w3.org/2000/svg">
<path fill-rule="evenodd" clip-rule="evenodd" d="M66.6869 29.7451V31.3971L65.2545 32.2793L63.7122 31.3971V29.7451L65.2545 28.8629L66.6869 29.7451ZM66.6869 21.1529V22.805L65.2545 23.6872L63.7122 22.805V21.1529L65.2545 20.272L66.6869 21.1529ZM66.6869 12.5608V14.2128L65.2545 15.095L63.7122 14.2128V12.5608L65.2545 11.6786L66.6869 12.5608ZM52.6969 37.7857V40.5395L50.2737 41.9707L47.9604 40.5395V37.7857L50.2737 36.4643L52.6969 37.7857ZM52.6969 29.1935V31.9474L50.2737 33.3798L47.9604 31.9474V29.1935L50.2737 27.8722L52.6969 29.1935ZM52.6969 20.6014V23.3552L50.2737 24.7877L47.9604 23.3552V20.6014L50.2737 19.2788L52.6969 20.6014ZM52.6969 12.0093V14.7631L50.2737 16.0857L47.9604 14.7631V12.0093L50.2737 10.5768L52.6969 12.0093ZM52.6969 3.41711V6.17093L50.2737 7.49232L47.9604 6.17093V3.41711L50.2737 1.98466L52.6969 3.41711ZM59.7468 33.819V36.0226L57.7641 37.1244L55.7814 36.0226V33.819L57.7641 32.6087L59.7468 33.819ZM59.7468 25.1183V27.4317L57.7641 28.5335L55.7814 27.4317V25.1183L57.7641 24.0153L59.7468 25.1183ZM59.7468 16.5262V18.8396L57.7641 19.9401L55.7814 18.8396V16.5262L57.7641 15.4244L59.7468 16.5262ZM59.7468 7.93278V10.2461L57.7641 11.3479L55.7814 10.2461V7.93278L57.7641 6.83226L59.7468 7.93278ZM38.7082 28.6433V32.4976L35.4028 34.3705L32.2085 32.4976V28.6433L35.4028 26.7704L38.7082 28.6433ZM38.7082 20.0511V23.9067L35.4028 25.7797L32.2085 23.9067V20.0511L35.4028 18.1782L38.7082 20.0511ZM38.7082 11.459V15.3146L35.4028 17.1862L32.2085 15.3146V11.459L35.4028 9.58608L38.7082 11.459ZM45.7581 33.2688V36.5728L42.8932 38.1151L40.0295 36.5728V33.2688L42.8932 31.6167L45.7581 33.2688ZM45.7581 24.6779V27.8722L42.8932 29.5242L40.0295 27.8722V24.6779L42.8932 23.0246L45.7581 24.6779ZM45.7581 16.0857V19.2788L42.8932 20.9321L40.0295 19.2788V16.0857L42.8932 14.4324L45.7581 16.0857ZM0.59375 28.6433V10.467L5.66095 7.49358L8.52458 9.14688V6.39179L13.1526 3.74777L16.3469 5.62067V2.31532L20.5331 0.00195312L24.7194 2.31532V6.7212L28.0235 4.73849L31.7693 6.94206V11.2381L28.0235 13.3306L31.7693 15.5342V19.8303L28.0235 22.0338L31.7693 24.1276V28.4224L28.0235 30.626L24.7194 28.7531V33.0492L21.4141 34.9221L24.7194 36.795V41.6413L20.5331 44.0645L16.3469 41.6413V38.336L13.1526 40.2089L8.52458 37.5648V34.811L5.66095 36.4631L0.59375 33.4884V28.6433ZM17.778 36.0226L19.6497 34.9221L17.778 33.819V36.0226ZM16.3469 31.3959V29.7438L14.9144 30.6247L16.3469 31.3959ZM17.778 27.4304L19.6497 26.3287L17.778 25.1171V27.4304ZM21.4128 26.3299L24.2777 27.8722V24.6779L21.4128 26.3299ZM24.7182 20.0511V23.9067L28.0222 22.0338L24.7182 20.0511ZM16.3469 22.8037V21.1517L14.9144 22.0326L16.3469 22.8037ZM17.778 18.8396L19.6497 17.628L17.778 16.5262V18.8396ZM21.4128 17.628L24.2777 19.28V16.087L21.4128 17.628ZM24.7182 11.459V15.3146L28.0222 13.3306L24.7182 11.459ZM16.3469 14.2116V12.5595L14.9144 13.3294L16.3469 14.2116ZM17.778 10.2474L19.6497 9.03582L17.778 7.93404V10.2474ZM21.4128 9.03456L24.2777 10.6879V7.49358L21.4128 9.03456ZM10.7281 30.2953V30.9554L11.2784 30.6247L10.7281 30.2953ZM10.7281 21.5934V22.3645L11.2784 22.0338L10.7281 21.5934ZM10.7281 13.0012V13.7711L11.2784 13.3306L10.7281 13.0012ZM125.951 59.7053V62.4616L123.636 63.8941L121.216 62.4616V59.7053L123.636 58.3839L125.951 59.7053Z" fill="#A3A3A3"/>
<path fill-rule="evenodd" clip-rule="evenodd" d="M22.1853 85.1541C21.7449 87.3551 20.8627 87.6858 18.6604 88.1262V89.0084C20.2026 89.0084 21.7449 88.8974 23.3969 88.8974C24.9392 88.8974 26.5912 89.0084 28.3543 89.0084V88.1262C26.1507 87.6845 25.2698 87.2466 24.9392 85.1541C24.7196 83.8302 24.7196 81.8487 24.7196 78.7655V62.24L44.7675 85.1541L48.4022 89.3391L50.3849 89.6697V64.4436C50.3849 56.9519 51.2671 56.4029 53.6903 56.0723V55.0815C52.1481 55.1901 50.6058 55.3011 49.0636 55.3011C47.4103 55.3011 45.7582 55.1901 43.9964 55.0815V56.0723C48.0716 56.8434 48.0716 56.2919 48.0716 64.4436V81.7377L29.0144 59.7058C27.693 58.2733 26.3703 56.7336 25.2698 55.0815C24.0582 55.1901 22.7369 55.3011 21.4142 55.3011C20.2026 55.3011 18.7702 55.1901 17.5586 55.0815V56.0723C20.7529 56.7323 22.4062 57.5047 22.4062 61.6897V78.7642C22.4049 81.8487 22.4049 83.8302 22.1853 85.1541ZM67.2386 85.1541C66.3577 83.4995 66.027 81.407 66.027 78.7655C66.027 73.1455 67.4582 69.512 72.0849 69.512C76.381 69.512 78.2526 73.037 78.2526 78.7655C78.2526 81.4082 77.922 83.5008 77.1521 85.1541C76.2699 87.1355 74.6179 88.2373 72.0849 88.2373C69.8826 88.2385 68.2293 87.1355 67.2386 85.1541ZM81.0077 85.1541C82.1095 83.4995 82.7696 81.2984 82.7696 78.7655C82.7696 73.037 78.2526 68.1906 72.0849 68.1906C66.4662 68.1906 61.1794 73.037 61.1794 78.7655C61.1794 81.1886 61.8407 83.3897 63.051 85.1541C64.924 87.9079 68.2293 89.5587 72.0849 89.5587C75.9405 89.5587 79.1361 88.0164 81.0077 85.1541ZM102.488 85.1541C102.708 84.7098 102.929 84.2719 103.149 83.8302L106.783 76.1202C108.986 71.2739 109.539 70.1721 111.74 69.6205V68.8519C110.53 68.8519 109.428 68.9605 108.326 68.9605C107.005 68.9605 105.682 68.8519 104.36 68.8519V69.6205C105.352 69.8427 106.563 70.0623 106.563 70.9445C106.563 71.9352 105.571 74.2473 104.69 76.1215L101.275 83.8314L97.7503 76.1215C96.8694 74.2485 95.7676 71.9364 95.7676 70.8347C95.7676 69.955 96.9792 69.8439 97.6405 69.6218L97.7503 68.8532C96.2081 68.8532 94.6671 68.9618 93.1236 68.9618C91.6911 68.9618 90.2587 68.8532 88.7164 68.8532V69.6218C90.5893 69.8439 91.3605 71.3837 93.453 76.1215L96.8681 83.8314L97.5294 85.1553C98.2843 86.7614 99.0189 88.377 99.733 90.0017H100.283C100.835 88.7876 101.607 87.0257 102.488 85.1541ZM125.621 85.1541V73.9166C125.621 71.7156 125.732 68.6298 125.732 68.0796C123.748 68.7396 121.655 69.1813 119.012 69.6205V70.3917C121.216 70.9445 121.547 70.8334 121.547 73.9166V85.4847C121.547 87.6858 119.892 87.9079 118.79 88.1275V89.0097C119.781 89.1182 121.985 88.8986 123.637 88.8986C125.072 88.8986 127.273 89.0097 128.044 89.0097V88.1275C127.053 87.9079 125.621 87.7968 125.621 85.7043V85.1541ZM142.143 85.1541C141.924 84.7098 141.924 84.3829 141.924 84.0523C141.924 81.407 144.127 79.9758 147.211 79.9758C147.871 79.9758 149.084 80.0869 149.084 80.0869V85.3749C145.338 88.568 142.804 87.0257 142.143 85.1541ZM153.27 85.1541V74.9073C153.27 70.2831 152.057 68.1906 146.329 68.1906C142.473 68.1906 138.177 70.1721 138.288 75.1295H141.924C141.924 71.6045 142.366 69.6205 145.56 69.6205C148.974 69.6205 149.085 72.1548 149.085 74.4694V78.6544C145.227 78.6544 137.408 79.6451 137.408 84.6025C137.408 84.7111 137.408 84.9332 137.517 85.1553C137.739 87.7981 140.051 89.5599 142.696 89.5599C145.339 89.5599 147.212 88.1275 149.085 86.8061C149.635 87.9079 150.187 89.5599 151.619 89.5599C152.61 89.5599 154.591 88.4581 156.243 87.3564L155.913 86.6963C155.471 86.6963 155.142 86.9159 154.702 86.9159C153.709 86.9146 153.378 86.0337 153.27 85.1541ZM171.996 85.1541V72.4842C173.537 71.4935 174.971 70.2831 177.394 70.2831C181.799 70.2831 181.358 74.7988 181.358 77.4416V85.1541C181.358 86.9146 181.139 88.0164 178.824 88.1262L178.716 89.0084C180.257 89.0084 181.91 88.8974 183.451 88.8974C184.883 88.8974 186.207 89.0084 187.747 89.0084V88.1262C185.655 87.7956 185.543 87.576 185.543 85.1541V78.6532C185.543 73.9154 185.324 68.1894 178.824 68.1894C175.741 68.1894 173.098 70.2819 171.885 71.0543V68.0796C170.233 68.6298 168.58 69.0703 165.386 69.2899V70.061C166.71 70.2831 167.92 70.2831 167.92 72.2646V85.1541C168.031 87.5772 167.811 87.6858 165.277 88.1262V89.0084C166.268 89.0084 168.142 88.8974 169.573 88.8974C171.114 88.8974 173.429 89.0084 174.2 89.0084V88.1262C172.436 87.7968 172.105 87.6858 171.996 85.1541ZM203.501 85.1541C202.949 83.4995 203.168 81.0776 203.168 78.7655L203.279 70.9445H208.348V68.8519H203.279L203.501 63.7835L202.839 63.8946C201.628 65.327 199.536 68.1906 197.113 70.5027L197.443 70.9445H199.316L199.205 78.7655C199.205 80.858 199.094 83.1701 199.316 85.1541C199.645 87.6858 200.527 89.5587 203.169 89.5587C205.595 89.5587 208.789 87.3551 209.229 87.1355L208.678 86.3644C207.577 86.8061 207.135 87.0244 205.704 87.0244C204.492 87.0257 203.832 86.3644 203.501 85.1541Z" fill="#999999"/>
</svg>
