<svg width="250" height="78" viewBox="0 0 250 78" fill="none" xmlns="http://www.w3.org/2000/svg">
<g clip-path="url(#clip0_1418_2521)">
<path d="M93.5392 23.6245L89.9657 16.9933C88.7746 14.8072 88.3542 13.4227 88.3542 13.4227H88.2141C88.2141 13.4227 88.4243 14.7343 88.4243 17.2119V28.7254H84.6406V7.30159H88.7746L93.399 16.3375C94.3099 18.1592 94.5902 19.1065 94.5902 19.1065H94.7303C94.7303 19.1065 95.0106 18.0863 95.9214 16.3375L100.476 7.30159H104.47V28.7982H100.686V17.2119C100.686 14.6615 100.826 13.4227 100.826 13.4227H100.686C100.686 13.4227 100.266 14.8801 99.1445 16.9933L95.5711 23.6245H93.5392ZM120.935 23.333H112.668L110.846 28.7254H106.922L114.489 7.30159H119.324L126.821 28.7254H122.757L120.935 23.333ZM113.719 20.1267H119.814L118.483 16.1189C117.292 12.694 116.872 10.2893 116.872 10.2893H116.731C116.731 10.2893 116.241 12.694 115.12 16.046L113.719 20.1267ZM145.459 24.5718C143.567 27.7052 141.255 29.1626 136.981 29.1626C131.516 29.1626 127.802 25.1547 127.802 18.0135C127.802 10.8722 131.656 6.7915 137.611 6.7915C141.535 6.7915 144.198 8.61325 145.599 12.0381L142.026 13.8599C141.255 11.4552 139.713 10.1435 137.401 10.1435C133.758 10.1435 131.656 13.1312 131.656 18.0135C131.656 22.8229 133.548 25.6648 137.331 25.6648C139.643 25.6648 141.255 24.6446 142.516 22.3857L145.459 24.5718ZM162.766 34.4092C157.931 34.4821 155.409 32.1502 154.358 29.0168C149.803 28.1424 147.071 24.2803 147.071 18.0863C147.071 10.8722 150.714 6.86437 156.53 6.86437C162.345 6.86437 165.989 10.8722 165.989 18.0863C165.989 24.5718 162.976 28.5068 158.141 29.1626C159.543 30.62 161.715 31.2029 163.817 31.0572L162.766 34.4092ZM151.064 18.0863C151.064 22.8958 152.956 25.8834 156.6 25.8834C160.313 25.8834 162.205 22.8958 162.205 18.0863C162.205 13.2041 160.313 10.2893 156.6 10.2893C152.956 10.2893 151.064 13.2041 151.064 18.0863ZM185.397 7.30159V21.7298C185.397 27.4137 181.474 29.2355 177.199 29.2355C172.995 29.2355 169.072 27.3408 169.072 21.7298V7.30159H172.855V20.6368C172.855 24.2803 174.257 26.0292 177.27 26.0292C180.282 26.0292 181.684 24.2803 181.684 20.7097V7.30159H185.397ZM200.882 23.333H192.614L190.793 28.7254H186.869L194.366 7.30159H199.201L206.698 28.7254H202.634L200.882 23.333ZM193.665 20.1267H199.761L198.43 16.1189C197.309 12.694 196.818 10.2893 196.818 10.2893H196.678C196.678 10.2893 196.188 12.694 195.067 16.046L193.665 20.1267ZM220.781 28.7254C220.221 28.1424 220.011 27.4866 219.8 26.6121L219.03 23.0415C218.469 20.7097 217.348 20.2724 215.526 20.2724H213.004V28.6525H209.22V7.30159H216.717C221.412 7.30159 223.934 9.26908 223.934 13.5684C223.934 16.9204 221.832 18.7422 219.24 18.9608C221.202 19.2523 222.253 20.1267 222.813 22.3128L223.864 26.4664C224.074 27.3408 224.425 28.0695 224.985 28.7254H220.781ZM212.934 17.2119H216.507C218.889 17.2119 220.011 16.1917 220.011 13.8599C220.011 11.7467 218.889 10.5079 216.507 10.5079H212.934V17.2119ZM231.922 7.30159V28.7982H228.138V7.30159H231.922ZM249.999 28.7254H236.897V7.30159H249.999V10.7265H240.61V16.4103H248.878V19.7624H240.61V25.5191H249.999V28.7254Z" fill="#A3A3A3"/>
<path d="M38.2578 42.4976L44.2836 46.0682H44.704L44.6339 46.2868L64.8834 58.4561V19.4707L38.2578 35.5021V42.4976Z" fill="#D7D7D7"/>
<path d="M20.6698 46.0682L26.6256 42.4976V35.5021L0 19.4707V58.4561L20.3195 46.2868L20.2494 46.0682H20.6698Z" fill="#999999"/>
<path d="M32.4414 0.0146484L64.8825 19.4709V0.0146484H32.4414Z" fill="#D7D7D7"/>
<path d="M0 0.0146484V19.4709L32.4411 0.0146484H0ZM45.7539 51.5337V53.9384H44.6328C43.5818 54.5942 42.8812 55.6144 42.6009 57.2904H41.4097L41.5499 59.9137L42.1805 72.0102L64.8122 58.4564L44.6328 46.2871L43.5118 51.5337H45.7539ZM44.2825 46.0685L38.2567 42.4978V46.0685H44.2825Z" fill="#999999"/>
<path d="M21.4406 51.5339L20.3195 46.2873L0 58.4566L22.6317 72.0104L23.4025 57.2906H22.2814C22.0011 55.6146 21.3004 54.5216 20.2494 53.9386H19.1284V51.5339H21.4406ZM26.6256 42.498L20.6698 46.0687H26.6256V42.498Z" fill="#D7D7D7"/>
<path d="M33.2133 23.9888C33.3534 23.9888 33.4936 23.9888 33.6337 23.9159C33.914 23.6244 34.1242 23.1872 34.1242 22.6771C34.1242 21.7298 33.3534 20.9282 32.4426 20.9282C32.3024 20.9282 32.1623 20.9282 32.0222 21.0011C31.7419 21.2926 31.5317 21.7298 31.5317 22.2399C31.5317 23.1872 32.3024 23.9888 33.2133 23.9888ZM35.1051 57.8004C30.4106 57.8733 29.0793 60.861 29.0793 60.861L28.7991 61.4439L28.3086 75.5078L32.4426 77.9854L42.252 72.0829L41.6214 59.9865C41.6214 59.7679 40.4302 57.7276 35.1051 57.8004Z" fill="white"/>
<path d="M19.1289 51.5338V53.9385H20.25C21.301 54.5943 22.0017 55.6145 22.2819 57.2905H23.403L22.6323 72.0103L28.3778 75.4352L28.8683 61.3712L29.1485 60.7883C29.1485 60.7883 30.4798 57.8006 35.1743 57.7278C40.4994 57.6549 41.6906 59.6952 41.7606 59.841L41.6205 57.2177H42.8116C43.0919 55.5417 43.7926 54.4486 44.8436 53.8656H45.9647V51.4609C45.7545 51.5338 19.1289 51.5338 19.1289 51.5338Z" fill="#B2B2B2"/>
<path d="M33.5625 67.7108C33.5625 67.2736 33.072 66.5449 32.4414 66.5449C31.8108 66.5449 31.3203 67.2736 31.3203 67.7108V70.6985H33.5625V67.7108Z" fill="#B2B2B2"/>
<path d="M28.168 33.3892V35.0652L32.4421 37.6885L36.7862 35.0652V33.3892H28.168ZM32.4421 40.3118L28.168 42.9351V44.6111H36.7862V42.9351L32.4421 40.3118Z" fill="#999999"/>
<path d="M38.257 31.9317H38.7475C39.0978 31.9317 39.4481 32.2232 39.4481 32.6604C39.4481 33.0247 39.1679 33.3891 38.7475 33.3891H38.257V35.5023L64.8825 19.5438L32.4414 0.0146484V21.0012C33.3523 21.0012 34.123 21.8028 34.123 22.7501C34.123 23.1873 33.9128 23.6245 33.6326 23.9889C33.3523 24.2075 33.2121 24.5718 33.2121 24.9362C33.2121 25.3734 33.4223 25.8106 33.7727 26.0292C36.3652 26.685 38.257 29.0898 38.257 31.9317Z" fill="#999999"/>
<path d="M32.4406 44.6108H28.1665V42.862L32.4406 40.3115V37.6153L28.1665 35.0649V33.316H30.0583C29.9181 33.2431 29.8481 32.9516 29.8481 32.5873C29.8481 32.1501 29.9882 31.8586 30.1283 31.8586H30.2685C30.2685 28.5066 31.2494 25.8104 32.4406 25.8104C32.861 25.8104 33.3514 25.8833 33.7718 25.9561C33.4215 25.7375 33.2113 25.3003 33.2113 24.8631C33.2113 24.4987 33.3514 24.1344 33.6317 23.9158C33.4916 23.9158 33.3514 23.9886 33.2113 23.9886C32.3004 23.9886 31.5297 23.1871 31.5297 22.2398C31.5297 21.7297 31.7399 21.2925 32.0202 21.001C31.3195 21.2196 30.759 21.8754 30.759 22.677C30.759 23.1142 30.9692 23.5514 31.2494 23.9158C31.5297 24.1344 31.6698 24.4987 31.6698 24.936C31.6698 25.3732 31.4596 25.8104 31.1093 26.1019C28.5168 26.6848 26.625 29.0895 26.625 32.0043H26.2046C25.7842 32.0043 25.5039 32.2958 25.5039 32.733C25.5039 33.0974 25.7842 33.4617 26.2046 33.4617H26.625V46.1411H32.4406V44.6108Z" fill="#B2B2B2"/>
<path d="M32.4417 37.6887V40.3849L36.7158 42.9354V44.6842H32.4417V46.1416H20.25L21.4411 51.6069H43.5824L44.7735 46.1416H38.3274V33.3894H38.8178C39.1682 33.3894 39.5185 33.0979 39.5185 32.6607C39.5185 32.2235 39.2382 31.932 38.8178 31.932H38.3274C38.3274 28.58 35.7349 25.8838 32.5118 25.8838C31.3206 25.8838 30.3397 28.58 30.3397 31.932H30.1295C29.9893 31.932 29.8492 32.2235 29.8492 32.6607C29.8492 33.025 29.9193 33.3165 30.0594 33.3894H36.7859V35.1383L32.4417 37.6887Z" fill="white"/>
<path d="M28.168 37.3242L30.9006 39.0002L28.168 40.6762V37.3242Z" fill="#999999"/>
<path d="M36.7871 37.3242L33.9844 39.0002L36.7871 40.6762V37.3242Z" fill="#D7D7D7"/>
<path d="M44.5624 21.147L42.04 23.5517L42.3203 20.0539L38.957 19.471L41.7597 17.5035L40.0781 14.4429L43.3012 15.4631L44.5624 12.2568L45.7536 15.4631L48.9767 14.4429L47.295 17.5035L50.0977 19.471L46.7345 20.0539L47.0148 23.5517L44.5624 21.147Z" fill="white"/>
<path d="M26.2052 33.3891C25.7848 33.3891 25.5045 33.0976 25.5045 32.6604C25.5045 32.2232 25.7848 31.9317 26.2052 31.9317H26.6256C26.6256 29.0898 28.5174 26.6851 31.1099 26.0292C31.4602 25.7377 31.6704 25.3734 31.6704 24.8633C31.6704 24.4261 31.5303 24.1346 31.25 23.8431C30.9697 23.5516 30.7595 23.1144 30.7595 22.6043C30.7595 21.8028 31.3201 21.1469 32.0207 20.9283C32.1609 20.9283 32.301 20.8555 32.4411 20.8555V0.0146484L0 19.4709L26.6256 35.4294V33.3162L26.2052 33.3891Z" fill="#D7D7D7"/>
<path d="M27.3267 50.4408H29.0083L28.7981 47.1616H26.9062L27.3267 50.4408ZM30.1293 50.4408H32.3715V47.1616H29.9191L30.1293 50.4408Z" fill="#B2B2B2"/>
<path d="M24.5952 50.4408H26.1366L25.7162 47.1616H23.9646L24.5952 50.4408ZM22.2829 50.4408H23.4741L22.9136 47.1616H21.6523L22.2829 50.4408Z" fill="#D7D7D7"/>
<path d="M38.75 50.4408H40.2915L40.852 47.1616H39.1003L38.75 50.4408ZM41.4826 50.4408H42.7438L43.4445 47.1616H42.0432L41.4826 50.4408Z" fill="#999999"/>
<path d="M94.1011 36.2306H95.9229V47.0154C95.9229 49.5658 95.5025 51.2418 94.7317 52.0434C93.8909 52.9178 92.8399 53.355 91.5787 53.355C90.2474 53.355 89.1964 52.9178 88.4257 51.9705C88.0053 51.4604 87.725 50.8775 87.5148 50.0759C87.3747 49.3472 87.3046 48.1084 87.3046 46.4324V36.2306H88.9862V34.9918H82.8203V36.2306H84.6421V46.9425C84.6421 49.5658 85.2026 51.5333 86.2536 52.6992C87.3046 53.938 88.9862 54.521 91.2985 54.521C93.5406 54.521 95.2222 53.8651 96.2732 52.4806C96.8338 51.7519 97.2542 50.9503 97.3943 50.1488C97.6045 49.3472 97.6746 48.0355 97.6746 46.2867V36.2306H99.4963V34.9918H93.961L94.1011 36.2306ZM113.72 44.1734C113.72 42.7889 113.37 41.6958 112.739 40.8943C112.108 40.0927 111.198 39.7284 110.006 39.7284C109.025 39.7284 108.115 39.947 107.274 40.4571C106.433 40.9672 105.732 41.6958 105.102 42.6432V40.0198H100.828V41.3315H102.649V52.845H100.828V54.1566H106.994V52.845H105.102V43.8819C105.732 43.1532 106.433 42.5703 107.064 42.2059C107.764 41.8416 108.395 41.623 109.096 41.623C109.866 41.623 110.427 41.8416 110.707 42.2788C110.987 42.716 111.198 43.5176 111.198 44.6106V52.845H109.376V54.1566H115.542V52.845H113.72V44.1734ZM121.357 40.0198H117.013V41.3315H118.905V52.7721H117.013V54.0837H123.179V52.7721H121.357V40.0198ZM118.905 34.9189H121.357V37.4694H118.905V34.9189ZM133.199 41.3315H135.09L130.957 50.8775L127.103 41.3315H128.995V40.0198H123.389V41.3315H124.51L129.625 54.2295H130.886L136.422 41.3315H137.473V40.0198H133.199V41.3315ZM143.428 39.7284C141.677 39.7284 140.275 40.3842 139.154 41.7687C138.033 43.0804 137.473 44.8293 137.473 46.9425C137.473 49.1286 138.103 50.9503 139.295 52.3349C140.556 53.7194 142.167 54.4481 144.129 54.4481C145.46 54.4481 146.862 54.1566 148.403 53.5008V51.6062C147.142 52.3349 145.811 52.6992 144.479 52.6992C143.078 52.6992 142.027 52.1891 141.256 51.0961C140.486 50.0759 140.065 48.6185 140.065 46.7239H148.403V46.2138C148.403 44.1006 147.983 42.4974 147.072 41.3315C146.301 40.2385 145.04 39.7284 143.428 39.7284ZM145.881 45.4851H140.275C140.346 44.0277 140.696 42.8618 141.186 42.1331C141.677 41.4044 142.377 41.04 143.358 41.04C145.04 41.04 145.881 42.4245 145.881 45.1936V45.4851ZM155.2 42.6432V40.0198H150.926V41.3315H152.747V52.845H150.926V54.1566H157.092V52.845H155.27V43.8819C156.391 42.5703 157.512 41.9873 158.563 41.9873H158.983V43.4447H160.525V39.947C160.245 39.8741 159.964 39.8012 159.684 39.8012C157.722 39.7284 156.251 40.6757 155.2 42.6432ZM168.442 46.2867L167.321 45.7766C166.2 45.2665 165.43 44.8293 165.009 44.4649C164.589 44.1006 164.379 43.6633 164.379 43.0804C164.379 42.4974 164.589 41.9873 165.009 41.5501C165.43 41.1129 165.99 40.8943 166.621 40.8943C167.041 40.8943 167.462 40.9672 167.882 41.1129C168.302 41.2586 168.793 41.4772 169.213 41.8416V43.4447H170.755V40.3842C170.054 40.0927 169.353 39.8741 168.653 39.8012C167.952 39.6555 167.321 39.5826 166.621 39.5826C165.289 39.5826 164.168 39.947 163.328 40.6757C162.487 41.4044 161.996 42.3517 161.996 43.5176C161.996 45.3393 163.258 46.7967 165.85 47.8169L167.111 48.327C168.583 48.91 169.283 49.7115 169.283 50.7317C169.283 51.3876 169.073 51.9705 168.513 52.4077C168.022 52.845 167.391 53.0636 166.621 53.0636C166.13 53.0636 165.64 52.9907 165.079 52.7721C164.589 52.5535 164.028 52.262 163.468 51.8248V50.2216H161.926V53.355C162.627 53.7194 163.398 53.938 164.168 54.1566C164.939 54.3024 165.71 54.4481 166.551 54.4481C168.092 54.4481 169.353 54.0837 170.334 53.2822C171.315 52.4806 171.806 51.4604 171.806 50.2216C171.806 49.3472 171.525 48.5456 171.035 48.0355C170.545 47.3797 169.704 46.7967 168.442 46.2867ZM175.449 34.9189H177.902V37.4694H175.449V34.9189ZM177.972 40.0198H173.627V41.3315H175.449V52.7721H173.627V54.0837H179.793V52.7721H177.972V40.0198ZM190.163 50.9503H188.832C188.832 50.9503 188.832 52.3349 187.571 52.845C187.361 52.9178 187.15 52.9907 187.01 52.9907C186.45 52.9907 186.099 52.7721 185.819 52.262C185.539 51.7519 185.399 51.0232 185.399 50.0759V41.3315H188.832V40.0927H185.399V36.8864L182.946 37.5423V40.0927H181.125V41.3315H182.946V49.7844C182.946 51.3876 183.297 52.6263 183.927 53.355C184.558 54.0837 185.539 54.521 186.73 54.521C186.94 54.521 187.15 54.521 187.291 54.4481H187.501C187.571 54.4481 187.711 54.3752 187.781 54.3752C187.851 54.3752 187.851 54.3752 187.921 54.3024C187.991 54.3024 188.061 54.2295 188.131 54.2295C188.201 54.2295 188.201 54.2295 188.272 54.1566C189.112 53.5737 190.023 52.6992 190.163 50.9503Z" fill="#A3A3A3"/>
<path d="M200.253 40.0928V41.4044H202.075L198.011 50.9504L194.157 41.4044H195.979V40.0928H190.374V41.4044H191.425L196.61 54.3753C196.399 54.8854 196.189 55.3226 195.909 55.7598C195.418 56.5614 194.998 57.2901 194.157 57.6544C193.737 57.873 193.246 58.0188 192.756 58.0188C192.195 58.0188 191.705 57.8002 191.214 57.5087V56.3428H189.953V58.8204C190.163 58.9661 190.654 59.1118 191.144 59.1847C191.845 59.3304 192.476 59.3304 193.176 59.2576C194.227 59.1118 195.138 58.6746 195.839 57.9459C196.329 57.363 196.96 56.3428 197.31 55.6869C197.45 55.4683 197.52 55.3226 197.52 55.104L197.871 54.3753L203.406 41.4773H204.457V40.0928H200.253Z" fill="#A3A3A3"/>
<path d="M85.551 70.6985C85.6911 71.573 86.2517 71.9373 86.9524 71.9373C87.653 71.9373 88.2136 71.573 88.2136 70.9171C88.2136 70.2613 87.9333 69.9698 86.8122 69.5326C85.7612 69.1683 84.8503 68.6582 84.8503 67.3465C84.8503 65.8891 85.9714 65.3062 87.0224 65.3062C88.2836 65.3062 89.1945 65.8162 89.3346 67.2008L88.2836 67.4194C88.2136 66.6178 87.7231 66.2535 87.0224 66.2535C86.3918 66.2535 85.9013 66.6178 85.9013 67.2736C85.9013 68.0023 86.4619 68.221 87.3728 68.5853C88.4238 68.9497 89.2646 69.3869 89.2646 70.7714C89.2646 72.1559 88.2136 72.8118 86.8823 72.8118C85.551 72.8118 84.7102 72.2288 84.5 70.99L85.551 70.6985ZM93.6788 67.7837C94.0992 68.5853 94.1693 69.0225 94.1693 69.0225H94.2393C94.2393 69.0225 94.3094 68.6582 94.6598 67.7837L95.6407 65.5248H96.7618L94.6598 69.9698V72.666H93.6087V69.9698L91.3666 65.5248H92.5577L93.6788 67.7837ZM99.6345 72.666V65.5976H101.737C103.628 65.5976 105.03 66.5449 105.03 69.0954C105.03 71.7187 103.558 72.7389 101.737 72.7389L99.6345 72.666ZM101.596 71.7187C102.928 71.7187 103.909 70.99 103.909 69.0954C103.909 67.1279 102.928 66.4721 101.737 66.4721H100.686V71.7187H101.596ZM111.966 69.6055C112.387 70.2613 112.737 70.9171 112.737 70.9171H112.807C112.807 70.9171 112.737 70.1884 112.737 69.2411V65.4519H113.788V72.5203H112.807L110.075 68.4396C109.654 67.7837 109.304 67.055 109.304 67.055H109.234C109.234 67.055 109.304 67.7837 109.304 68.731V72.4474H108.253V65.379H109.374L111.966 69.6055ZM121.706 72.666H117.502V65.5976H121.706V66.5449H118.553V68.6582H121.355V69.6055H118.553V71.7187H121.706V72.666ZM126.4 67.7837C126.821 68.5853 126.891 69.0225 126.891 69.0225H126.961C126.961 69.0225 127.031 68.6582 127.381 67.7837L128.362 65.5248H129.483L127.381 69.9698V72.666H126.33V69.9698L124.088 65.5248H125.279L126.4 67.7837ZM133.337 68.5853C133.757 68.5853 134.108 68.9496 134.108 69.3869C134.108 69.8241 133.757 70.1884 133.337 70.1884C132.916 70.1884 132.566 69.8241 132.566 69.3869C132.566 68.9496 132.916 68.5853 133.337 68.5853ZM142.235 70.6985H139.433L138.802 72.666H137.681L140.203 65.5976H141.605L144.057 72.666H142.936L142.235 70.6985ZM139.713 69.8241H141.885L141.395 68.221C141.044 67.055 140.834 66.3263 140.834 66.3263C140.834 66.3263 140.694 67.055 140.274 68.1481L139.713 69.8241ZM151.765 65.5248V70.2613C151.765 72.0831 150.433 72.7389 149.102 72.7389C147.771 72.7389 146.439 72.0831 146.439 70.2613V65.5248H147.49V70.0427C147.49 71.3544 148.051 71.8644 149.032 71.8644C150.013 71.8644 150.573 71.2815 150.573 70.0427V65.5248H151.765ZM155.478 70.6985C155.618 71.573 156.179 71.9373 156.879 71.9373C157.58 71.9373 158.141 71.573 158.141 70.9171C158.141 70.2613 157.86 69.9698 156.739 69.5326C155.688 69.1683 154.777 68.6582 154.777 67.3465C154.777 65.8891 155.899 65.3062 156.95 65.3062C158.211 65.3062 159.122 65.8162 159.262 67.2008L158.211 67.4194C158.141 66.6178 157.65 66.2535 156.95 66.2535C156.319 66.2535 155.828 66.6178 155.828 67.2736C155.828 68.0023 156.389 68.221 157.3 68.5853C158.351 68.9497 159.192 69.3869 159.192 70.7714C159.192 72.1559 158.141 72.8118 156.809 72.8118C155.478 72.8118 154.637 72.2288 154.427 70.99L155.478 70.6985ZM163.536 72.666V66.5449H161.574V65.5976H166.619V66.5449H164.657V72.666H163.536ZM173.205 72.666C173.065 72.4474 172.995 72.3017 172.925 72.0102L172.645 70.7714C172.434 69.9698 172.014 69.7512 171.383 69.7512H170.473V72.666H169.422V65.5976H171.804C173.345 65.5976 174.116 66.2535 174.116 67.638C174.116 68.731 173.415 69.314 172.575 69.3869V69.4597C173.205 69.5326 173.555 69.8241 173.766 70.6257L174.116 72.0102C174.186 72.3017 174.326 72.5203 174.466 72.7389H173.205V72.666ZM170.473 68.8039H171.734C172.575 68.8039 172.995 68.4396 172.995 67.638C172.995 66.9093 172.575 66.4721 171.734 66.4721H170.473V68.8039ZM181.193 70.6985H178.39L177.76 72.666H176.638L179.161 65.5976H180.562L183.015 72.666H181.893L181.193 70.6985ZM178.74 69.8241H180.913L180.422 68.221C180.072 67.1279 179.862 66.3263 179.862 66.3263H179.791C179.791 66.3263 179.651 67.055 179.231 68.1481L178.74 69.8241ZM186.868 65.5248V71.6458H189.951V72.5931H185.817V65.5248H186.868ZM193.945 65.5248V72.5931H192.894V65.5248H193.945ZM201.372 70.6985H198.569L197.939 72.666H196.818L199.34 65.5976H200.742L203.194 72.666H202.073L201.372 70.6985ZM198.85 69.8241H201.022L200.531 68.221C200.181 67.1279 199.971 66.3263 199.971 66.3263H199.901C199.901 66.3263 199.761 67.055 199.34 68.1481L198.85 69.8241Z" fill="#A3A3A3"/>
</g>
<defs>
<clipPath id="clip0_1418_2521">
<rect width="250" height="78" fill="white"/>
</clipPath>
</defs>
</svg>
